<svg width="20" height="20" viewBox="0 0 20 20" fill="none" xmlns="http://www.w3.org/2000/svg">
<path fill-rule="evenodd" clip-rule="evenodd" d="M2.39825 3.23223C2.86709 2.76339 3.50297 2.5 4.16602 2.5H15.8327C16.4958 2.5 17.1316 2.76339 17.6004 3.23223C18.0693 3.70107 18.3327 4.33696 18.3327 5V10.8333C18.3327 11.2936 17.9596 11.6667 17.4993 11.6667C17.0391 11.6667 16.666 11.2936 16.666 10.8333V5C16.666 4.77898 16.5782 4.56702 16.4219 4.41074C16.2657 4.25447 16.0537 4.16667 15.8327 4.16667H4.16602C3.945 4.16667 3.73304 4.25447 3.57676 4.41074C3.42048 4.56702 3.33268 4.77898 3.33268 5V16.6667C3.33268 16.8877 3.42048 17.0997 3.57676 17.2559C3.73304 17.4122 3.945 17.5 4.16602 17.5H10.8327C11.2929 17.5 11.666 17.8731 11.666 18.3333C11.666 18.7936 11.2929 19.1667 10.8327 19.1667H4.16602C3.50297 19.1667 2.86709 18.9032 2.39825 18.4344C1.92941 17.9656 1.66602 17.3298 1.66602 16.6667V5C1.66602 4.33696 1.92941 3.70107 2.39825 3.23223Z" fill="white"/>
<path fill-rule="evenodd" clip-rule="evenodd" d="M13.3333 0.833252C13.7936 0.833252 14.1667 1.20635 14.1667 1.66659V4.99992C14.1667 5.46015 13.7936 5.83325 13.3333 5.83325C12.8731 5.83325 12.5 5.46015 12.5 4.99992V1.66659C12.5 1.20635 12.8731 0.833252 13.3333 0.833252Z" fill="white"/>
<path fill-rule="evenodd" clip-rule="evenodd" d="M6.66536 0.833252C7.1256 0.833252 7.4987 1.20635 7.4987 1.66659V4.99992C7.4987 5.46015 7.1256 5.83325 6.66536 5.83325C6.20513 5.83325 5.83203 5.46015 5.83203 4.99992V1.66659C5.83203 1.20635 6.20513 0.833252 6.66536 0.833252Z" fill="white"/>
<path fill-rule="evenodd" clip-rule="evenodd" d="M1.66602 8.33333C1.66602 7.8731 2.03912 7.5 2.49935 7.5H17.4993C17.9596 7.5 18.3327 7.8731 18.3327 8.33333C18.3327 8.79358 17.9596 9.16667 17.4993 9.16667H2.49935C2.03912 9.16667 1.66602 8.79358 1.66602 8.33333Z" fill="white"/>
<path fill-rule="evenodd" clip-rule="evenodd" d="M15.8333 12.5C16.2936 12.5 16.6667 12.8731 16.6667 13.3333V18.3333C16.6667 18.7936 16.2936 19.1667 15.8333 19.1667C15.3731 19.1667 15 18.7936 15 18.3333V13.3333C15 12.8731 15.3731 12.5 15.8333 12.5Z" fill="white"/>
<path fill-rule="evenodd" clip-rule="evenodd" d="M12.5 15.8333C12.5 15.3731 12.8731 15 13.3333 15H18.3333C18.7936 15 19.1667 15.3731 19.1667 15.8333C19.1667 16.2936 18.7936 16.6667 18.3333 16.6667H13.3333C12.8731 16.6667 12.5 16.2936 12.5 15.8333Z" fill="white"/>
</svg>
