<svg width="20" height="20" viewBox="0 0 20 20" fill="none" xmlns="http://www.w3.org/2000/svg">
<g clip-path="url(#clip0_1233_19177)">
<path d="M13.8929 1.53418C13.0225 1.53418 12.1907 1.7337 11.4205 2.12724C10.8962 2.39508 10.4146 2.75094 10.0013 3.17315C9.58802 2.75094 9.10642 2.39508 8.58213 2.12724C7.81191 1.7337 6.98007 1.53418 6.10971 1.53418C3.10915 1.53418 0.667969 3.97536 0.667969 6.97596C0.667969 9.10122 1.79039 11.3584 4.00403 13.6849C5.8523 15.6275 8.11516 17.2467 9.68797 18.2631L10.0013 18.4656L10.3146 18.2631C11.8874 17.2468 14.1503 15.6275 15.9986 13.6849C18.2122 11.3584 19.3346 9.10122 19.3346 6.97596C19.3346 3.97536 16.8935 1.53418 13.8929 1.53418Z" fill="white"/>
</g>
<defs>
<clipPath id="clip0_1233_19177">
<rect width="18.6667" height="18.6667" fill="white" transform="translate(0.667969 0.666992)"/>
</clipPath>
</defs>
</svg>
