<svg width="28" height="28" viewBox="0 0 28 28" fill="none" xmlns="http://www.w3.org/2000/svg">
<path d="M15.7434 4.03003L15.7433 4.03007L15.7476 4.03725C15.9316 4.34392 16.0391 4.70718 16.0391 5.09089C16.0391 6.22115 15.1238 7.13637 13.9936 7.13637C12.8634 7.13637 11.9481 6.22115 11.9481 5.09089C11.9481 4.70718 12.0556 4.34392 12.2396 4.03725L12.2397 4.03729L12.2438 4.03003L13.9936 0.999875L15.7434 4.03003Z" stroke="#A6C2E9"/>
<path d="M14.5163 11.4547V12.2047H15.2663H21.63C23.3206 12.2047 24.6995 13.5796 24.7109 15.2753V17.2264C24.7109 18.1868 23.9267 18.971 22.9663 18.971C22.4987 18.971 22.0653 18.7902 21.7339 18.4588L21.7333 18.4582L19.016 15.7473L18.4869 15.2194L17.9572 15.7466L15.2336 18.4576L15.2323 18.4588C14.5835 19.1077 13.4165 19.1078 12.7676 18.4588L12.767 18.4582L10.0497 15.7473L9.51995 15.2188L8.99024 15.7473L6.26662 18.4646L6.26601 18.4652C5.93454 18.7966 5.50121 18.9773 5.03359 18.9773C4.07326 18.9773 3.28906 18.1932 3.28906 17.2328V15.2728C3.28906 13.5807 4.66508 12.2047 6.35725 12.2047H12.7208H13.4708V11.4547V9.65918H14.5163V11.4547Z" stroke="#A6C2E9" stroke-width="1.5"/>
<path d="M17.6294 20.8751L18.4724 20.036L19.3115 20.875C19.3115 20.875 19.3115 20.875 19.3115 20.8751C20.285 21.8486 21.5763 22.3866 22.9536 22.3866C23.5689 22.3866 24.1551 22.2769 24.6981 22.079V26.7275C24.6981 27.0132 24.4612 27.2502 24.1754 27.2502H3.81177C3.526 27.2502 3.28906 27.0132 3.28906 26.7275V22.0782C3.83386 22.2767 4.42126 22.3865 5.03359 22.3865C6.40862 22.3865 7.70145 21.8501 8.66437 20.8737L9.50603 20.036L10.3451 20.8751C10.3451 20.8751 10.3451 20.8751 10.3452 20.8751C12.2987 22.8286 15.6747 22.8289 17.6287 20.8758C17.6289 20.8756 17.6292 20.8753 17.6294 20.8751Z" stroke="#A6C2E9" stroke-width="1.5"/>
</svg>
