<svg width="80" height="80" viewBox="0 0 80 80" fill="none" xmlns="http://www.w3.org/2000/svg">
<g filter="url(#filter0_b_1522_4397)">
<circle cx="40" cy="40" r="40" fill="url(#paint0_linear_1522_4397)" fill-opacity="0.3"/>
</g>
<g clip-path="url(#clip0_1522_4397)">
<path d="M22.5549 51.3155C22.6769 51.3091 22.7966 51.2603 22.9131 51.2218C23.5734 51.0048 24.1157 50.2586 24.4416 49.1447C24.7753 48.0013 24.5045 46.9828 24.3133 46.4815L24.2999 46.4431L24.2692 46.4199C22.4573 45.1211 20.6313 43.759 18.8422 42.3738C17.9969 41.7188 17.1232 41.0422 16.636 39.829C16.2637 38.9026 16.17 37.9281 16.3487 36.8487C16.5904 35.3922 16.9249 34.465 17.1689 33.7875C17.4349 33.0501 17.5955 32.6049 17.3633 32.1452C17.0051 31.435 15.9339 31.1347 14.0882 31.2276C13.756 31.2444 13.3932 31.2741 13.0115 31.3173L12.9225 31.3269L12.9044 31.4158C12.4747 33.5041 12.3039 35.6372 12.3983 37.7576C12.4857 39.7298 12.5384 40.9196 13.0697 42.401C13.7663 44.3444 15.7002 46.0819 19.5498 49.4899C20.8092 50.6045 21.7001 51.3596 22.5549 51.3163V51.3155Z" fill="url(#paint1_linear_1522_4397)"/>
<path style="mix-blend-mode:multiply" opacity="0.68" d="M22.5549 51.3155C22.6769 51.3091 22.7966 51.2603 22.9131 51.2218C23.5734 51.0048 24.1157 50.2586 24.4416 49.1447C24.7753 48.0013 24.5045 46.9828 24.3133 46.4815L24.2999 46.4431L24.2692 46.4199C22.4573 45.1211 20.6313 43.759 18.8422 42.3738C17.9969 41.7188 17.1232 41.0422 16.636 39.829C16.2637 38.9026 16.17 37.9281 16.3487 36.8487C16.5904 35.3922 16.9249 34.465 17.1689 33.7875C17.4349 33.0501 17.5955 32.6049 17.3633 32.1452C17.0051 31.435 15.9339 31.1347 14.0882 31.2276C13.756 31.2444 13.3932 31.2741 13.0115 31.3173L12.9225 31.3269L12.9044 31.4158C12.4747 33.5041 12.3039 35.6372 12.3983 37.7576C12.4857 39.7298 12.5384 40.9196 13.0697 42.401C13.7663 44.3444 15.7002 46.0819 19.5498 49.4899C20.8092 50.6045 21.7001 51.3596 22.5549 51.3163V51.3155Z" fill="url(#paint2_radial_1522_4397)"/>
<path style="mix-blend-mode:multiply" opacity="0.68" d="M22.5549 51.3155C22.6769 51.3091 22.7966 51.2603 22.9131 51.2218C23.5734 51.0048 24.1157 50.2586 24.4416 49.1447C24.7753 48.0013 24.5045 46.9828 24.3133 46.4815L24.2999 46.4431L24.2692 46.4199C22.4573 45.1211 20.6313 43.759 18.8422 42.3738C17.9969 41.7188 17.1232 41.0422 16.636 39.829C16.2637 38.9026 16.17 37.9281 16.3487 36.8487C16.5904 35.3922 16.9249 34.465 17.1689 33.7875C17.4349 33.0501 17.5955 32.6049 17.3633 32.1452C17.0051 31.435 15.9339 31.1347 14.0882 31.2276C13.756 31.2444 13.3932 31.2741 13.0115 31.3173L12.9225 31.3269L12.9044 31.4158C12.4747 33.5041 12.3039 35.6372 12.3983 37.7576C12.4857 39.7298 12.5384 40.9196 13.0697 42.401C13.7663 44.3444 15.7002 46.0819 19.5498 49.4899C20.8092 50.6045 21.7001 51.3596 22.5549 51.3163V51.3155Z" fill="url(#paint3_radial_1522_4397)"/>
<path d="M58.6785 50.253C58.5683 50.2474 58.4612 50.2034 58.3558 50.1689C57.7615 49.9735 57.2727 49.3017 56.9799 48.2992C56.6793 47.2703 56.9233 46.3534 57.0949 45.9018L57.1075 45.8666L57.135 45.8458C58.7658 44.6767 60.4101 43.4508 62.0205 42.2033C62.7816 41.6139 63.5679 41.0046 64.0063 39.9132C64.3416 39.0796 64.4258 38.202 64.2645 37.2307C64.0464 35.9191 63.7458 35.0848 63.5262 34.4754C63.2869 33.8116 63.1421 33.4105 63.3507 32.9973C63.6734 32.3583 64.6375 32.0876 66.2991 32.1709C66.5982 32.1861 66.9248 32.2126 67.2688 32.251L67.3491 32.2598L67.3656 32.3399C67.7528 34.2192 67.9055 36.1401 67.8213 38.0491C67.7426 39.8243 67.6954 40.8949 67.2168 42.2289C66.5895 43.9785 64.8493 45.5423 61.3837 48.6099C60.2503 49.6132 59.4475 50.293 58.6785 50.2546V50.253Z" fill="url(#paint4_linear_1522_4397)"/>
<path style="mix-blend-mode:multiply" opacity="0.68" d="M58.6785 50.253C58.5683 50.2474 58.4612 50.2034 58.3558 50.1689C57.7615 49.9735 57.2727 49.3017 56.9799 48.2992C56.6793 47.2703 56.9233 46.3534 57.0949 45.9018L57.1075 45.8666L57.135 45.8458C58.7658 44.6767 60.4101 43.4508 62.0205 42.2033C62.7816 41.6139 63.5679 41.0046 64.0063 39.9132C64.3416 39.0796 64.4258 38.202 64.2645 37.2307C64.0464 35.9191 63.7458 35.0848 63.5262 34.4754C63.2869 33.8116 63.1421 33.4105 63.3507 32.9973C63.6734 32.3583 64.6375 32.0876 66.2991 32.1709C66.5982 32.1861 66.9248 32.2126 67.2688 32.251L67.3491 32.2598L67.3656 32.3399C67.7528 34.2192 67.9055 36.1401 67.8213 38.0491C67.7426 39.8243 67.6954 40.8949 67.2168 42.2289C66.5895 43.9785 64.8493 45.5423 61.3837 48.6099C60.2503 49.6132 59.4475 50.293 58.6785 50.2546V50.253Z" fill="url(#paint5_radial_1522_4397)"/>
<path style="mix-blend-mode:multiply" opacity="0.68" d="M58.6785 50.253C58.5683 50.2474 58.4612 50.2034 58.3558 50.1689C57.7615 49.9735 57.2727 49.3017 56.9799 48.2992C56.6793 47.2703 56.9233 46.3534 57.0949 45.9018L57.1075 45.8666L57.135 45.8458C58.7658 44.6767 60.4101 43.4508 62.0205 42.2033C62.7816 41.6139 63.5679 41.0046 64.0063 39.9132C64.3416 39.0796 64.4258 38.202 64.2645 37.2307C64.0464 35.9191 63.7458 35.0848 63.5262 34.4754C63.2869 33.8116 63.1421 33.4105 63.3507 32.9973C63.6734 32.3583 64.6375 32.0876 66.2991 32.1709C66.5982 32.1861 66.9248 32.2126 67.2688 32.251L67.3491 32.2598L67.3656 32.3399C67.7528 34.2192 67.9055 36.1401 67.8213 38.0491C67.7426 39.8243 67.6954 40.8949 67.2168 42.2289C66.5895 43.9785 64.8493 45.5423 61.3837 48.6099C60.2503 49.6132 59.4475 50.293 58.6785 50.2546V50.253Z" fill="url(#paint6_radial_1522_4397)"/>
<path d="M60.5341 52.4548C61.9025 41.2143 53.5456 30.9093 41.8684 29.4381C30.1912 27.9668 19.6156 35.8864 18.2472 47.1269C16.8788 58.3675 25.2358 68.6724 36.913 70.1437C48.5902 71.6149 59.1657 63.6954 60.5341 52.4548Z" fill="url(#paint7_radial_1522_4397)"/>
<path style="mix-blend-mode:multiply" d="M60.5341 52.4548C61.9025 41.2143 53.5456 30.9093 41.8684 29.4381C30.1912 27.9668 19.6156 35.8864 18.2472 47.1269C16.8788 58.3675 25.2358 68.6724 36.913 70.1437C48.5902 71.6149 59.1657 63.6954 60.5341 52.4548Z" fill="url(#paint8_radial_1522_4397)"/>
<path style="mix-blend-mode:screen" opacity="0.46" d="M60.5341 52.4548C61.9025 41.2143 53.5456 30.9093 41.8684 29.4381C30.1912 27.9668 19.6156 35.8864 18.2472 47.1269C16.8788 58.3675 25.2358 68.6724 36.913 70.1437C48.5902 71.6149 59.1657 63.6954 60.5341 52.4548Z" fill="url(#paint9_linear_1522_4397)"/>
<path style="mix-blend-mode:screen" opacity="0.59" d="M60.5341 52.4548C61.9025 41.2143 53.5456 30.9093 41.8684 29.4381C30.1912 27.9668 19.6156 35.8864 18.2472 47.1269C16.8788 58.3675 25.2358 68.6724 36.913 70.1437C48.5902 71.6149 59.1657 63.6954 60.5341 52.4548Z" fill="url(#paint10_radial_1522_4397)"/>
<path style="mix-blend-mode:screen" opacity="0.33" d="M40.0754 41.9303C47.4174 43.3924 53.962 43.8056 59.2828 43.7832C58.9664 43.0393 54.2115 32.3816 42.7861 30.4094C35.9424 29.2283 29.2435 31.6009 24.9452 35.329C24.225 35.9536 23.6685 36.5325 23.2812 36.9633C27.8613 38.7842 33.5024 40.6211 40.0754 41.9303Z" fill="url(#paint11_linear_1522_4397)"/>
<path d="M54.8566 34.4363C54.8589 34.4732 54.9101 35.3059 54.3544 35.8376C53.979 36.1963 53.5075 36.2452 53.2336 36.27C52.537 36.3325 51.9939 36.0714 50.9376 35.5469C50.3458 35.2531 49.8948 34.9752 49.3257 34.6245C49.0415 34.45 48.6968 34.2362 48.2592 33.9295C47.6271 33.4867 47.2832 33.2457 46.9188 32.8797C46.308 32.268 45.8397 31.7987 45.8538 31.1846C45.8696 30.4943 46.489 29.8089 47.1612 29.5927C47.9955 29.3245 48.5724 29.8882 50.8117 31.2775C53.6389 33.0319 54.7787 33.4106 54.8558 34.4363H54.8566Z" fill="#894F34"/>
<path style="mix-blend-mode:multiply" opacity="0.47" d="M54.8566 34.4363C54.8589 34.4732 54.9101 35.3059 54.3544 35.8376C53.979 36.1963 53.5075 36.2452 53.2336 36.27C52.537 36.3325 51.9939 36.0714 50.9376 35.5469C50.3458 35.2531 49.8948 34.9752 49.3257 34.6245C49.0415 34.45 48.6968 34.2362 48.2592 33.9295C47.6271 33.4867 47.2832 33.2457 46.9188 32.8797C46.308 32.268 45.8397 31.7987 45.8538 31.1846C45.8696 30.4943 46.489 29.8089 47.1612 29.5927C47.9955 29.3245 48.5724 29.8882 50.8117 31.2775C53.6389 33.0319 54.7787 33.4106 54.8558 34.4363H54.8566Z" fill="url(#paint12_linear_1522_4397)"/>
<path d="M24.5371 32.83C24.5269 32.8669 24.3049 33.6852 24.7488 34.333C25.0487 34.7702 25.5084 34.9191 25.7768 35.0024C26.4584 35.213 27.0519 35.0689 28.2128 34.771C28.863 34.6044 29.3699 34.4235 30.0082 34.1953C30.327 34.0816 30.715 33.9422 31.2132 33.73C31.9334 33.4234 32.3262 33.2568 32.7646 32.9702C33.4989 32.4905 34.0617 32.1238 34.1743 31.5088C34.3002 30.8186 33.8248 30.0034 33.1998 29.6447C32.4238 29.1995 31.7327 29.6383 29.2164 30.5447C26.0389 31.6898 24.8252 31.8243 24.5371 32.8292V32.83Z" fill="#894F34"/>
<path style="mix-blend-mode:multiply" opacity="0.47" d="M24.5371 32.83C24.5269 32.8669 24.3049 33.6852 24.7488 34.333C25.0487 34.7702 25.5084 34.9191 25.7768 35.0024C26.4584 35.213 27.0519 35.0689 28.2128 34.771C28.863 34.6044 29.3699 34.4235 30.0082 34.1953C30.327 34.0816 30.715 33.9422 31.2132 33.73C31.9334 33.4234 32.3262 33.2568 32.7646 32.9702C33.4989 32.4905 34.0617 32.1238 34.1743 31.5088C34.3002 30.8186 33.8248 30.0034 33.1998 29.6447C32.4238 29.1995 31.7327 29.6383 29.2164 30.5447C26.0389 31.6898 24.8252 31.8243 24.5371 32.8292V32.83Z" fill="url(#paint13_linear_1522_4397)"/>
<path d="M55.2404 45.4039C53.1829 42.3731 51.083 40.7813 49.848 39.9918C49.3734 39.6883 48.9507 39.4553 48.6375 39.2919C46.0873 37.9635 43.8173 37.6536 42.2715 37.616C46.8949 36.2411 53.1042 40.0526 55.2404 45.4039Z" fill="url(#paint14_linear_1522_4397)"/>
<path d="M55.2652 45.4743C54.2341 43.9681 52.5781 41.947 50.1106 40.2879C49.9516 40.1806 49.6233 39.9644 49.2109 39.7234C47.8776 38.9459 45.5557 37.8561 42.3184 37.6327C43.1779 37.5118 46.0531 37.2332 49.4305 39.1981C49.9319 39.4896 50.3278 39.7651 50.5135 39.8988C53.0535 41.7204 54.5112 44.0394 55.2652 45.4735V45.4743Z" fill="url(#paint15_linear_1522_4397)"/>
<path style="mix-blend-mode:multiply" opacity="0.7" d="M42.3926 37.6616C43.0136 38.7009 44.8034 41.4458 48.0691 43.4284C51.3528 45.4223 54.1863 45.4639 55.2151 45.4247C54.5941 44.3365 53.049 41.9103 50.2682 40.0077C46.6562 37.5375 43.3725 37.6015 42.3926 37.6624V37.6616Z" fill="url(#paint16_linear_1522_4397)"/>
<path d="M38.966 37.8458C35.2321 37.2853 32.5457 37.7698 31.0762 38.1573C30.5111 38.3063 30.0365 38.4648 29.691 38.5897C26.8826 39.6026 25.0353 41.1176 23.9082 42.2723C26.1664 37.7754 33.4375 35.7143 38.966 37.8466V37.8458Z" fill="url(#paint17_linear_1522_4397)"/>
<path d="M39.0354 37.8771C37.1739 37.6048 34.482 37.4479 31.484 38.1661C31.2904 38.2126 30.8953 38.3103 30.4214 38.456C28.8905 38.9268 26.423 39.9341 23.9531 42.2482C24.4742 41.5068 26.3097 39.1166 30.1837 37.9187C30.7591 37.7409 31.2471 37.632 31.4785 37.584C34.6497 36.9258 37.4234 37.4431 39.0346 37.8763L39.0354 37.8771Z" fill="url(#paint18_linear_1522_4397)"/>
<path style="mix-blend-mode:multiply" opacity="0.7" d="M24.0293 42.2106C25.2493 42.4668 28.5795 43.0313 32.3858 41.9319C36.215 40.8261 38.2607 38.6921 38.9636 37.8794C37.7066 37.5887 34.7904 37.0619 31.387 37.8474C26.9675 38.8675 24.681 41.4202 24.0293 42.2114V42.2106Z" fill="url(#paint19_linear_1522_4397)"/>
<path d="M37.4143 66.6458C35.2781 66.6458 33.4111 65.789 32.1565 64.206C30.7988 62.4924 29.504 59.1437 31.0507 52.8844C32.3218 47.7374 36.2557 42.2612 41.042 42.2419L41.1703 42.2435C41.8236 42.2435 43.5599 42.2443 44.9924 43.6144C46.8633 45.404 47.8692 49.1939 47.6165 53.5042C47.3214 58.5432 45.4725 62.7935 42.6705 64.897C41.1774 66.0172 39.2616 66.6458 37.4135 66.6458H37.4143Z" fill="url(#paint20_radial_1522_4397)"/>
<mask id="mask0_1522_4397" style="mask-type:luminance" maskUnits="userSpaceOnUse" x="30" y="42" width="18" height="25">
<path d="M37.4143 66.6458C35.2781 66.6458 33.4111 65.789 32.1565 64.206C30.7988 62.4924 29.504 59.1437 31.0507 52.8844C32.3218 47.7374 36.2557 42.2612 41.042 42.2419L41.1703 42.2435C41.8236 42.2435 43.5599 42.2443 44.9924 43.6144C46.8633 45.404 47.8692 49.1939 47.6165 53.5042C47.3214 58.5432 45.4725 62.7935 42.6705 64.897C41.1774 66.0172 39.2616 66.6458 37.4135 66.6458H37.4143Z" fill="white"/>
</mask>
<g mask="url(#mask0_1522_4397)">
<path d="M34.9688 63.8719C34.9688 63.8719 37.6 62.6308 39.5173 62.4715C41.4166 62.3137 43.3859 62.8214 44.2761 63.8199C45.1458 64.796 44.9483 66.6705 44.9483 66.6705C44.9483 66.6705 44.8837 67.4696 44.199 67.7683C43.5158 68.067 42.4713 67.6978 41.5732 67.2718C40.6626 66.8402 39.1372 66.3614 37.1742 66.9203C36.395 66.0411 34.9688 63.8719 34.9688 63.8719Z" fill="url(#paint21_linear_1522_4397)"/>
<path style="mix-blend-mode:multiply" opacity="0.49" d="M34.9688 63.8719C34.9688 63.8719 37.6 62.6308 39.5173 62.4715C41.4166 62.3137 43.3859 62.8214 44.2761 63.8199C45.1458 64.796 44.9483 66.6705 44.9483 66.6705C44.9483 66.6705 44.8837 67.4696 44.199 67.7683C43.5158 68.067 42.4713 67.6978 41.5732 67.2718C40.6626 66.8402 39.1372 66.3614 37.1742 66.9203C36.395 66.0411 34.9688 63.8719 34.9688 63.8719Z" fill="url(#paint22_linear_1522_4397)"/>
<path style="mix-blend-mode:multiply" d="M34.9688 63.8719C34.9688 63.8719 37.6 62.6308 39.5173 62.4715C41.4166 62.3137 43.3859 62.8214 44.2761 63.8199C45.1458 64.796 44.9483 66.6705 44.9483 66.6705C44.9483 66.6705 44.8837 67.4696 44.199 67.7683C43.5158 68.067 42.4713 67.6978 41.5732 67.2718C40.6626 66.8402 39.1372 66.3614 37.1742 66.9203C36.395 66.0411 34.9688 63.8719 34.9688 63.8719Z" fill="url(#paint23_radial_1522_4397)"/>
<path style="mix-blend-mode:screen" opacity="0.34" d="M34.761 64.5463C34.7563 64.5335 34.7539 64.5263 34.7539 64.5263C34.7539 64.5263 36.7083 63.1642 38.6256 62.7855C40.5319 62.4091 42.0534 62.6013 43.1301 63.2843C43.3505 63.4244 43.5284 63.5902 43.6701 63.7704L34.7618 64.5463H34.761Z" fill="url(#paint24_linear_1522_4397)"/>
<path d="M29.4805 65.1946C29.4805 65.1946 31.4734 63.6452 33.4789 63.2248C35.4734 62.8068 37.0861 63.0422 38.2479 63.8357C39.386 64.6132 39.5261 66.0569 39.1932 66.764C36.7343 67.0715 35.5796 67.391 34.8201 67.837C34.0629 68.2822 31.582 68.7298 30.8382 67.7585C30.0779 66.7648 29.4805 65.1946 29.4805 65.1946Z" fill="url(#paint25_linear_1522_4397)"/>
<path style="mix-blend-mode:multiply" d="M29.4805 65.1946C29.4805 65.1946 31.4734 63.6452 33.4789 63.2248C35.4734 62.8068 37.0861 63.0422 38.2479 63.8357C39.386 64.6132 39.5261 66.0569 39.1932 66.764C36.7343 67.0715 35.5796 67.391 34.8201 67.837C34.0629 68.2822 31.582 68.7298 30.8382 67.7585C30.0779 66.7648 29.4805 65.1946 29.4805 65.1946Z" fill="url(#paint26_linear_1522_4397)"/>
<path style="mix-blend-mode:screen" opacity="0.34" d="M29.9454 65.1068C29.9406 65.0939 29.9375 65.0867 29.9375 65.0867C29.9375 65.0867 31.7423 63.7255 33.5542 63.3524C35.3566 62.9816 36.8167 63.1826 37.8722 63.8744C38.0886 64.0162 38.2649 64.1843 38.4074 64.3661L29.9454 65.106V65.1068Z" fill="url(#paint27_linear_1522_4397)"/>
</g>
<mask id="mask1_1522_4397" style="mask-type:luminance" maskUnits="userSpaceOnUse" x="30" y="42" width="18" height="25">
<path d="M37.4143 66.6458C35.2781 66.6458 33.4111 65.789 32.1565 64.206C30.7988 62.4924 29.504 59.1437 31.0507 52.8844C32.3218 47.7374 36.2557 42.2612 41.042 42.2419L41.1703 42.2435C41.8236 42.2435 43.5599 42.2443 44.9924 43.6144C46.8633 45.404 47.8692 49.1939 47.6165 53.5042C47.3214 58.5432 45.4725 62.7935 42.6705 64.897C41.1774 66.0172 39.2616 66.6458 37.4135 66.6458H37.4143Z" fill="white"/>
</mask>
<g mask="url(#mask1_1522_4397)">
<path d="M48.3072 42.1683C48.1647 43.0843 48.0325 43.8923 47.916 44.5809C47.646 46.176 47.5634 46.5267 47.2737 46.8414C47.2375 46.8806 47.2092 46.907 47.1832 46.931C46.6275 47.4507 45.9924 47.5188 45.3706 47.57C43.2383 47.7446 43.0486 46.5643 43.0242 46.051C42.9998 45.5306 43.1439 44.2398 43.188 43.6024C43.2328 42.9546 43.2871 42.515 43.3289 42.073C44.1718 42.0658 45.1785 42.2067 46.0876 42.1971C47.0006 42.1875 47.6429 42.3092 48.3064 42.1691L48.3072 42.1683Z" fill="url(#paint28_radial_1522_4397)"/>
<path d="M43.6298 41.9072C43.5518 42.9242 43.4779 43.7937 43.4117 44.5168C43.2646 46.1255 43.2079 46.4698 42.919 46.8021C42.8836 46.8429 42.8545 46.8709 42.8293 46.8966C42.2783 47.4427 41.5959 47.5772 40.9308 47.6949C38.6727 48.0929 38.2634 47.0399 38.1445 46.5619C38.0217 46.0694 37.9383 44.785 37.8643 44.1333C37.788 43.4558 37.7628 42.9842 37.7227 42.503C38.7081 42.3773 39.9171 42.3901 40.9891 42.2523C42.0721 42.113 42.8521 42.1563 43.6298 41.908V41.9072Z" fill="url(#paint29_radial_1522_4397)"/>
<path d="M32.5723 43.7335C32.6951 44.6479 32.81 45.451 32.9123 46.134C33.1484 47.7107 33.2263 48.0502 33.5333 48.304C33.5719 48.3353 33.6018 48.3561 33.6293 48.3737C34.2181 48.7725 34.9091 48.6892 35.5821 48.5931C37.8654 48.2656 38.1157 47.0317 38.1622 46.508C38.2094 45.9771 38.1087 44.7055 38.0882 44.0698C38.0669 43.4236 38.0268 42.9904 38 42.5508C37.0965 42.7237 36.0032 43.0849 35.0154 43.273C34.0158 43.4636 33.3019 43.7311 32.5731 43.7335H32.5723Z" fill="url(#paint30_radial_1522_4397)"/>
<path style="mix-blend-mode:multiply" d="M35.0142 43.2733C35.9068 43.1035 36.8851 42.7928 37.7313 42.6071C37.7281 42.5718 37.7258 42.5374 37.7226 42.5022C38.708 42.3765 39.917 42.3893 40.989 42.2515C42.0721 42.1122 42.8521 42.1555 43.6297 41.9072C43.625 41.9641 43.6211 42.0193 43.6163 42.0754C44.3956 42.0946 45.2802 42.2051 46.0878 42.1963C47.0008 42.1867 47.6431 42.3084 48.3066 42.1683C48.1641 43.0843 48.0319 43.8922 47.9154 44.5809C47.6455 46.1759 47.5628 46.5266 47.2732 46.8413C47.237 46.8806 47.2086 46.907 47.1826 46.931C46.627 47.4507 45.9918 47.5187 45.37 47.57C43.7659 47.7013 43.2614 47.0663 43.0992 46.5234C43.0504 46.6307 42.9914 46.7164 42.9182 46.8013C42.8828 46.8421 42.8537 46.8701 42.8285 46.8958C42.2775 47.4419 41.5951 47.5764 40.93 47.6941C38.7183 48.0833 38.2807 47.0823 38.1516 46.5915C38.0839 47.1528 37.7517 48.281 35.5801 48.5925C34.9072 48.6894 34.2161 48.7719 33.6274 48.3731C33.6006 48.3547 33.5699 48.3347 33.5313 48.3035C33.2244 48.0496 33.1465 47.7093 32.9103 46.1335C32.808 45.4505 32.6923 44.6473 32.5703 43.7329C33.2999 43.7305 34.013 43.463 35.0127 43.2725L35.0142 43.2733Z" fill="url(#paint31_linear_1522_4397)"/>
</g>
<path d="M45.4632 43.5696C43.8315 42.037 41.8945 42.0738 41.1657 42.0738H41.0397C35.8512 42.0738 31.7521 47.5868 30.3841 53.0278C28.769 59.452 30.1661 62.9464 31.6214 64.7513C33.009 66.4712 35.0665 67.4545 37.4136 67.4545C39.4049 67.4545 41.4695 66.7427 43.0775 65.556C46.0417 63.37 47.9945 58.9692 48.3014 53.8173C48.5651 49.3845 47.4773 45.4641 45.4616 43.5704L45.4632 43.5696ZM42.5809 64.7881C39.7158 66.9389 34.9343 67.4802 32.2747 64.1243C29.3459 60.4289 30.8469 54.3514 31.198 52.9309C32.4691 47.783 36.3306 42.4197 41.0429 42.4013C41.8308 42.3981 43.4899 42.3917 44.8886 43.7297C48.9445 47.6093 48.3605 60.4514 42.5809 64.7889V64.7881Z" fill="url(#paint32_linear_1522_4397)"/>
<path d="M13.5799 11.5554C13.6728 11.5778 13.8097 11.6195 13.9601 11.7004C14.548 12.0174 14.781 12.638 15.025 13.3154C15.1525 13.6701 15.3036 14.1818 15.3847 14.8256C15.5091 15.6936 15.6562 16.6048 15.8569 17.5481C16.0828 18.6106 16.3851 19.8438 16.7865 21.2939C16.6007 21.39 16.1867 21.5709 15.6531 21.5189C14.7763 21.434 14.2694 20.7886 14.1773 20.6669C13.8577 18.947 13.6106 16.9732 13.5437 14.7872C13.5083 13.6453 13.5264 12.5651 13.5799 11.5554Z" fill="url(#paint33_linear_1522_4397)"/>
<path d="M10.415 15.1026C10.4686 15.1146 10.5481 15.137 10.6394 15.1755C11.6878 15.6231 12.0199 18.2487 12.0199 18.2487C12.2135 19.7837 12.6181 21.8167 13.4225 24.7162C13.2368 24.8123 12.8228 24.9932 12.2891 24.9412C11.4123 24.8563 10.9054 24.2109 10.8133 24.0892C10.4481 22.5013 10.1506 20.5083 10.1797 18.2094C10.1939 17.078 10.2852 16.0371 10.4158 15.1018L10.415 15.1026Z" fill="url(#paint34_linear_1522_4397)"/>
<path d="M3.90902 18.5618C4.29863 18.1438 4.90075 18.0733 5.33838 18.0789C6.2577 18.7259 7.41 19.6724 8.54184 21.0048C9.38402 21.9969 10.0137 22.9658 10.4812 23.8073C13.166 22.2387 15.8508 20.6701 18.5355 19.1014C19.7295 18.9781 20.9243 18.8548 22.1184 18.7323C21.5296 21.1417 21.0432 24.2557 21.166 27.8742C21.2195 29.4469 21.3801 30.893 21.5957 32.1926C20.4112 33.6611 19.3037 34.1279 18.5347 34.2913C17.0204 34.614 16.4718 33.8349 14.3702 33.9886C12.349 34.1367 12.0751 34.9151 10.9653 34.5988C9.87517 34.2881 9.48398 33.3512 8.00819 31.0772C7.37852 30.1067 6.40646 28.6694 5.0873 26.9582C4.94641 26.336 4.80552 25.7131 4.66384 25.0909C4.64101 24.6281 4.58277 23.8562 4.41355 22.9137C4.02157 20.7397 3.3313 19.1815 3.90902 18.5618Z" fill="url(#paint35_linear_1522_4397)"/>
<path style="mix-blend-mode:multiply" opacity="0.68" d="M3.90902 18.5618C4.29863 18.1438 4.90075 18.0733 5.33838 18.0789C6.2577 18.7259 7.41 19.6724 8.54184 21.0048C9.38402 21.9969 10.0137 22.9658 10.4812 23.8073C13.166 22.2387 15.8508 20.6701 18.5355 19.1014C19.7295 18.9781 20.9243 18.8548 22.1184 18.7323C21.5296 21.1417 21.0432 24.2557 21.166 27.8742C21.2195 29.4469 21.3801 30.893 21.5957 32.1926C20.4112 33.6611 19.3037 34.1279 18.5347 34.2913C17.0204 34.614 16.4718 33.8349 14.3702 33.9886C12.349 34.1367 12.0751 34.9151 10.9653 34.5988C9.87517 34.2881 9.48398 33.3512 8.00819 31.0772C7.37852 30.1067 6.40646 28.6694 5.0873 26.9582C4.94641 26.336 4.80552 25.7131 4.66384 25.0909C4.64101 24.6281 4.58277 23.8562 4.41355 22.9137C4.02157 20.7397 3.3313 19.1815 3.90902 18.5618Z" fill="url(#paint36_radial_1522_4397)"/>
<path d="M10.327 13.7174C9.91854 13.4163 9.38883 13.4876 8.77805 13.5693C8.39552 13.6205 7.59269 13.7414 6.97404 14.3772C6.86857 14.4861 6.64188 14.7231 6.49785 15.1018C6.33807 15.5222 6.36404 15.8938 6.37742 16.0683C6.54979 18.2215 7.33452 21.5613 7.59111 22.6952C7.79261 23.584 7.97836 24.4784 8.70564 24.8988C9.05825 25.103 9.40221 25.1222 9.61787 25.1334C10.4939 25.1798 11.6092 24.7715 11.9996 23.9235C12.1405 23.6184 12.1429 23.3526 11.9429 22.0474C11.7588 20.8463 11.5919 19.9935 11.5116 19.5651C11.2283 18.0565 11.0504 17.1133 10.9103 15.8834C10.7631 14.5966 10.7773 14.0481 10.327 13.7166V13.7174Z" fill="url(#paint37_linear_1522_4397)"/>
<path style="mix-blend-mode:multiply" opacity="0.68" d="M10.327 13.7174C9.91854 13.4163 9.38883 13.4876 8.77805 13.5693C8.39552 13.6205 7.59269 13.7414 6.97404 14.3772C6.86857 14.4861 6.64188 14.7231 6.49785 15.1018C6.33807 15.5222 6.36404 15.8938 6.37742 16.0683C6.54979 18.2215 7.33452 21.5613 7.59111 22.6952C7.79261 23.584 7.97836 24.4784 8.70564 24.8988C9.05825 25.103 9.40221 25.1222 9.61787 25.1334C10.4939 25.1798 11.6092 24.7715 11.9996 23.9235C12.1405 23.6184 12.1429 23.3526 11.9429 22.0474C11.7588 20.8463 11.5919 19.9935 11.5116 19.5651C11.2283 18.0565 11.0504 17.1133 10.9103 15.8834C10.7631 14.5966 10.7773 14.0481 10.327 13.7166V13.7174Z" fill="url(#paint38_radial_1522_4397)"/>
<path d="M5.31544 18.0653C5.35873 18.0934 5.49332 18.1871 5.61217 18.3592C6.05609 18.9998 5.59171 19.7213 5.57833 20.7878C5.57439 21.1073 5.60588 21.9064 6.02697 22.6455C6.62122 23.6897 7.42878 23.628 7.87191 24.705C7.96557 24.9332 8.15526 25.4032 8.03562 25.9541C7.82232 26.935 6.74873 27.7181 5.87978 27.5916C5.54055 27.542 5.32252 27.3674 4.74086 26.7989C3.47207 25.5602 2.83768 24.9404 2.56456 24.4608C2.34496 24.0756 1.64681 22.8129 1.75071 21.1369C1.79006 20.5044 1.84201 19.7517 2.37251 19.0663C3.09348 18.1358 4.53307 17.5489 5.31623 18.0645L5.31544 18.0653Z" fill="url(#paint39_linear_1522_4397)"/>
<path style="mix-blend-mode:multiply" opacity="0.68" d="M5.31544 18.0653C5.35873 18.0934 5.49332 18.1871 5.61217 18.3592C6.05609 18.9998 5.59171 19.7213 5.57833 20.7878C5.57439 21.1073 5.60588 21.9064 6.02697 22.6455C6.62122 23.6897 7.42878 23.628 7.87191 24.705C7.96557 24.9332 8.15526 25.4032 8.03562 25.9541C7.82232 26.935 6.74873 27.7181 5.87978 27.5916C5.54055 27.542 5.32252 27.3674 4.74086 26.7989C3.47207 25.5602 2.83768 24.9404 2.56456 24.4608C2.34496 24.0756 1.64681 22.8129 1.75071 21.1369C1.79006 20.5044 1.84201 19.7517 2.37251 19.0663C3.09348 18.1358 4.53307 17.5489 5.31623 18.0645L5.31544 18.0653Z" fill="url(#paint40_radial_1522_4397)"/>
<path style="mix-blend-mode:screen" opacity="0.34" d="M11.3488 14.7142C11.1646 14.4388 10.6617 13.7694 9.91631 13.6501C9.59753 13.5988 9.1788 13.6405 9.07963 13.6501C8.73803 13.6837 8.46334 13.7526 8.28703 13.8046C7.97691 13.8967 7.74787 13.9648 7.50072 14.1273C7.36377 14.217 6.80808 14.5829 6.68923 15.2427C6.64358 15.4965 6.63886 15.9265 6.80966 16.1323C6.99777 16.3597 7.71166 16.6928 11.348 14.7134L11.3488 14.7142Z" fill="url(#paint41_linear_1522_4397)"/>
<path style="mix-blend-mode:screen" opacity="0.34" d="M6.17807 19.1247C5.74045 18.4625 5.18791 18.0325 4.73927 17.9965C4.51574 17.9789 4.26387 18.0157 4.26387 18.0157C4.19618 18.0261 3.94116 18.0669 3.61373 18.2159C3.41617 18.3056 3.01475 18.4929 2.64797 18.9157C2.28118 19.3377 2.14738 19.7653 2.08363 19.9767C1.94746 20.4307 1.94195 20.8238 1.9569 21.0729C3.36422 20.4235 4.77075 19.7749 6.17807 19.1255V19.1247Z" fill="url(#paint42_linear_1522_4397)"/>
<path d="M13.9481 11.7364C14.4156 12.0847 14.4125 12.5955 14.5597 14.3059C14.7407 16.411 15.3279 18.1454 15.4853 18.609C15.6128 18.9854 15.8387 19.8566 16.2921 21.5989C16.3873 21.9657 16.4873 22.3708 16.3228 22.804C16.0481 23.5287 15.2326 23.8058 14.906 23.9227C14.7273 23.9867 13.4932 24.4279 12.5841 23.8146C12.0064 23.4246 11.9009 22.8393 11.5042 21.2498C11.1831 19.9639 10.8068 18.6931 10.4723 17.4103C9.71907 14.5229 9.38141 13.7062 9.88672 12.9126C10.1535 12.4938 10.566 12.2224 10.7399 12.1175C10.7659 12.1015 10.7856 12.0903 10.8029 12.0807C11.1059 11.9077 11.8962 11.4569 12.8068 11.4705C13.2004 11.4761 13.6089 11.4825 13.9489 11.7364H13.9481Z" fill="url(#paint43_linear_1522_4397)"/>
<path style="mix-blend-mode:multiply" opacity="0.68" d="M13.9481 11.7364C14.4156 12.0847 14.4125 12.5955 14.5597 14.3059C14.7407 16.411 15.3279 18.1454 15.4853 18.609C15.6128 18.9854 15.8387 19.8566 16.2921 21.5989C16.3873 21.9657 16.4873 22.3708 16.3228 22.804C16.0481 23.5287 15.2326 23.8058 14.906 23.9227C14.7273 23.9867 13.4932 24.4279 12.5841 23.8146C12.0064 23.4246 11.9009 22.8393 11.5042 21.2498C11.1831 19.9639 10.8068 18.6931 10.4723 17.4103C9.71907 14.5229 9.38141 13.7062 9.88672 12.9126C10.1535 12.4938 10.566 12.2224 10.7399 12.1175C10.7659 12.1015 10.7856 12.0903 10.8029 12.0807C11.1059 11.9077 11.8962 11.4569 12.8068 11.4705C13.2004 11.4761 13.6089 11.4825 13.9489 11.7364H13.9481Z" fill="url(#paint44_radial_1522_4397)"/>
<path d="M16.0801 20.743C16.4075 19.4226 16.9317 17.456 17.6669 15.2516C17.9502 14.4029 18.3744 13.1882 19.4543 12.6853C19.6346 12.6012 19.7936 12.5556 19.8983 12.5308C20.0541 13.8127 20.121 15.5799 19.7385 17.6186C19.5173 18.8005 19.1922 19.8198 18.8617 20.655C17.9345 20.6838 17.0073 20.7134 16.0801 20.743Z" fill="url(#paint45_linear_1522_4397)"/>
<path d="M19.7987 12.5634C19.1541 12.8172 18.9353 13.3761 17.646 17.7273C17.646 17.7273 17.243 19.0877 16.755 21.4675C16.4331 23.0353 16.4063 23.4837 16.6543 23.9017C17.2178 24.8538 18.951 25.2205 20.0388 24.6064C21.0305 24.0459 20.7235 23.101 21.7594 19.8372C22.6669 16.9754 23.4681 15.9225 22.9652 14.3795C22.8668 14.0776 22.6189 13.3505 21.9223 12.8813C21.3493 12.4953 20.489 12.2928 19.7995 12.5642L19.7987 12.5634Z" fill="url(#paint46_linear_1522_4397)"/>
<path style="mix-blend-mode:multiply" opacity="0.68" d="M19.7987 12.5634C19.1541 12.8172 18.9353 13.3761 17.646 17.7273C17.646 17.7273 17.243 19.0877 16.755 21.4675C16.4331 23.0353 16.4063 23.4837 16.6543 23.9017C17.2178 24.8538 18.951 25.2205 20.0388 24.6064C21.0305 24.0459 20.7235 23.101 21.7594 19.8372C22.6669 16.9754 23.4681 15.9225 22.9652 14.3795C22.8668 14.0776 22.6189 13.3505 21.9223 12.8813C21.3493 12.4953 20.489 12.2928 19.7995 12.5642L19.7987 12.5634Z" fill="url(#paint47_radial_1522_4397)"/>
<path d="M19.0229 31.311C18.9276 31.2437 17.5959 30.3373 16.0555 30.9731C14.4963 31.6169 14.172 33.2415 14.1523 33.3504C14.7246 33.7124 15.9634 34.3802 17.6273 34.3834C18.2153 34.3842 19.9036 34.3866 21.259 33.2039C21.5085 32.9861 21.6927 32.7755 21.817 32.6186C20.8859 32.1822 19.9548 31.7466 19.0236 31.3102L19.0229 31.311Z" fill="url(#paint48_linear_1522_4397)"/>
<path d="M20.4101 33.5612C20.6053 33.4947 21.7836 33.0711 22.2495 31.8652C22.7501 30.5704 22.0409 29.3758 21.8513 29.0515C21.5986 28.6183 20.9492 28.1402 19.6608 27.2018C18.3353 26.2361 17.6812 25.8589 16.9327 25.5427C16.1244 25.2015 15.7104 25.0334 15.2232 25.1791C14.3723 25.4338 13.7497 26.4891 13.7867 27.4212C13.8245 28.3676 14.536 29.0154 15.6797 30.0572C15.7623 30.1324 16.2574 30.5176 17.2468 31.2879C18.3188 32.1223 18.7163 32.4185 19.1555 32.726C19.6773 33.0919 20.1157 33.3762 20.4093 33.5612H20.4101Z" fill="url(#paint49_linear_1522_4397)"/>
<path style="mix-blend-mode:screen" opacity="0.34" d="M14.62 12.7806C14.4776 12.5844 13.9345 11.8894 13.001 11.7292C12.2548 11.6019 11.6858 11.8894 11.0962 12.1872C10.6287 12.4234 10.2454 12.6244 10.0565 13.064C9.90142 13.4268 9.87545 13.9576 10.0817 14.1987C10.3847 14.5534 11.4016 14.535 14.62 12.7798V12.7806Z" fill="url(#paint50_linear_1522_4397)"/>
<path style="mix-blend-mode:screen" opacity="0.34" d="M9.6351 29.72C9.4769 29.9033 8.922 30.5888 8.96529 31.5512C8.99992 32.3199 9.39504 32.8252 9.80512 33.3497C10.1302 33.7653 10.4041 34.104 10.8661 34.1993C11.2471 34.2777 11.7626 34.1912 11.9515 33.9358C12.2286 33.5603 11.9972 32.5522 9.6351 29.72Z" fill="url(#paint51_linear_1522_4397)"/>
<path style="mix-blend-mode:screen" opacity="0.34" d="M22.8789 14.9593C22.8057 14.623 22.6246 14.0336 22.1374 13.5084C21.9596 13.3162 21.6786 13.0199 21.2055 12.851C20.5932 12.6308 20.043 12.7621 19.7793 12.851C19.0969 13.0816 18.7325 13.5732 18.6191 13.7406C20.0391 14.1465 21.459 14.5533 22.8781 14.9593H22.8789Z" fill="url(#paint52_linear_1522_4397)"/>
<path style="mix-blend-mode:screen" opacity="0.34" d="M19.569 27.4947C18.4363 26.7628 17.4517 26.2183 16.6977 25.8308C16.031 25.4881 15.6626 25.3279 15.2526 25.444C14.4466 25.6722 13.8366 26.8709 14.1121 27.4554C14.3813 28.0288 15.6461 28.3266 19.569 27.4939V27.4947Z" fill="url(#paint53_linear_1522_4397)"/>
<path d="M66.4215 11.7876C66.3286 11.81 66.1916 11.8517 66.0413 11.9325C65.4533 12.2496 65.2204 12.8702 64.9764 13.5476C64.8488 13.9023 64.6977 14.414 64.6167 15.0578C64.4923 15.9258 64.3451 16.837 64.1444 17.7803C63.9185 18.8428 63.6163 20.0759 63.2148 21.5261C63.4006 21.6222 63.8146 21.8031 64.3483 21.7511C65.2251 21.6662 65.732 21.0208 65.8241 20.8991C66.1436 19.1791 66.3908 17.2053 66.4577 15.0193C66.4931 13.8775 66.475 12.7973 66.4215 11.7876Z" fill="url(#paint54_linear_1522_4397)"/>
<path d="M69.5856 15.3348C69.5321 15.3468 69.4526 15.3692 69.3613 15.4077C68.3129 15.8553 67.9807 18.4809 67.9807 18.4809C67.7871 20.0159 67.3825 22.0489 66.5781 24.9483C66.7639 25.0444 67.1779 25.2254 67.7115 25.1733C68.5884 25.0885 69.0952 24.4431 69.1873 24.3214C69.5525 22.7335 69.8501 20.7405 69.8209 18.4416C69.8068 17.3102 69.7155 16.2692 69.5848 15.334L69.5856 15.3348Z" fill="url(#paint55_linear_1522_4397)"/>
<path d="M76.0941 18.7939C75.7045 18.3759 75.1024 18.3055 74.6647 18.3111C73.7454 18.9581 72.5931 19.9045 71.4613 21.237C70.6191 22.2291 69.9894 23.1979 69.5219 24.0395C66.8371 22.4709 64.1524 20.9022 61.4676 19.3336C60.2736 19.2103 59.0788 19.087 57.8848 18.9645C58.4735 21.3739 58.9599 24.4879 58.8371 28.1064C58.7836 29.679 58.6231 31.1252 58.4074 32.4247C59.592 33.8933 60.6994 34.3601 61.4684 34.5235C62.9827 34.8462 63.5314 34.067 65.6329 34.2208C67.6541 34.3689 67.928 35.1472 69.0378 34.8309C70.128 34.5203 70.5191 33.5834 71.9949 31.3093C72.6246 30.3388 73.5967 28.9015 74.9158 27.1904C75.0567 26.5682 75.1976 25.9452 75.3393 25.3231C75.3621 24.8603 75.4204 24.0884 75.5896 23.1459C75.9815 20.9719 76.6718 19.4137 76.0941 18.7939Z" fill="url(#paint56_linear_1522_4397)"/>
<path style="mix-blend-mode:multiply" opacity="0.68" d="M76.0941 18.7939C75.7045 18.3759 75.1024 18.3055 74.6647 18.3111C73.7454 18.9581 72.5931 19.9045 71.4613 21.237C70.6191 22.2291 69.9894 23.1979 69.5219 24.0395C66.8371 22.4709 64.1524 20.9022 61.4676 19.3336C60.2736 19.2103 59.0788 19.087 57.8848 18.9645C58.4735 21.3739 58.9599 24.4879 58.8371 28.1064C58.7836 29.679 58.6231 31.1252 58.4074 32.4247C59.592 33.8933 60.6994 34.3601 61.4684 34.5235C62.9827 34.8462 63.5314 34.067 65.6329 34.2208C67.6541 34.3689 67.928 35.1472 69.0378 34.8309C70.128 34.5203 70.5191 33.5834 71.9949 31.3093C72.6246 30.3388 73.5967 28.9015 74.9158 27.1904C75.0567 26.5682 75.1976 25.9452 75.3393 25.3231C75.3621 24.8603 75.4204 24.0884 75.5896 23.1459C75.9815 20.9719 76.6718 19.4137 76.0941 18.7939Z" fill="url(#paint57_radial_1522_4397)"/>
<path d="M69.6752 13.9488C70.0837 13.6478 70.6134 13.719 71.2242 13.8007C71.6067 13.8519 72.4095 13.9729 73.0282 14.6086C73.1337 14.7175 73.3604 14.9545 73.5044 15.3333C73.6642 15.7537 73.6382 16.1252 73.6248 16.2998C73.4524 18.4529 72.6677 21.7928 72.4111 22.9266C72.2096 23.8154 72.0239 24.7098 71.2966 25.1302C70.944 25.3344 70.6 25.3536 70.3844 25.3648C69.5083 25.4113 68.393 25.0029 68.0026 24.1549C67.8617 23.8499 67.8594 23.584 68.0593 22.2788C68.2435 21.0777 68.4103 20.2249 68.4906 19.7966C68.774 18.288 68.9519 17.3447 69.092 16.1148C69.2391 14.828 69.225 14.2795 69.6752 13.948V13.9488Z" fill="url(#paint58_linear_1522_4397)"/>
<path style="mix-blend-mode:multiply" opacity="0.68" d="M69.6752 13.9488C70.0837 13.6478 70.6134 13.719 71.2242 13.8007C71.6067 13.8519 72.4095 13.9729 73.0282 14.6086C73.1337 14.7175 73.3604 14.9545 73.5044 15.3333C73.6642 15.7537 73.6382 16.1252 73.6248 16.2998C73.4524 18.4529 72.6677 21.7928 72.4111 22.9266C72.2096 23.8154 72.0239 24.7098 71.2966 25.1302C70.944 25.3344 70.6 25.3536 70.3844 25.3648C69.5083 25.4113 68.393 25.0029 68.0026 24.1549C67.8617 23.8499 67.8594 23.584 68.0593 22.2788C68.2435 21.0777 68.4103 20.2249 68.4906 19.7966C68.774 18.288 68.9519 17.3447 69.092 16.1148C69.2391 14.828 69.225 14.2795 69.6752 13.948V13.9488Z" fill="url(#paint59_radial_1522_4397)"/>
<path d="M74.6863 18.2975C74.643 18.3255 74.5084 18.4192 74.3896 18.5913C73.9457 19.2319 74.41 19.9534 74.4234 21.0199C74.4274 21.3394 74.3959 22.1386 73.9748 22.8776C73.3805 23.9218 72.573 23.8601 72.1298 24.9371C72.0362 25.1653 71.8465 25.6353 71.9661 26.1862C72.1794 27.1671 73.253 27.9503 74.122 27.8237C74.4612 27.7741 74.6792 27.5995 75.2609 27.031C76.5297 25.7923 77.1641 25.1725 77.4372 24.6929C77.6568 24.3077 78.3549 23.045 78.2511 21.3691C78.2117 20.7365 78.1597 19.9838 77.6292 19.2992C76.9083 18.3687 75.4687 17.7818 74.6855 18.2975H74.6863Z" fill="url(#paint60_linear_1522_4397)"/>
<path style="mix-blend-mode:multiply" opacity="0.68" d="M74.6863 18.2975C74.643 18.3255 74.5084 18.4192 74.3896 18.5913C73.9457 19.2319 74.41 19.9534 74.4234 21.0199C74.4274 21.3394 74.3959 22.1386 73.9748 22.8776C73.3805 23.9218 72.573 23.8601 72.1298 24.9371C72.0362 25.1653 71.8465 25.6353 71.9661 26.1862C72.1794 27.1671 73.253 27.9503 74.122 27.8237C74.4612 27.7741 74.6792 27.5995 75.2609 27.031C76.5297 25.7923 77.1641 25.1725 77.4372 24.6929C77.6568 24.3077 78.3549 23.045 78.2511 21.3691C78.2117 20.7365 78.1597 19.9838 77.6292 19.2992C76.9083 18.3687 75.4687 17.7818 74.6855 18.2975H74.6863Z" fill="url(#paint61_radial_1522_4397)"/>
<path style="mix-blend-mode:screen" opacity="0.34" d="M68.6523 14.9464C68.8365 14.671 69.3395 14.0016 70.0848 13.8822C70.4036 13.831 70.8224 13.8726 70.9215 13.8822C71.2631 13.9159 71.5378 13.9847 71.7141 14.0368C72.0242 14.1289 72.2533 14.1969 72.5004 14.3595C72.6374 14.4492 73.1931 14.8151 73.3119 15.4749C73.3576 15.7287 73.3623 16.1587 73.1915 16.3645C73.0034 16.5919 72.2895 16.925 68.6531 14.9456L68.6523 14.9464Z" fill="url(#paint62_linear_1522_4397)"/>
<path style="mix-blend-mode:screen" opacity="0.34" d="M73.8242 19.3569C74.2618 18.6947 74.8144 18.2647 75.263 18.2286C75.4866 18.211 75.7384 18.2479 75.7384 18.2479C75.8061 18.2583 76.0611 18.2991 76.3886 18.448C76.5861 18.5377 76.9875 18.7251 77.3543 19.1479C77.7211 19.5699 77.8549 19.9975 77.9187 20.2089C78.0548 20.6629 78.0603 21.056 78.0454 21.3051C76.6381 20.6557 75.2315 20.0071 73.8242 19.3577V19.3569Z" fill="url(#paint63_linear_1522_4397)"/>
<path d="M66.0523 11.9685C65.5847 12.3169 65.5879 12.8277 65.4407 14.5381C65.2597 16.6432 64.6725 18.3776 64.5151 18.8412C64.3876 19.2175 64.1617 20.0887 63.7083 21.8311C63.6131 22.1979 63.5131 22.603 63.6776 23.0362C63.9523 23.7609 64.7677 24.0379 65.0944 24.1548C65.273 24.2189 66.5072 24.6601 67.4163 24.0467C67.994 23.6568 68.0995 23.0715 68.4962 21.482C68.8173 20.196 69.1935 18.9253 69.5281 17.6425C70.2813 14.7551 70.619 13.9383 70.1136 13.1448C69.8468 12.726 69.4344 12.4546 69.2604 12.3497C69.2345 12.3337 69.2148 12.3225 69.1975 12.3129C68.8944 12.1399 68.1042 11.6891 67.1935 11.7027C66.8 11.7083 66.3915 11.7147 66.0515 11.9685H66.0523Z" fill="url(#paint64_linear_1522_4397)"/>
<path style="mix-blend-mode:multiply" opacity="0.68" d="M66.0523 11.9685C65.5847 12.3169 65.5879 12.8277 65.4407 14.5381C65.2597 16.6432 64.6725 18.3776 64.5151 18.8412C64.3876 19.2175 64.1617 20.0887 63.7083 21.8311C63.6131 22.1979 63.5131 22.603 63.6776 23.0362C63.9523 23.7609 64.7677 24.0379 65.0944 24.1548C65.273 24.2189 66.5072 24.6601 67.4163 24.0467C67.994 23.6568 68.0995 23.0715 68.4962 21.482C68.8173 20.196 69.1935 18.9253 69.5281 17.6425C70.2813 14.7551 70.619 13.9383 70.1136 13.1448C69.8468 12.726 69.4344 12.4546 69.2604 12.3497C69.2345 12.3337 69.2148 12.3225 69.1975 12.3129C68.8944 12.1399 68.1042 11.6891 67.1935 11.7027C66.8 11.7083 66.3915 11.7147 66.0515 11.9685H66.0523Z" fill="url(#paint65_radial_1522_4397)"/>
<path d="M63.9222 20.9752C63.5947 19.6548 63.0705 17.6882 62.3354 15.4838C62.052 14.635 61.6278 13.4203 60.5479 12.9175C60.3677 12.8334 60.2087 12.7878 60.104 12.7629C59.9482 14.0449 59.8813 15.8121 60.2638 17.8508C60.485 19.0327 60.81 20.052 61.1406 20.8871C62.0678 20.916 62.995 20.9456 63.9222 20.9752Z" fill="url(#paint66_linear_1522_4397)"/>
<path d="M60.2028 12.7956C60.8474 13.0494 61.0662 13.6083 62.3555 17.9595C62.3555 17.9595 62.7585 19.3199 63.2465 21.6997C63.5684 23.2675 63.5951 23.7159 63.3472 24.1339C62.7836 25.086 61.0505 25.4527 59.9627 24.8385C58.971 24.278 59.2779 23.3332 58.2421 20.0694C57.3346 17.2076 56.5334 16.1546 57.0363 14.6116C57.1347 14.3098 57.3826 13.5827 58.0792 13.1135C58.6522 12.7275 59.5125 12.5249 60.202 12.7964L60.2028 12.7956Z" fill="url(#paint67_linear_1522_4397)"/>
<path style="mix-blend-mode:multiply" opacity="0.68" d="M60.2028 12.7956C60.8474 13.0494 61.0662 13.6083 62.3555 17.9595C62.3555 17.9595 62.7585 19.3199 63.2465 21.6997C63.5684 23.2675 63.5951 23.7159 63.3472 24.1339C62.7836 25.086 61.0505 25.4527 59.9627 24.8385C58.971 24.278 59.2779 23.3332 58.2421 20.0694C57.3346 17.2076 56.5334 16.1546 57.0363 14.6116C57.1347 14.3098 57.3826 13.5827 58.0792 13.1135C58.6522 12.7275 59.5125 12.5249 60.202 12.7964L60.2028 12.7956Z" fill="url(#paint68_radial_1522_4397)"/>
<path d="M60.9797 31.5432C61.075 31.4759 62.4067 30.5695 63.9471 31.2053C65.5063 31.849 65.8306 33.4737 65.8502 33.5826C65.278 33.9445 64.0391 34.6124 62.3752 34.6156C61.7873 34.6164 60.099 34.6188 58.7436 33.4361C58.4941 33.2183 58.3099 33.0077 58.1855 32.8507C59.1167 32.4144 60.0478 31.9788 60.9789 31.5424L60.9797 31.5432Z" fill="url(#paint69_linear_1522_4397)"/>
<path d="M59.5912 33.7933C59.396 33.7269 58.2178 33.3033 57.7518 32.0974C57.2512 30.8026 57.9604 29.6079 58.1501 29.2836C58.4027 28.8504 59.0521 28.3724 60.3406 27.4339C61.666 26.4683 62.3201 26.0911 63.0686 25.7748C63.877 25.4337 64.291 25.2656 64.7782 25.4113C65.629 25.6659 66.2516 26.7213 66.2146 27.6533C66.1768 28.5998 65.4653 29.2476 64.3217 30.2894C64.239 30.3646 63.7439 30.7498 62.7546 31.5201C61.6825 32.3544 61.2851 32.6507 60.8459 32.9582C60.324 33.3241 59.8856 33.6084 59.592 33.7933H59.5912Z" fill="url(#paint70_linear_1522_4397)"/>
<path style="mix-blend-mode:screen" opacity="0.34" d="M65.3828 13.0118C65.5253 12.8156 66.0684 12.1206 67.0019 11.9604C67.748 11.8331 68.3171 12.1206 68.9066 12.4184C69.3742 12.6546 69.7575 12.8556 69.9464 13.2952C70.1014 13.658 70.1274 14.1888 69.9212 14.4299C69.6181 14.7846 68.6012 14.7662 65.3828 13.011V13.0118Z" fill="url(#paint71_linear_1522_4397)"/>
<path style="mix-blend-mode:screen" opacity="0.34" d="M57.123 15.1915C57.1962 14.8552 57.3773 14.2658 57.8645 13.7405C58.0424 13.5484 58.3234 13.2521 58.7964 13.0831C59.4088 12.8629 59.9589 12.9943 60.2226 13.0831C60.905 13.3138 61.2694 13.8054 61.3828 13.9728C59.9629 14.3787 58.543 14.7855 57.1238 15.1915H57.123Z" fill="url(#paint72_linear_1522_4397)"/>
<path style="mix-blend-mode:screen" opacity="0.34" d="M71.2516 31.5952C70.9808 32.3047 70.7014 32.8668 70.4834 33.2663C70.1363 33.9029 69.9757 34.0759 69.8214 34.2032C69.3161 34.6188 68.7549 34.682 68.4771 34.6876C67.7585 34.702 67.2532 34.3625 67.0918 34.2432C67.3468 33.786 68.0473 32.677 69.4263 32.0404C70.1418 31.7097 70.8006 31.6176 71.2516 31.5952Z" fill="url(#paint73_linear_1522_4397)"/>
<path style="mix-blend-mode:screen" opacity="0.34" d="M60.4316 27.7261C61.5643 26.9943 62.5489 26.4498 63.3029 26.0622C63.9696 25.7195 64.338 25.5594 64.748 25.6755C65.554 25.9037 66.164 27.1024 65.8885 27.6869C65.6194 28.2602 64.3545 28.5581 60.4316 27.7253V27.7261Z" fill="url(#paint74_linear_1522_4397)"/>
<path d="M35.9687 22.6541C35.6287 20.6883 33.905 19.6274 33.306 19.259C32.9518 19.0412 32.6362 18.8963 32.4166 18.8066C32.8542 18.4943 33.6382 17.8441 34.1576 16.7551C34.3875 16.2731 35.0998 14.7789 34.4607 13.2247C33.7145 11.4103 31.6972 10.9026 31.3092 10.8049C29.2997 10.2989 27.2013 11.0988 25.9743 12.396C25.0919 13.3288 24.8534 14.4883 24.3772 16.8072C24.0136 18.5752 23.9987 19.8436 23.9695 22.3803C23.9656 22.743 23.9585 24.2155 24.4379 25.9747C24.6567 26.7763 24.8322 27.1102 25.1045 27.3904C25.3107 27.6026 25.8074 28.0254 27.8475 28.2184C29.1769 28.3441 29.9971 28.421 31.1187 28.2008C32.1813 27.9918 33.5248 27.7275 34.6165 26.5945C34.8385 26.3647 36.3332 24.7624 35.9687 22.6541ZM31.2391 24.3324C30.8975 24.772 30.2828 25.1588 29.6547 25.0787C29.5319 25.0627 29.232 25.0243 29.0234 24.7953C28.7558 24.5006 28.8109 24.081 28.8707 23.6686C28.9628 23.0369 29.04 22.5076 29.502 22.1769C30.0427 21.7909 30.9825 21.7661 31.4619 22.3178C32.012 22.9504 31.572 23.9033 31.2383 24.3333L31.2391 24.3324ZM31.4327 14.5283C31.4186 15.1865 31.0006 15.7622 30.4835 16.0177C30.3324 16.0921 29.9436 16.2843 29.6311 16.117C29.354 15.968 29.2871 15.6181 29.2399 15.3675C29.1706 15.0007 29.236 14.7109 29.2879 14.4891C29.3981 14.0223 29.4988 13.5931 29.8916 13.3496C29.9286 13.3264 30.3749 13.059 30.8101 13.2367C31.4422 13.4946 31.4343 14.441 31.4327 14.5283Z" fill="#EA5724"/>
<path style="mix-blend-mode:multiply" opacity="0.31" d="M35.9687 22.6541C35.6287 20.6883 33.905 19.6274 33.306 19.259C32.9518 19.0412 32.6362 18.8963 32.4166 18.8066C32.8542 18.4943 33.6382 17.8441 34.1576 16.7551C34.3875 16.2731 35.0998 14.7789 34.4607 13.2247C33.7145 11.4103 31.6972 10.9026 31.3092 10.8049C29.2997 10.2989 27.2013 11.0988 25.9743 12.396C25.0919 13.3288 24.8534 14.4883 24.3772 16.8072C24.0136 18.5752 23.9987 19.8436 23.9695 22.3803C23.9656 22.743 23.9585 24.2155 24.4379 25.9747C24.6567 26.7763 24.8322 27.1102 25.1045 27.3904C25.3107 27.6026 25.8074 28.0254 27.8475 28.2184C29.1769 28.3441 29.9971 28.421 31.1187 28.2008C32.1813 27.9918 33.5248 27.7275 34.6165 26.5945C34.8385 26.3647 36.3332 24.7624 35.9687 22.6541ZM31.2391 24.3324C30.8975 24.772 30.2828 25.1588 29.6547 25.0787C29.5319 25.0627 29.232 25.0243 29.0234 24.7953C28.7558 24.5006 28.8109 24.081 28.8707 23.6686C28.9628 23.0369 29.04 22.5076 29.502 22.1769C30.0427 21.7909 30.9825 21.7661 31.4619 22.3178C32.012 22.9504 31.572 23.9033 31.2383 24.3333L31.2391 24.3324ZM31.4327 14.5283C31.4186 15.1865 31.0006 15.7622 30.4835 16.0177C30.3324 16.0921 29.9436 16.2843 29.6311 16.117C29.354 15.968 29.2871 15.6181 29.2399 15.3675C29.1706 15.0007 29.236 14.7109 29.2879 14.4891C29.3981 14.0223 29.4988 13.5931 29.8916 13.3496C29.9286 13.3264 30.3749 13.059 30.8101 13.2367C31.4422 13.4946 31.4343 14.441 31.4327 14.5283Z" fill="url(#paint75_radial_1522_4397)"/>
<path style="mix-blend-mode:multiply" opacity="0.14" d="M35.9687 22.6541C35.6287 20.6883 33.905 19.6274 33.306 19.259C32.9518 19.0412 32.6362 18.8963 32.4166 18.8066C32.8542 18.4943 33.6382 17.8441 34.1576 16.7551C34.3875 16.2731 35.0998 14.7789 34.4607 13.2247C33.7145 11.4103 31.6972 10.9026 31.3092 10.8049C29.2997 10.2989 27.2013 11.0988 25.9743 12.396C25.0919 13.3288 24.8534 14.4883 24.3772 16.8072C24.0136 18.5752 23.9987 19.8436 23.9695 22.3803C23.9656 22.743 23.9585 24.2155 24.4379 25.9747C24.6567 26.7763 24.8322 27.1102 25.1045 27.3904C25.3107 27.6026 25.8074 28.0254 27.8475 28.2184C29.1769 28.3441 29.9971 28.421 31.1187 28.2008C32.1813 27.9918 33.5248 27.7275 34.6165 26.5945C34.8385 26.3647 36.3332 24.7624 35.9687 22.6541ZM31.2391 24.3324C30.8975 24.772 30.2828 25.1588 29.6547 25.0787C29.5319 25.0627 29.232 25.0243 29.0234 24.7953C28.7558 24.5006 28.8109 24.081 28.8707 23.6686C28.9628 23.0369 29.04 22.5076 29.502 22.1769C30.0427 21.7909 30.9825 21.7661 31.4619 22.3178C32.012 22.9504 31.572 23.9033 31.2383 24.3333L31.2391 24.3324ZM31.4327 14.5283C31.4186 15.1865 31.0006 15.7622 30.4835 16.0177C30.3324 16.0921 29.9436 16.2843 29.6311 16.117C29.354 15.968 29.2871 15.6181 29.2399 15.3675C29.1706 15.0007 29.236 14.7109 29.2879 14.4891C29.3981 14.0223 29.4988 13.5931 29.8916 13.3496C29.9286 13.3264 30.3749 13.059 30.8101 13.2367C31.4422 13.4946 31.4343 14.441 31.4327 14.5283Z" fill="url(#paint76_radial_1522_4397)"/>
<path style="mix-blend-mode:multiply" opacity="0.13" d="M35.9687 22.6541C35.6287 20.6883 33.905 19.6274 33.306 19.259C32.9518 19.0412 32.6362 18.8963 32.4166 18.8066C32.8542 18.4943 33.6382 17.8441 34.1576 16.7551C34.3875 16.2731 35.0998 14.7789 34.4607 13.2247C33.7145 11.4103 31.6972 10.9026 31.3092 10.8049C29.2997 10.2989 27.2013 11.0988 25.9743 12.396C25.0919 13.3288 24.8534 14.4883 24.3772 16.8072C24.0136 18.5752 23.9987 19.8436 23.9695 22.3803C23.9656 22.743 23.9585 24.2155 24.4379 25.9747C24.6567 26.7763 24.8322 27.1102 25.1045 27.3904C25.3107 27.6026 25.8074 28.0254 27.8475 28.2184C29.1769 28.3441 29.9971 28.421 31.1187 28.2008C32.1813 27.9918 33.5248 27.7275 34.6165 26.5945C34.8385 26.3647 36.3332 24.7624 35.9687 22.6541ZM31.2391 24.3324C30.8975 24.772 30.2828 25.1588 29.6547 25.0787C29.5319 25.0627 29.232 25.0243 29.0234 24.7953C28.7558 24.5006 28.8109 24.081 28.8707 23.6686C28.9628 23.0369 29.04 22.5076 29.502 22.1769C30.0427 21.7909 30.9825 21.7661 31.4619 22.3178C32.012 22.9504 31.572 23.9033 31.2383 24.3333L31.2391 24.3324ZM31.4327 14.5283C31.4186 15.1865 31.0006 15.7622 30.4835 16.0177C30.3324 16.0921 29.9436 16.2843 29.6311 16.117C29.354 15.968 29.2871 15.6181 29.2399 15.3675C29.1706 15.0007 29.236 14.7109 29.2879 14.4891C29.3981 14.0223 29.4988 13.5931 29.8916 13.3496C29.9286 13.3264 30.3749 13.059 30.8101 13.2367C31.4422 13.4946 31.4343 14.441 31.4327 14.5283Z" fill="url(#paint77_linear_1522_4397)"/>
<path d="M44.8915 16.9353C42.8521 14.5659 39.821 14.7028 39.3913 14.7293C39.1787 14.7421 35.3913 15.044 33.6746 18.4094C32.383 20.9421 32.8379 24.085 34.7584 26.1445C34.8946 26.2902 37.3692 28.8517 40.9009 28.1647C44.0075 27.5602 45.4007 24.9354 45.614 24.5174C46.7506 22.285 46.797 19.1477 44.8922 16.9345L44.8915 16.9353ZM40.1823 24.8081C39.1158 24.8161 38.2445 23.8664 38.2366 22.6869C38.2287 21.5082 39.0867 20.5458 40.1532 20.5386C41.2197 20.5306 42.091 21.4802 42.0989 22.6597C42.1067 23.8384 41.2488 24.8008 40.1823 24.8081Z" fill="#EA5724"/>
<path style="mix-blend-mode:multiply" opacity="0.7" d="M44.8915 16.9353C42.8521 14.5659 39.821 14.7028 39.3913 14.7293C39.1787 14.7421 35.3913 15.044 33.6746 18.4094C32.383 20.9421 32.8379 24.085 34.7584 26.1445C34.8946 26.2902 37.3692 28.8517 40.9009 28.1647C44.0075 27.5602 45.4007 24.9354 45.614 24.5174C46.7506 22.285 46.797 19.1477 44.8922 16.9345L44.8915 16.9353ZM40.1823 24.8081C39.1158 24.8161 38.2445 23.8664 38.2366 22.6869C38.2287 21.5082 39.0867 20.5458 40.1532 20.5386C41.2197 20.5306 42.091 21.4802 42.0989 22.6597C42.1067 23.8384 41.2488 24.8008 40.1823 24.8081Z" fill="url(#paint78_radial_1522_4397)"/>
<path style="mix-blend-mode:multiply" opacity="0.46" d="M44.8915 16.9353C42.8521 14.5659 39.821 14.7028 39.3913 14.7293C39.1787 14.7421 35.3913 15.044 33.6746 18.4094C32.383 20.9421 32.8379 24.085 34.7584 26.1445C34.8946 26.2902 37.3692 28.8517 40.9009 28.1647C44.0075 27.5602 45.4007 24.9354 45.614 24.5174C46.7506 22.285 46.797 19.1477 44.8922 16.9345L44.8915 16.9353ZM40.1823 24.8081C39.1158 24.8161 38.2445 23.8664 38.2366 22.6869C38.2287 21.5082 39.0867 20.5458 40.1532 20.5386C41.2197 20.5306 42.091 21.4802 42.0989 22.6597C42.1067 23.8384 41.2488 24.8008 40.1823 24.8081Z" fill="url(#paint79_radial_1522_4397)"/>
<path d="M55.7463 17.9683C53.8093 15.7735 50.9294 15.9009 50.5216 15.9257C50.3194 15.9377 46.7216 16.2179 45.0899 19.336C43.8621 21.6829 44.2942 24.5944 46.1179 26.5017C46.247 26.637 48.5972 29.0096 51.9534 28.3722C54.9049 27.8117 56.2288 25.3799 56.4311 24.9923C57.511 22.9241 57.5559 20.0182 55.7463 17.9675V17.9683ZM51.271 25.2622C50.258 25.2694 49.4299 24.3902 49.4229 23.298C49.415 22.2058 50.2304 21.3146 51.2442 21.3074C52.2572 21.3002 53.0852 22.1794 53.0923 23.2716C53.1002 24.3638 52.2847 25.255 51.271 25.2622Z" fill="#EA5724"/>
<path style="mix-blend-mode:multiply" opacity="0.7" d="M55.7463 17.9683C53.8093 15.7735 50.9294 15.9009 50.5216 15.9257C50.3194 15.9377 46.7216 16.2179 45.0899 19.336C43.8621 21.6829 44.2942 24.5944 46.1179 26.5017C46.247 26.637 48.5972 29.0096 51.9534 28.3722C54.9049 27.8117 56.2288 25.3799 56.4311 24.9923C57.511 22.9241 57.5559 20.0182 55.7463 17.9675V17.9683ZM51.271 25.2622C50.258 25.2694 49.4299 24.3902 49.4229 23.298C49.415 22.2058 50.2304 21.3146 51.2442 21.3074C52.2572 21.3002 53.0852 22.1794 53.0923 23.2716C53.1002 24.3638 52.2847 25.255 51.271 25.2622Z" fill="url(#paint80_radial_1522_4397)"/>
<path style="mix-blend-mode:multiply" opacity="0.46" d="M55.7463 17.9683C53.8093 15.7735 50.9294 15.9009 50.5216 15.9257C50.3194 15.9377 46.7216 16.2179 45.0899 19.336C43.8621 21.6829 44.2942 24.5944 46.1179 26.5017C46.247 26.637 48.5972 29.0096 51.9534 28.3722C54.9049 27.8117 56.2288 25.3799 56.4311 24.9923C57.511 22.9241 57.5559 20.0182 55.7463 17.9675V17.9683ZM51.271 25.2622C50.258 25.2694 49.4299 24.3902 49.4229 23.298C49.415 22.2058 50.2304 21.3146 51.2442 21.3074C52.2572 21.3002 53.0852 22.1794 53.0923 23.2716C53.1002 24.3638 52.2847 25.255 51.271 25.2622Z" fill="url(#paint81_radial_1522_4397)"/>
</g>
<defs>
<filter id="filter0_b_1522_4397" x="-6" y="-6" width="92" height="92" filterUnits="userSpaceOnUse" color-interpolation-filters="sRGB">
<feFlood flood-opacity="0" result="BackgroundImageFix"/>
<feGaussianBlur in="BackgroundImageFix" stdDeviation="3"/>
<feComposite in2="SourceAlpha" operator="in" result="effect1_backgroundBlur_1522_4397"/>
<feBlend mode="normal" in="SourceGraphic" in2="effect1_backgroundBlur_1522_4397" result="shape"/>
</filter>
<linearGradient id="paint0_linear_1522_4397" x1="-7.45058e-08" y1="40" x2="80" y2="40" gradientUnits="userSpaceOnUse">
<stop stop-color="white"/>
<stop offset="1" stop-color="white" stop-opacity="0.88"/>
</linearGradient>
<linearGradient id="paint1_linear_1522_4397" x1="19.4857" y1="38.3597" x2="31.4501" y2="11.1243" gradientUnits="userSpaceOnUse">
<stop stop-color="#FAA901"/>
<stop offset="0.57" stop-color="#FAC62D"/>
<stop offset="1" stop-color="#FADA4B"/>
</linearGradient>
<radialGradient id="paint2_radial_1522_4397" cx="0" cy="0" r="1" gradientUnits="userSpaceOnUse" gradientTransform="translate(13.5459 31.1011) scale(9.08381 9.24122)">
<stop stop-color="#FAA901"/>
<stop offset="0.22" stop-color="#FBC24B"/>
<stop offset="0.43" stop-color="#FCD78B"/>
<stop offset="0.62" stop-color="#FDE8BD"/>
<stop offset="0.78" stop-color="#FEF4E1"/>
<stop offset="0.91" stop-color="#FEFCF7"/>
<stop offset="1" stop-color="white"/>
</radialGradient>
<radialGradient id="paint3_radial_1522_4397" cx="0" cy="0" r="1" gradientUnits="userSpaceOnUse" gradientTransform="translate(20.222 42.8534) scale(3.01613 3.0684)">
<stop stop-color="#FAA901"/>
<stop offset="0.22" stop-color="#FBC24B"/>
<stop offset="0.43" stop-color="#FCD78B"/>
<stop offset="0.62" stop-color="#FDE8BD"/>
<stop offset="0.78" stop-color="#FEF4E1"/>
<stop offset="0.91" stop-color="#FEFCF7"/>
<stop offset="1" stop-color="white"/>
</radialGradient>
<linearGradient id="paint4_linear_1522_4397" x1="65.9858" y1="36.9961" x2="53.9589" y2="51.1073" gradientUnits="userSpaceOnUse">
<stop stop-color="#FAA901"/>
<stop offset="0.57" stop-color="#FAC62D"/>
<stop offset="1" stop-color="#FADA4B"/>
</linearGradient>
<radialGradient id="paint5_radial_1522_4397" cx="0" cy="0" r="1" gradientUnits="userSpaceOnUse" gradientTransform="translate(63.3987 31.1011) scale(8.17945 8.32118)">
<stop stop-color="#FAA901"/>
<stop offset="0.22" stop-color="#FBC24B"/>
<stop offset="0.43" stop-color="#FCD78B"/>
<stop offset="0.62" stop-color="#FDE8BD"/>
<stop offset="0.78" stop-color="#FEF4E1"/>
<stop offset="0.91" stop-color="#FEFCF7"/>
<stop offset="1" stop-color="white"/>
</radialGradient>
<radialGradient id="paint6_radial_1522_4397" cx="0" cy="0" r="1" gradientUnits="userSpaceOnUse" gradientTransform="translate(59.8733 43.008) scale(3.88036 3.9476)">
<stop stop-color="#FAA901"/>
<stop offset="0.22" stop-color="#FBC24B"/>
<stop offset="0.43" stop-color="#FCD78B"/>
<stop offset="0.62" stop-color="#FDE8BD"/>
<stop offset="0.78" stop-color="#FEF4E1"/>
<stop offset="0.91" stop-color="#FEFCF7"/>
<stop offset="1" stop-color="white"/>
</radialGradient>
<radialGradient id="paint7_radial_1522_4397" cx="0" cy="0" r="1" gradientUnits="userSpaceOnUse" gradientTransform="translate(44.3242 42.3491) rotate(9.0212) scale(30.3147 29.2284)">
<stop stop-color="#FADA4B"/>
<stop offset="0.49" stop-color="#FACB01"/>
<stop offset="0.83" stop-color="#FAAD01"/>
<stop offset="1" stop-color="#FAA901"/>
</radialGradient>
<radialGradient id="paint8_radial_1522_4397" cx="0" cy="0" r="1" gradientUnits="userSpaceOnUse" gradientTransform="translate(41.6784 80.7495) rotate(9.0212) scale(38.4931 37.1136)">
<stop stop-color="#D3A500"/>
<stop offset="1" stop-color="white"/>
</radialGradient>
<linearGradient id="paint9_linear_1522_4397" x1="41.2901" y1="29.0404" x2="40.3786" y2="38.6731" gradientUnits="userSpaceOnUse">
<stop stop-color="#FADA4B"/>
<stop offset="1"/>
</linearGradient>
<radialGradient id="paint10_radial_1522_4397" cx="0" cy="0" r="1" gradientUnits="userSpaceOnUse" gradientTransform="translate(54.0162 74.467) rotate(5.95065) scale(29.0237 31.2869)">
<stop offset="0.02" stop-color="#FDFDFD"/>
<stop offset="0.4" stop-color="#767676"/>
<stop offset="0.66" stop-color="#212121"/>
<stop offset="0.78"/>
<stop offset="1"/>
</radialGradient>
<linearGradient id="paint11_linear_1522_4397" x1="40.9548" y1="35.978" x2="41.4719" y2="30.8742" gradientUnits="userSpaceOnUse">
<stop/>
<stop offset="0.98" stop-color="white"/>
</linearGradient>
<linearGradient id="paint12_linear_1522_4397" x1="50.3752" y1="32.9669" x2="49.4465" y2="34.5386" gradientUnits="userSpaceOnUse">
<stop stop-color="white"/>
<stop offset="1" stop-color="#894F34"/>
</linearGradient>
<linearGradient id="paint13_linear_1522_4397" x1="29.2908" y1="32.3205" x2="29.8836" y2="34.0863" gradientUnits="userSpaceOnUse">
<stop stop-color="white"/>
<stop offset="1" stop-color="#894F34"/>
</linearGradient>
<linearGradient id="paint14_linear_1522_4397" x1="43.611" y1="36.0465" x2="54.9463" y2="45.7425" gradientUnits="userSpaceOnUse">
<stop stop-color="#FADA4B"/>
<stop offset="0.43" stop-color="#FAC62D"/>
<stop offset="1" stop-color="#FAA901"/>
</linearGradient>
<linearGradient id="paint15_linear_1522_4397" x1="43.5597" y1="36.1789" x2="54.9082" y2="45.8862" gradientUnits="userSpaceOnUse">
<stop stop-color="#FADA4B"/>
<stop offset="0.43" stop-color="#FAC62D"/>
<stop offset="1" stop-color="#FAA901"/>
</linearGradient>
<linearGradient id="paint16_linear_1522_4397" x1="48.5015" y1="42.2182" x2="49.9097" y2="39.9892" gradientUnits="userSpaceOnUse">
<stop stop-color="white"/>
<stop offset="0.1" stop-color="#FCFAF8"/>
<stop offset="0.23" stop-color="#F6EDE6"/>
<stop offset="0.38" stop-color="#EBD8C9"/>
<stop offset="0.55" stop-color="#DDBBA0"/>
<stop offset="0.74" stop-color="#CA966B"/>
<stop offset="0.93" stop-color="#B3692C"/>
<stop offset="1" stop-color="#AB5814"/>
</linearGradient>
<linearGradient id="paint17_linear_1522_4397" x1="25.0386" y1="43.9498" x2="37.4575" y2="35.6006" gradientUnits="userSpaceOnUse">
<stop stop-color="#FADA4B"/>
<stop offset="0.43" stop-color="#FAC62D"/>
<stop offset="1" stop-color="#FAA901"/>
</linearGradient>
<linearGradient id="paint18_linear_1522_4397" x1="25.1876" y1="44.0804" x2="37.5974" y2="35.7373" gradientUnits="userSpaceOnUse">
<stop stop-color="#FADA4B"/>
<stop offset="0.43" stop-color="#FAC62D"/>
<stop offset="1" stop-color="#FAA901"/>
</linearGradient>
<linearGradient id="paint19_linear_1522_4397" x1="31.7975" y1="40.8083" x2="31.0858" y2="38.1736" gradientUnits="userSpaceOnUse">
<stop stop-color="white"/>
<stop offset="0.1" stop-color="#FCFAF8"/>
<stop offset="0.23" stop-color="#F6EDE6"/>
<stop offset="0.38" stop-color="#EBD8C9"/>
<stop offset="0.55" stop-color="#DDBBA0"/>
<stop offset="0.74" stop-color="#CA966B"/>
<stop offset="0.93" stop-color="#B3692C"/>
<stop offset="1" stop-color="#AB5814"/>
</linearGradient>
<radialGradient id="paint20_radial_1522_4397" cx="0" cy="0" r="1" gradientUnits="userSpaceOnUse" gradientTransform="translate(39.6299 66.3799) scale(24.4533 24.8771)">
<stop stop-color="#AF2A00"/>
<stop offset="0.2" stop-color="#A02700"/>
<stop offset="0.57" stop-color="#7B2000"/>
<stop offset="1" stop-color="#491800"/>
</radialGradient>
<linearGradient id="paint21_linear_1522_4397" x1="40.1946" y1="66.7562" x2="39.8025" y2="63.5415" gradientUnits="userSpaceOnUse">
<stop offset="0.11" stop-color="#D60000"/>
<stop offset="0.26" stop-color="#D80C00"/>
<stop offset="0.96" stop-color="#E34300"/>
</linearGradient>
<linearGradient id="paint22_linear_1522_4397" x1="39.3391" y1="68.5529" x2="40.1537" y2="64.4403" gradientUnits="userSpaceOnUse">
<stop stop-color="#590000"/>
<stop offset="0.22" stop-color="#813D3D"/>
<stop offset="0.73" stop-color="#DAC7C7"/>
<stop offset="0.96" stop-color="white"/>
</linearGradient>
<radialGradient id="paint23_radial_1522_4397" cx="0" cy="0" r="1" gradientUnits="userSpaceOnUse" gradientTransform="translate(36.267 66.9169) rotate(178.464) scale(5.73003 4.33118)">
<stop stop-color="#590000"/>
<stop offset="0.22" stop-color="#813D3D"/>
<stop offset="0.73" stop-color="#DAC7C7"/>
<stop offset="0.96" stop-color="white"/>
</radialGradient>
<linearGradient id="paint24_linear_1522_4397" x1="39.2262" y1="63.5776" x2="39.2614" y2="61.6025" gradientUnits="userSpaceOnUse">
<stop/>
<stop offset="0.98" stop-color="white"/>
</linearGradient>
<linearGradient id="paint25_linear_1522_4397" x1="34.5726" y1="66.8009" x2="34.2363" y2="64.0465" gradientUnits="userSpaceOnUse">
<stop offset="0.11" stop-color="#D60000"/>
<stop offset="0.26" stop-color="#D80C00"/>
<stop offset="0.96" stop-color="#E34300"/>
</linearGradient>
<linearGradient id="paint26_linear_1522_4397" x1="34.0945" y1="70.71" x2="34.4267" y2="65.71" gradientUnits="userSpaceOnUse">
<stop stop-color="#590000"/>
<stop offset="0.22" stop-color="#813D3D"/>
<stop offset="0.73" stop-color="#DAC7C7"/>
<stop offset="0.96" stop-color="white"/>
</linearGradient>
<linearGradient id="paint27_linear_1522_4397" x1="34.1928" y1="64.4182" x2="34.2667" y2="62.9322" gradientUnits="userSpaceOnUse">
<stop/>
<stop offset="0.98" stop-color="white"/>
</linearGradient>
<radialGradient id="paint28_radial_1522_4397" cx="0" cy="0" r="1" gradientUnits="userSpaceOnUse" gradientTransform="translate(49.9849 43.965) rotate(172.636) scale(3.06743 3.83859)">
<stop stop-color="#F5EFB0"/>
<stop offset="0.31" stop-color="#F2ECAD"/>
<stop offset="0.52" stop-color="#ECE6A3"/>
<stop offset="0.71" stop-color="#E1DA94"/>
<stop offset="0.88" stop-color="#D1CB7E"/>
<stop offset="1" stop-color="#C4BD6B"/>
</radialGradient>
<radialGradient id="paint29_radial_1522_4397" cx="0" cy="0" r="1" gradientUnits="userSpaceOnUse" gradientTransform="translate(44.9162 44.248) rotate(172.636) scale(3.21072 4.01791)">
<stop stop-color="#F5EFB0"/>
<stop offset="0.31" stop-color="#F2ECAD"/>
<stop offset="0.52" stop-color="#ECE6A3"/>
<stop offset="0.71" stop-color="#E1DA94"/>
<stop offset="0.88" stop-color="#D1CB7E"/>
<stop offset="1" stop-color="#C4BD6B"/>
</radialGradient>
<radialGradient id="paint30_radial_1522_4397" cx="0" cy="0" r="1" gradientUnits="userSpaceOnUse" gradientTransform="translate(32.7344 45.2581) rotate(0.976632) scale(3.24566 4.06384)">
<stop stop-color="#F5EFB0"/>
<stop offset="0.31" stop-color="#F2ECAD"/>
<stop offset="0.52" stop-color="#ECE6A3"/>
<stop offset="0.71" stop-color="#E1DA94"/>
<stop offset="0.88" stop-color="#D1CB7E"/>
<stop offset="1" stop-color="#C4BD6B"/>
</radialGradient>
<linearGradient id="paint31_linear_1522_4397" x1="40.4796" y1="46.3252" x2="40.3913" y2="38.3927" gradientUnits="userSpaceOnUse">
<stop stop-color="#F5F5F5"/>
<stop offset="0.2" stop-color="#E1DAC9"/>
<stop offset="0.65" stop-color="#B1975B"/>
<stop offset="1" stop-color="#8A6000"/>
</linearGradient>
<linearGradient id="paint32_linear_1522_4397" x1="38.3022" y1="60.4137" x2="40.4504" y2="46.0561" gradientUnits="userSpaceOnUse">
<stop stop-color="#FADA4B"/>
<stop offset="0.43" stop-color="#FAC62D"/>
<stop offset="1" stop-color="#FAA901"/>
</linearGradient>
<linearGradient id="paint33_linear_1522_4397" x1="15.1738" y1="15.2292" x2="15.2935" y2="1.48067" gradientUnits="userSpaceOnUse">
<stop stop-color="#FAA901"/>
<stop offset="0.27" stop-color="#FAB50B"/>
<stop offset="1" stop-color="#FAD323"/>
</linearGradient>
<linearGradient id="paint34_linear_1522_4397" x1="11.2968" y1="16.2003" x2="11.7574" y2="21.4238" gradientUnits="userSpaceOnUse">
<stop stop-color="#FAA901"/>
<stop offset="0.27" stop-color="#FAB50B"/>
<stop offset="1" stop-color="#FAD323"/>
</linearGradient>
<linearGradient id="paint35_linear_1522_4397" x1="13.8846" y1="26.3496" x2="16.3236" y2="43.747" gradientUnits="userSpaceOnUse">
<stop stop-color="#FAA901"/>
<stop offset="0.27" stop-color="#FAB50B"/>
<stop offset="1" stop-color="#FAD323"/>
</linearGradient>
<radialGradient id="paint36_radial_1522_4397" cx="0" cy="0" r="1" gradientUnits="userSpaceOnUse" gradientTransform="translate(14.2656 28.1521) scale(7.61195 7.74386)">
<stop stop-color="#FAA901"/>
<stop offset="0.22" stop-color="#FBC24B"/>
<stop offset="0.43" stop-color="#FCD78B"/>
<stop offset="0.62" stop-color="#FDE8BD"/>
<stop offset="0.78" stop-color="#FEF4E1"/>
<stop offset="0.91" stop-color="#FEFCF7"/>
<stop offset="1" stop-color="white"/>
</radialGradient>
<linearGradient id="paint37_linear_1522_4397" x1="8.93074" y1="16.5808" x2="10.6099" y2="32.9267" gradientUnits="userSpaceOnUse">
<stop stop-color="#FAA901"/>
<stop offset="0.27" stop-color="#FAB50B"/>
<stop offset="1" stop-color="#FAD323"/>
</linearGradient>
<radialGradient id="paint38_radial_1522_4397" cx="0" cy="0" r="1" gradientUnits="userSpaceOnUse" gradientTransform="translate(9.62574 25.8308) scale(5.02006 5.10705)">
<stop stop-color="#FAA901"/>
<stop offset="0.22" stop-color="#FBC24B"/>
<stop offset="0.43" stop-color="#FCD78B"/>
<stop offset="0.62" stop-color="#FDE8BD"/>
<stop offset="0.78" stop-color="#FEF4E1"/>
<stop offset="0.91" stop-color="#FEFCF7"/>
<stop offset="1" stop-color="white"/>
</radialGradient>
<linearGradient id="paint39_linear_1522_4397" x1="4.27412" y1="20.3819" x2="7.02565" y2="34.369" gradientUnits="userSpaceOnUse">
<stop stop-color="#FAA901"/>
<stop offset="0.27" stop-color="#FAB50B"/>
<stop offset="1" stop-color="#FAD323"/>
</linearGradient>
<radialGradient id="paint40_radial_1522_4397" cx="0" cy="0" r="1" gradientUnits="userSpaceOnUse" gradientTransform="translate(6.50709 28.3067) scale(5.91577 6.01828)">
<stop stop-color="#FAA901"/>
<stop offset="0.22" stop-color="#FBC24B"/>
<stop offset="0.43" stop-color="#FCD78B"/>
<stop offset="0.62" stop-color="#FDE8BD"/>
<stop offset="0.78" stop-color="#FEF4E1"/>
<stop offset="0.91" stop-color="#FEFCF7"/>
<stop offset="1" stop-color="white"/>
</radialGradient>
<linearGradient id="paint41_linear_1522_4397" x1="8.66955" y1="14.6246" x2="8.21346" y2="13.7541" gradientUnits="userSpaceOnUse">
<stop/>
<stop offset="0.98" stop-color="white"/>
</linearGradient>
<linearGradient id="paint42_linear_1522_4397" x1="3.60271" y1="19.1799" x2="3.20888" y2="18.428" gradientUnits="userSpaceOnUse">
<stop/>
<stop offset="0.98" stop-color="white"/>
</linearGradient>
<linearGradient id="paint43_linear_1522_4397" x1="11.8253" y1="10.4079" x2="14.499" y2="26.8999" gradientUnits="userSpaceOnUse">
<stop stop-color="#FAA901"/>
<stop offset="0.27" stop-color="#FAB50B"/>
<stop offset="1" stop-color="#FAD323"/>
</linearGradient>
<radialGradient id="paint44_radial_1522_4397" cx="0" cy="0" r="1" gradientUnits="userSpaceOnUse" gradientTransform="translate(13.5805 25.0573) scale(8.82801 8.98098)">
<stop stop-color="#FAA901"/>
<stop offset="0.22" stop-color="#FBC24B"/>
<stop offset="0.43" stop-color="#FCD78B"/>
<stop offset="0.62" stop-color="#FDE8BD"/>
<stop offset="0.78" stop-color="#FEF4E1"/>
<stop offset="0.91" stop-color="#FEFCF7"/>
<stop offset="1" stop-color="white"/>
</radialGradient>
<linearGradient id="paint45_linear_1522_4397" x1="20.3595" y1="14.1979" x2="22.2312" y2="11.1314" gradientUnits="userSpaceOnUse">
<stop stop-color="#FAA901"/>
<stop offset="0.27" stop-color="#FAB50B"/>
<stop offset="1" stop-color="#FAD323"/>
</linearGradient>
<linearGradient id="paint46_linear_1522_4397" x1="20.2536" y1="15.2699" x2="18.5755" y2="29.759" gradientUnits="userSpaceOnUse">
<stop stop-color="#FAA901"/>
<stop offset="0.27" stop-color="#FAB50B"/>
<stop offset="1" stop-color="#FAD323"/>
</linearGradient>
<radialGradient id="paint47_radial_1522_4397" cx="0" cy="0" r="1" gradientUnits="userSpaceOnUse" gradientTransform="translate(18.5244 25.9084) scale(6.59267 6.70691)">
<stop stop-color="#FAA901"/>
<stop offset="0.22" stop-color="#FBC24B"/>
<stop offset="0.43" stop-color="#FCD78B"/>
<stop offset="0.62" stop-color="#FDE8BD"/>
<stop offset="0.78" stop-color="#FEF4E1"/>
<stop offset="0.91" stop-color="#FEFCF7"/>
<stop offset="1" stop-color="white"/>
</radialGradient>
<linearGradient id="paint48_linear_1522_4397" x1="18.2877" y1="31.7137" x2="16.2454" y2="39.9379" gradientUnits="userSpaceOnUse">
<stop stop-color="#FAA901"/>
<stop offset="0.57" stop-color="#FAC62D"/>
<stop offset="1" stop-color="#FADA4B"/>
</linearGradient>
<linearGradient id="paint49_linear_1522_4397" x1="16.7627" y1="32.2832" x2="19.8935" y2="25.2563" gradientUnits="userSpaceOnUse">
<stop stop-color="#FAA901"/>
<stop offset="0.27" stop-color="#FAB50B"/>
<stop offset="1" stop-color="#FAD323"/>
</linearGradient>
<linearGradient id="paint50_linear_1522_4397" x1="12.2682" y1="12.7774" x2="12.2544" y2="12.0935" gradientUnits="userSpaceOnUse">
<stop/>
<stop offset="0.98" stop-color="white"/>
</linearGradient>
<linearGradient id="paint51_linear_1522_4397" x1="10.619" y1="32.0669" x2="9.76285" y2="33.2718" gradientUnits="userSpaceOnUse">
<stop/>
<stop offset="0.98" stop-color="white"/>
</linearGradient>
<linearGradient id="paint52_linear_1522_4397" x1="20.8923" y1="13.9119" x2="21.3631" y2="12.5243" gradientUnits="userSpaceOnUse">
<stop/>
<stop offset="0.98" stop-color="white"/>
</linearGradient>
<linearGradient id="paint53_linear_1522_4397" x1="16.7465" y1="27.0351" x2="16.2941" y2="24.7551" gradientUnits="userSpaceOnUse">
<stop/>
<stop offset="0.98" stop-color="white"/>
</linearGradient>
<linearGradient id="paint54_linear_1522_4397" x1="64.8268" y1="15.4613" x2="64.7079" y2="1.71285" gradientUnits="userSpaceOnUse">
<stop stop-color="#FAA901"/>
<stop offset="0.27" stop-color="#FAB50B"/>
<stop offset="1" stop-color="#FAD323"/>
</linearGradient>
<linearGradient id="paint55_linear_1522_4397" x1="68.7066" y1="16.4654" x2="68.246" y2="21.6889" gradientUnits="userSpaceOnUse">
<stop stop-color="#FAA901"/>
<stop offset="0.27" stop-color="#FAB50B"/>
<stop offset="1" stop-color="#FAD323"/>
</linearGradient>
<linearGradient id="paint56_linear_1522_4397" x1="66.1177" y1="26.581" x2="63.6796" y2="43.9792" gradientUnits="userSpaceOnUse">
<stop stop-color="#FAA901"/>
<stop offset="0.27" stop-color="#FAB50B"/>
<stop offset="1" stop-color="#FAD323"/>
</linearGradient>
<radialGradient id="paint57_radial_1522_4397" cx="0" cy="0" r="1" gradientUnits="userSpaceOnUse" gradientTransform="translate(65.7368 28.3843) rotate(180) scale(7.61195 7.74386)">
<stop stop-color="#FAA901"/>
<stop offset="0.22" stop-color="#FBC24B"/>
<stop offset="0.43" stop-color="#FCD78B"/>
<stop offset="0.62" stop-color="#FDE8BD"/>
<stop offset="0.78" stop-color="#FEF4E1"/>
<stop offset="0.91" stop-color="#FEFCF7"/>
<stop offset="1" stop-color="white"/>
</radialGradient>
<linearGradient id="paint58_linear_1522_4397" x1="71.0707" y1="16.8122" x2="69.3924" y2="33.159" gradientUnits="userSpaceOnUse">
<stop stop-color="#FAA901"/>
<stop offset="0.27" stop-color="#FAB50B"/>
<stop offset="1" stop-color="#FAD323"/>
</linearGradient>
<radialGradient id="paint59_radial_1522_4397" cx="0" cy="0" r="1" gradientUnits="userSpaceOnUse" gradientTransform="translate(70.3765 26.0631) rotate(180) scale(5.02006 5.10705)">
<stop stop-color="#FAA901"/>
<stop offset="0.22" stop-color="#FBC24B"/>
<stop offset="0.43" stop-color="#FCD78B"/>
<stop offset="0.62" stop-color="#FDE8BD"/>
<stop offset="0.78" stop-color="#FEF4E1"/>
<stop offset="0.91" stop-color="#FEFCF7"/>
<stop offset="1" stop-color="white"/>
</radialGradient>
<linearGradient id="paint60_linear_1522_4397" x1="75.7276" y1="20.614" x2="72.9761" y2="34.6011" gradientUnits="userSpaceOnUse">
<stop stop-color="#FAA901"/>
<stop offset="0.27" stop-color="#FAB50B"/>
<stop offset="1" stop-color="#FAD323"/>
</linearGradient>
<radialGradient id="paint61_radial_1522_4397" cx="0" cy="0" r="1" gradientUnits="userSpaceOnUse" gradientTransform="translate(73.4947 28.5388) rotate(180) scale(5.91578 6.01828)">
<stop stop-color="#FAA901"/>
<stop offset="0.22" stop-color="#FBC24B"/>
<stop offset="0.43" stop-color="#FCD78B"/>
<stop offset="0.62" stop-color="#FDE8BD"/>
<stop offset="0.78" stop-color="#FEF4E1"/>
<stop offset="0.91" stop-color="#FEFCF7"/>
<stop offset="1" stop-color="white"/>
</radialGradient>
<linearGradient id="paint62_linear_1522_4397" x1="71.3316" y1="14.8567" x2="71.7877" y2="13.9863" gradientUnits="userSpaceOnUse">
<stop/>
<stop offset="0.98" stop-color="white"/>
</linearGradient>
<linearGradient id="paint63_linear_1522_4397" x1="76.3996" y1="19.4121" x2="76.7934" y2="18.6601" gradientUnits="userSpaceOnUse">
<stop/>
<stop offset="0.98" stop-color="white"/>
</linearGradient>
<linearGradient id="paint64_linear_1522_4397" x1="68.1758" y1="10.6401" x2="65.5014" y2="27.1321" gradientUnits="userSpaceOnUse">
<stop stop-color="#FAA901"/>
<stop offset="0.27" stop-color="#FAB50B"/>
<stop offset="1" stop-color="#FAD323"/>
</linearGradient>
<radialGradient id="paint65_radial_1522_4397" cx="0" cy="0" r="1" gradientUnits="userSpaceOnUse" gradientTransform="translate(66.4206 25.2895) rotate(180) scale(8.82801 8.98098)">
<stop stop-color="#FAA901"/>
<stop offset="0.22" stop-color="#FBC24B"/>
<stop offset="0.43" stop-color="#FCD78B"/>
<stop offset="0.62" stop-color="#FDE8BD"/>
<stop offset="0.78" stop-color="#FEF4E1"/>
<stop offset="0.91" stop-color="#FEFCF7"/>
<stop offset="1" stop-color="white"/>
</radialGradient>
<linearGradient id="paint66_linear_1522_4397" x1="59.642" y1="14.4301" x2="57.7702" y2="11.3636" gradientUnits="userSpaceOnUse">
<stop stop-color="#FAA901"/>
<stop offset="0.27" stop-color="#FAB50B"/>
<stop offset="1" stop-color="#FAD323"/>
</linearGradient>
<linearGradient id="paint67_linear_1522_4397" x1="59.7478" y1="15.502" x2="61.4268" y2="29.9912" gradientUnits="userSpaceOnUse">
<stop stop-color="#FAA901"/>
<stop offset="0.27" stop-color="#FAB50B"/>
<stop offset="1" stop-color="#FAD323"/>
</linearGradient>
<radialGradient id="paint68_radial_1522_4397" cx="0" cy="0" r="1" gradientUnits="userSpaceOnUse" gradientTransform="translate(61.4779 26.1405) rotate(180) scale(6.59267 6.70691)">
<stop stop-color="#FAA901"/>
<stop offset="0.22" stop-color="#FBC24B"/>
<stop offset="0.43" stop-color="#FCD78B"/>
<stop offset="0.62" stop-color="#FDE8BD"/>
<stop offset="0.78" stop-color="#FEF4E1"/>
<stop offset="0.91" stop-color="#FEFCF7"/>
<stop offset="1" stop-color="white"/>
</radialGradient>
<linearGradient id="paint69_linear_1522_4397" x1="61.7141" y1="31.9459" x2="63.7572" y2="40.1701" gradientUnits="userSpaceOnUse">
<stop stop-color="#FAA901"/>
<stop offset="0.57" stop-color="#FAC62D"/>
<stop offset="1" stop-color="#FADA4B"/>
</linearGradient>
<linearGradient id="paint70_linear_1522_4397" x1="63.2378" y1="32.5154" x2="60.107" y2="25.4885" gradientUnits="userSpaceOnUse">
<stop stop-color="#FAA901"/>
<stop offset="0.27" stop-color="#FAB50B"/>
<stop offset="1" stop-color="#FAD323"/>
</linearGradient>
<linearGradient id="paint71_linear_1522_4397" x1="67.7346" y1="13.0094" x2="67.7485" y2="12.3256" gradientUnits="userSpaceOnUse">
<stop/>
<stop offset="0.98" stop-color="white"/>
</linearGradient>
<linearGradient id="paint72_linear_1522_4397" x1="59.1089" y1="14.1441" x2="58.6381" y2="12.7565" gradientUnits="userSpaceOnUse">
<stop/>
<stop offset="0.98" stop-color="white"/>
</linearGradient>
<linearGradient id="paint73_linear_1522_4397" x1="69.1892" y1="32.9475" x2="70.3197" y2="34.3722" gradientUnits="userSpaceOnUse">
<stop/>
<stop offset="0.98" stop-color="white"/>
</linearGradient>
<linearGradient id="paint74_linear_1522_4397" x1="63.2549" y1="27.2673" x2="63.7065" y2="24.9873" gradientUnits="userSpaceOnUse">
<stop/>
<stop offset="0.98" stop-color="white"/>
</linearGradient>
<radialGradient id="paint75_radial_1522_4397" cx="0" cy="0" r="1" gradientUnits="userSpaceOnUse" gradientTransform="translate(30.5198 14.3175) rotate(-0.417104) scale(2.16214 2.1996)">
<stop stop-color="#BD2926"/>
<stop offset="1" stop-color="white"/>
</radialGradient>
<radialGradient id="paint76_radial_1522_4397" cx="0" cy="0" r="1" gradientUnits="userSpaceOnUse" gradientTransform="translate(29.4792 23.4905) rotate(-0.417104) scale(3.92129 3.98923)">
<stop stop-color="#BD2926"/>
<stop offset="1" stop-color="white"/>
</radialGradient>
<linearGradient id="paint77_linear_1522_4397" x1="22.6961" y1="18.76" x2="27.5991" y2="19.2597" gradientUnits="userSpaceOnUse">
<stop stop-color="#BD2926"/>
<stop offset="1" stop-color="white"/>
</linearGradient>
<radialGradient id="paint78_radial_1522_4397" cx="0" cy="0" r="1" gradientUnits="userSpaceOnUse" gradientTransform="translate(40.0195 23.1246) rotate(-0.417104) scale(4.77528 4.85802)">
<stop stop-color="#EF5E24"/>
<stop offset="1" stop-color="white"/>
</radialGradient>
<radialGradient id="paint79_radial_1522_4397" cx="0" cy="0" r="1" gradientUnits="userSpaceOnUse" gradientTransform="translate(40.0459 30.8445) rotate(3.59101) scale(7.81475 7.94912)">
<stop stop-color="#EF5E24"/>
<stop offset="1" stop-color="white"/>
</radialGradient>
<radialGradient id="paint80_radial_1522_4397" cx="0" cy="0" r="1" gradientUnits="userSpaceOnUse" gradientTransform="translate(51.118 23.7022) rotate(-0.417104) scale(4.4935 4.57136)">
<stop stop-color="#EF5E24"/>
<stop offset="1" stop-color="white"/>
</radialGradient>
<radialGradient id="paint81_radial_1522_4397" cx="0" cy="0" r="1" gradientUnits="userSpaceOnUse" gradientTransform="translate(51.1557 30.8567) rotate(3.59101) scale(7.39599 7.52316)">
<stop stop-color="#EF5E24"/>
<stop offset="1" stop-color="white"/>
</radialGradient>
<clipPath id="clip0_1522_4397">
<rect width="76.5217" height="59.8866" fill="white" transform="translate(1.74023 10.4351)"/>
</clipPath>
</defs>
</svg>
