<svg width="20" height="20" viewBox="0 0 20 20" fill="none" xmlns="http://www.w3.org/2000/svg">
<path d="M18.8483 9.92278L18.8484 9.92288C18.8657 9.94488 18.875 9.97204 18.875 10C18.875 10.028 18.8657 10.0551 18.8484 10.0771L18.8483 10.0772C18.7777 10.1674 17.7658 11.4423 16.1563 12.6903C14.5394 13.9442 12.3786 15.125 10 15.125C7.62148 15.125 5.46069 13.9442 3.84376 12.6903C2.23426 11.4423 1.22237 10.1674 1.15171 10.0772L1.15163 10.0771C1.13438 10.0551 1.125 10.028 1.125 10C1.125 9.97204 1.13438 9.94488 1.15163 9.92288L1.15171 9.92278C1.22237 9.83261 2.23426 8.55774 3.84376 7.30965C5.46069 6.05581 7.62148 4.875 10 4.875C12.3786 4.875 14.5394 6.05581 16.1563 7.30965C17.7658 8.55774 18.7777 9.83261 18.8483 9.92278Z" stroke="#A6C2E9"/>
<path d="M12.625 10C12.625 11.4497 11.4497 12.625 10 12.625C8.55025 12.625 7.375 11.4497 7.375 10C7.375 8.55025 8.55025 7.375 10 7.375C11.4497 7.375 12.625 8.55025 12.625 10Z" stroke="#A6C2E9"/>
</svg>
