<svg width="20" height="20" viewBox="0 0 20 20" fill="none" xmlns="http://www.w3.org/2000/svg">
<g clip-path="url(#clip0_1316_4138)">
<path d="M17.7811 2.21654C17.4954 1.92676 17.0301 1.93084 16.7404 2.21654L14.1283 4.8286C10.8918 3.35931 7.43896 3.71847 4.14531 5.86934C1.69242 7.46923 0.202726 9.48134 0.141506 9.56705C-0.0543987 9.83642 -0.046236 10.2037 0.161913 10.4649C1.55773 12.1791 3.01886 13.5137 4.51263 14.4443L2.21483 16.7421C1.92914 17.0278 1.92914 17.493 2.21483 17.7828C2.35768 17.9257 2.54542 17.9991 2.73316 17.9991C2.92091 17.9991 3.10865 17.9257 3.25149 17.7828L17.7811 3.25728C18.0668 2.97159 18.0668 2.50631 17.7811 2.21654ZM8.18176 10.7751C8.07565 10.5343 8.02259 10.2731 8.02259 9.99967C8.02259 9.47318 8.22666 8.97525 8.60214 8.59977C9.18986 8.01205 10.0592 7.87329 10.7775 8.17939L8.18176 10.7751ZM11.8631 7.09783C10.5285 6.24075 8.72867 6.39584 7.56548 7.55902C6.91247 8.21204 6.55739 9.07728 6.55739 9.99559C6.55739 10.6649 6.74921 11.3057 7.10429 11.8567L5.59011 13.3709C4.26367 12.6036 2.95764 11.469 1.68834 9.98743C2.23116 9.35074 3.37802 8.12225 4.94934 7.09783C7.66751 5.32652 10.3734 4.94288 13.01 5.95097L11.8631 7.09783Z" fill="#4E698F"/>
<path d="M19.8377 9.53448C18.8296 8.29375 17.7847 7.24893 16.7236 6.42041C16.4012 6.17145 15.94 6.22859 15.6869 6.54693C15.438 6.86528 15.4951 7.32647 15.8134 7.57951C16.6542 8.23661 17.495 9.05288 18.3112 10.0079C17.8296 10.5711 16.8909 11.5833 15.6175 12.5098C13.1646 14.2933 10.6873 14.9382 8.25887 14.4239C7.86298 14.3382 7.47117 14.5954 7.38954 14.9912C7.30383 15.3871 7.56096 15.7789 7.95685 15.8606C8.58946 15.9953 9.22615 16.0606 9.86692 16.0606C10.8301 16.0606 11.8015 15.9096 12.7688 15.6075C14.0381 15.2116 15.2992 14.5586 16.5195 13.6689C18.5765 12.1629 19.805 10.5018 19.8581 10.4324C20.054 10.163 20.0458 9.79569 19.8377 9.53448Z" fill="#4E698F"/>
</g>
<defs>
<clipPath id="clip0_1316_4138">
<rect width="20" height="20" fill="white"/>
</clipPath>
</defs>
</svg>
