<svg width="32" height="32" viewBox="0 0 32 32" fill="none" xmlns="http://www.w3.org/2000/svg">
<rect width="32" height="32" rx="16" fill="#A6C2E9"/>
<path fill-rule="evenodd" clip-rule="evenodd" d="M12.6667 8.5C13.1269 8.5 13.5 8.8731 13.5 9.33333V12.6667C13.5 13.1269 13.1269 13.5 12.6667 13.5C12.2064 13.5 11.8333 13.1269 11.8333 12.6667V11.8333H9.33333C8.8731 11.8333 8.5 11.4602 8.5 11C8.5 10.5398 8.8731 10.1667 9.33333 10.1667H11.8333V9.33333C11.8333 8.8731 12.2064 8.5 12.6667 8.5ZM15.1667 11C15.1667 10.5398 15.5397 10.1667 16 10.1667H22.6667C23.1269 10.1667 23.5 10.5398 23.5 11C23.5 11.4602 23.1269 11.8333 22.6667 11.8333H16C15.5397 11.8333 15.1667 11.4602 15.1667 11ZM17.6667 13.5C18.1269 13.5 18.5 13.8731 18.5 14.3333V17.6667C18.5 18.1269 18.1269 18.5 17.6667 18.5C17.2064 18.5 16.8333 18.1269 16.8333 17.6667V16.8333H9.33333C8.8731 16.8333 8.5 16.4602 8.5 16C8.5 15.5397 8.8731 15.1667 9.33333 15.1667H16.8333V14.3333C16.8333 13.8731 17.2064 13.5 17.6667 13.5ZM20.1667 16C20.1667 15.5397 20.5398 15.1667 21 15.1667H22.6667C23.1269 15.1667 23.5 15.5397 23.5 16C23.5 16.4602 23.1269 16.8333 22.6667 16.8333H21C20.5398 16.8333 20.1667 16.4602 20.1667 16ZM14.3333 18.5C14.7936 18.5 15.1667 18.8731 15.1667 19.3333V22.6667C15.1667 23.1269 14.7936 23.5 14.3333 23.5C13.8731 23.5 13.5 23.1269 13.5 22.6667V21.8333H9.33333C8.8731 21.8333 8.5 21.4602 8.5 21C8.5 20.5398 8.8731 20.1667 9.33333 20.1667H13.5V19.3333C13.5 18.8731 13.8731 18.5 14.3333 18.5ZM16.8333 21C16.8333 20.5398 17.2064 20.1667 17.6667 20.1667H22.6667C23.1269 20.1667 23.5 20.5398 23.5 21C23.5 21.4602 23.1269 21.8333 22.6667 21.8333H17.6667C17.2064 21.8333 16.8333 21.4602 16.8333 21Z" fill="url(#paint0_linear_1292_4069)"/>
<defs>
<linearGradient id="paint0_linear_1292_4069" x1="8.5" y1="8.93651" x2="26.4331" y2="16.8695" gradientUnits="userSpaceOnUse">
<stop stop-color="#1B3558"/>
<stop offset="1" stop-color="#0F192C"/>
</linearGradient>
</defs>
</svg>
