<svg width="51" height="50" viewBox="0 0 51 50" fill="none" xmlns="http://www.w3.org/2000/svg">
<g filter="url(#filter0_d_1233_19133)">
<rect x="5.06641" y="1" width="40" height="40" rx="6" fill="#C2285C"/>
</g>
<g clip-path="url(#clip0_1233_19133)">
<path d="M28.9593 12.5342C28.0889 12.5342 27.2571 12.7337 26.4869 13.1272C25.9626 13.3951 25.481 13.7509 25.0677 14.1732C24.6544 13.7509 24.1728 13.3951 23.6485 13.1272C22.8783 12.7337 22.0465 12.5342 21.1761 12.5342C18.1756 12.5342 15.7344 14.9754 15.7344 17.976C15.7344 20.1012 16.8568 22.3584 19.0704 24.6849C20.9187 26.6275 23.1816 28.2467 24.7544 29.2631L25.0677 29.4656L25.381 29.2631C26.9538 28.2468 29.2167 26.6275 31.065 24.6849C33.2786 22.3584 34.401 20.1012 34.401 17.976C34.401 14.9754 31.9599 12.5342 28.9593 12.5342Z" fill="white"/>
</g>
<defs>
<filter id="filter0_d_1233_19133" x="0.0664062" y="0" width="50" height="50" filterUnits="userSpaceOnUse" color-interpolation-filters="sRGB">
<feFlood flood-opacity="0" result="BackgroundImageFix"/>
<feColorMatrix in="SourceAlpha" type="matrix" values="0 0 0 0 0 0 0 0 0 0 0 0 0 0 0 0 0 0 127 0" result="hardAlpha"/>
<feOffset dy="4"/>
<feGaussianBlur stdDeviation="2.5"/>
<feColorMatrix type="matrix" values="0 0 0 0 0 0 0 0 0 0 0 0 0 0 0 0 0 0 0.05 0"/>
<feBlend mode="normal" in2="BackgroundImageFix" result="effect1_dropShadow_1233_19133"/>
<feBlend mode="normal" in="SourceGraphic" in2="effect1_dropShadow_1233_19133" result="shape"/>
</filter>
<clipPath id="clip0_1233_19133">
<rect width="18.6667" height="18.6667" fill="white" transform="translate(15.7344 11.667)"/>
</clipPath>
</defs>
</svg>
