<svg width="24" height="24" viewBox="0 0 24 24" fill="none" xmlns="http://www.w3.org/2000/svg">
<path d="M17.0034 1.11572C15.8844 1.11572 14.8149 1.37225 13.8246 1.87823C13.1506 2.22259 12.5314 2.68013 12 3.22297C11.4686 2.68013 10.8494 2.22259 10.1754 1.87823C9.18507 1.37225 8.11556 1.11572 6.99652 1.11572C3.13866 1.11572 0 4.25438 0 8.11229C0 10.8448 1.44312 13.7469 4.28922 16.7381C6.66557 19.2357 9.57496 21.3176 11.5971 22.6243L12 22.8847L12.4029 22.6243C14.425 21.3176 17.3344 19.2357 19.7108 16.7381C22.5569 13.7469 24 10.8448 24 8.11229C24 4.25438 20.8613 1.11572 17.0034 1.11572Z" fill="#A6C2E9"/>
</svg>
