<svg width="23" height="23" viewBox="0 0 23 23" fill="none" xmlns="http://www.w3.org/2000/svg">
<g clip-path="url(#clip0_1308_5006)">
<path d="M16.3873 1.68945C15.3615 1.68945 14.3811 1.9246 13.4734 2.38842C12.8555 2.70408 12.2879 3.12349 11.8008 3.6211C11.3137 3.12349 10.7461 2.70408 10.1282 2.38842C9.22043 1.9246 8.24005 1.68945 7.21426 1.68945C3.67788 1.68945 0.800781 4.56655 0.800781 8.10298C0.800781 10.6078 2.12364 13.268 4.73257 16.01C6.91088 18.2994 9.57783 20.2078 11.4315 21.4057L11.8008 21.6443L12.1701 21.4057C14.0237 20.2079 16.6907 18.2994 18.869 16.01C21.4779 13.268 22.8008 10.6078 22.8008 8.10298C22.8008 4.56655 19.9237 1.68945 16.3873 1.68945Z" fill="#A6C2E9"/>
</g>
<defs>
<clipPath id="clip0_1308_5006">
<rect width="22" height="22" fill="white" transform="translate(0.800781 0.666992)"/>
</clipPath>
</defs>
</svg>
