<svg width="22" height="22" viewBox="0 0 22 22" fill="none" xmlns="http://www.w3.org/2000/svg">
<path d="M11.0002 20.1666C16.0628 20.1666 20.1668 16.0625 20.1668 10.9999C20.1668 5.93731 16.0628 1.83325 11.0002 1.83325C5.93755 1.83325 1.8335 5.93731 1.8335 10.9999C1.8335 16.0625 5.93755 20.1666 11.0002 20.1666Z" fill="white" stroke="white" stroke-width="1.5" stroke-linecap="round" stroke-linejoin="round"/>
<path d="M8.33252 8.25003C8.54803 7.6374 8.97341 7.1208 9.53331 6.79174C10.0932 6.46268 10.7515 6.34239 11.3916 6.45219C12.0317 6.56198 12.6123 6.89476 13.0305 7.3916C13.4487 7.88844 13.6777 8.51726 13.6767 9.1667C13.6767 11 10.9267 11.9167 10.9267 11.9167" stroke="#C2285C" stroke-width="1.5" stroke-linecap="round" stroke-linejoin="round"/>
<path d="M11 15.5833H11.0083" stroke="#C2285C" stroke-width="2" stroke-linecap="round" stroke-linejoin="round"/>
</svg>
