<svg width="24" height="24" viewBox="0 0 24 24" fill="none" xmlns="http://www.w3.org/2000/svg">
<path d="M10.9848 24C12.7959 24 14.3109 22.7089 14.6588 21H7.31079C7.65887 22.7089 9.17389 24 10.9848 24Z" fill="#A6C2E9"/>
<path fill-rule="evenodd" clip-rule="evenodd" d="M3.97884 11.9995C3.97683 11.9993 3.97481 11.999 3.9728 11.999C3.94205 12.9855 3.69866 13.9446 3.26659 14.8095C2.88637 15.5624 2.36256 16.2458 1.71291 16.8205C1.68183 16.8476 1.65046 16.8744 1.61879 16.9009C1.31699 17.1545 1.11354 17.4895 1.02877 17.8569C0.999183 17.9852 0.984055 18.1175 0.984255 18.2516C0.984386 18.3643 0.995342 18.4784 1.01773 18.5924C1.01907 18.5993 1.02045 18.6061 1.02187 18.613C1.02507 18.6284 1.02849 18.6438 1.03212 18.6591C1.03667 18.6784 1.04155 18.6977 1.04677 18.717C1.2588 19.4999 2.03279 20 2.84486 20H2.84981H19.1198H19.1248C19.9368 20 20.7108 19.4999 20.9229 18.717C20.9281 18.6976 20.933 18.6783 20.9376 18.6589C20.9412 18.6437 20.9446 18.6284 20.9478 18.613C20.9491 18.6067 20.9503 18.6005 20.9516 18.5942C21.0009 18.3444 20.9953 18.0945 20.9412 17.8585C20.869 17.5434 20.7103 17.2531 20.4803 17.0208C20.4394 16.9791 20.3963 16.9391 20.3508 16.9009C20.3191 16.8744 20.2877 16.8475 20.2566 16.8204C19.6077 16.2463 19.0843 15.5637 18.7042 14.8117C18.2714 13.9463 18.0276 12.9864 17.9968 11.999C17.9948 11.999 17.9928 11.9993 17.9908 11.9995C17.9899 11.9996 17.989 11.9997 17.9881 11.9998C17.9859 11.9293 17.9848 11.8587 17.9848 11.7879V8.99994C17.9848 5.13385 14.8507 2 10.9848 2C7.11891 2 3.98488 5.13385 3.98488 8.99994V11.7879C3.98488 11.8587 3.98377 11.9293 3.98156 11.9998C3.98065 11.9997 3.97975 11.9996 3.97884 11.9995Z" fill="#A6C2E9"/>
</svg>
