<svg width="60" height="60" viewBox="0 0 60 60" fill="none" xmlns="http://www.w3.org/2000/svg">
<path d="M1.79227 29.3363L5.89082e-08 30.0961C-0.000117129 30.5504 0.174609 31.0012 0.515508 31.3408L28.7632 59.4897C29.0928 59.8183 29.6591 59.9984 29.9916 59.9999C30.3293 60.0015 30.9069 59.8237 31.2423 59.4894L59.4852 31.3227C59.8252 30.9836 59.9998 30.534 60.0002 30.0806L58.4419 29.3364C57.5729 29.3364 49.5022 29.3364 39.6961 29.3364L29.1809 32.7308L20.2876 29.3364C11.0632 29.3363 3.38016 29.3363 1.79227 29.3363Z" fill="#FFB739"/>
<path d="M59.9995 30.0807C59.9995 30.5336 59.8252 30.9831 59.4845 31.3225L31.2418 59.4891C30.9095 59.8215 30.337 59.9995 30 59.9995V32.466L39.696 29.3363H58.4418L59.9995 30.0807Z" fill="#FF9441"/>
<path d="M20.2876 29.3363L30.0002 59.9995L39.6961 29.3363H20.2876Z" fill="#FF9441"/>
<path d="M39.6959 29.3363L30 59.9995V29.3363H39.6959Z" fill="#FF7149"/>
<path d="M59.7055 29.1049L50.3039 15.0186C50.1738 14.8238 50.0062 14.6584 49.8132 14.5306L48.9611 14.9399L31.6264 15.0479L30 14.2375L28.6856 15.0662L11.39 15.174L10.1831 14.5324C9.99152 14.6598 9.82453 14.8247 9.69469 15.0195L0.293789 29.1235C0.0958594 29.4205 0 29.7593 0 30.0962C3.40559 30.0952 55.6015 30.0815 60 30.0804C60.0002 29.7425 59.9041 29.4025 59.7055 29.1049Z" fill="#FFD17E"/>
<path d="M59.9995 30.0807C57.8202 30.0807 43.9012 30.0854 30 30.0889V14.2375L31.6269 15.0474L48.9612 14.9397L49.8132 14.53C50.0064 14.6588 50.1737 14.8238 50.3037 15.0181L59.7059 29.1044C59.9047 29.403 60.0007 29.7424 59.9995 30.0807Z" fill="#FFB739"/>
<path d="M11.1555 14.2375C10.8045 14.2375 10.4677 14.3431 10.1836 14.5322L20.5964 30.0908H20.5976L29.9995 14.2375H11.1555Z" fill="#FFB739"/>
<path d="M39.406 30.0859L49.813 14.5304C49.5295 14.3426 49.1938 14.2377 48.8437 14.2377H29.9995L39.3985 30.086H39.406V30.0859Z" fill="#FF9441"/>
<path d="M19.503 42.342C16.5646 42.342 14.1738 39.9514 14.1738 37.0129C14.1738 36.0422 13.3868 35.2551 12.416 35.2551C11.4452 35.2551 10.6582 36.0422 10.6582 37.0129C10.6582 39.9367 8.28199 42.342 5.3291 42.342C4.35832 42.342 3.57129 43.1291 3.57129 44.0999C3.57129 45.0706 4.35832 45.8577 5.3291 45.8577C8.26758 45.8577 10.6582 48.2483 10.6582 51.1868C10.6582 52.1576 11.4452 52.9446 12.416 52.9446C13.3868 52.9446 14.1738 52.1576 14.1738 51.1868C14.1738 48.2633 16.5498 45.8577 19.503 45.8577C20.4738 45.8577 21.2609 45.0706 21.2609 44.0999C21.2609 43.1291 20.4738 42.342 19.503 42.342Z" fill="#FFD17E"/>
<path d="M46.4448 7.08691C43.5063 7.08691 41.1157 4.69629 41.1157 1.75781C41.1157 0.787031 40.3287 0 39.3579 0C38.3871 0 37.6001 0.787031 37.6001 1.75781C37.6001 4.69629 35.2096 7.08691 32.271 7.08691C31.3002 7.08691 30.5132 7.87395 30.5132 8.84473C30.5132 9.81551 31.3002 10.6025 32.271 10.6025C35.2095 10.6025 37.6001 12.9932 37.6001 15.9316C37.6001 16.9024 38.3871 17.6895 39.3579 17.6895C40.3287 17.6895 41.1157 16.9024 41.1157 15.9316C41.1157 12.9932 43.5062 10.6025 46.4448 10.6025C47.4156 10.6025 48.2026 9.81551 48.2026 8.84473C48.2026 7.87395 47.4156 7.08691 46.4448 7.08691Z" fill="#FFB739"/>
</svg>
