<svg width="80" height="80" viewBox="0 0 80 80" fill="none" xmlns="http://www.w3.org/2000/svg">
<g filter="url(#filter0_b_1522_4803)">
<circle cx="40" cy="40" r="40" fill="url(#paint0_linear_1522_4803)" fill-opacity="0.3"/>
</g>
<g clip-path="url(#clip0_1522_4803)">
<path d="M59.4984 59.5009C70.3647 48.6346 70.3647 31.0168 59.4984 20.1504C48.6321 9.2841 31.0142 9.2841 20.1479 20.1504C9.28156 31.0168 9.28156 48.6346 20.1479 59.5009C31.0142 70.3673 48.6321 70.3673 59.4984 59.5009Z" fill="url(#paint1_radial_1522_4803)"/>
<path d="M39.9723 61.5307C39.8956 61.5307 39.8454 61.5307 39.8262 61.5307C39.807 61.5307 39.7567 61.5307 39.6801 61.5307C37.9006 61.5307 22.223 60.8146 20.137 36.0241L20.125 35.8684L20.2711 35.8109C20.3453 35.7822 27.7842 32.8699 39.8262 32.8699C51.8682 32.8699 59.307 35.7798 59.3813 35.8109L59.5274 35.8684L59.513 36.0241C57.427 60.8146 41.7542 61.5307 39.9723 61.5307Z" fill="url(#paint2_linear_1522_4803)"/>
<path d="M39.9724 60.5775C39.903 60.5775 39.8647 60.5775 39.8575 60.5775H39.8263H39.7952C39.7904 60.5775 39.7497 60.5775 39.6802 60.5775C38.0038 60.5775 23.3392 59.8973 21.1406 36.5126C22.9991 35.8779 29.7746 33.8254 39.8263 33.8254C49.8781 33.8254 56.6583 35.8756 58.5121 36.5126C56.3135 59.8973 41.6513 60.5775 39.9724 60.5775Z" fill="url(#paint3_linear_1522_4803)"/>
<path d="M51.2246 55.39C46.4346 60.3404 40.9573 60.5752 39.9681 60.5752C39.8987 60.5752 39.8604 60.5752 39.8532 60.5752H39.822H39.7909C39.7861 60.5752 39.7454 60.5752 39.6783 60.5752C38.6916 60.5752 33.2143 60.3404 28.4219 55.39C30.2133 53.2441 33.6214 50.7725 39.8244 50.7725C46.0275 50.7725 49.4331 53.2417 51.227 55.3876L51.2246 55.39Z" fill="url(#paint4_linear_1522_4803)"/>
<path d="M56.7934 35.9785C56.791 37.6047 56.5611 40.0907 55.2869 40.9386C54.9636 41.1517 54.5636 41.2164 54.1828 41.1421C52.6955 40.8595 46.847 39.8441 39.8225 39.8441C32.798 39.8441 26.9494 40.8619 25.4621 41.1421C25.0813 41.214 24.6813 41.1517 24.358 40.9386C23.0815 40.0907 22.8564 37.6071 22.8516 35.9809C25.8669 35.1307 31.8016 33.8254 39.8225 33.8254C47.8433 33.8254 53.7829 35.1307 56.7934 35.9809V35.9785Z" fill="url(#paint5_linear_1522_4803)"/>
<g style="mix-blend-mode:multiply">
<path opacity="0.06" d="M59.9509 30.9468C59.9509 30.9468 61.3352 31.7683 61.3807 31.797C62.1064 32.2305 67.658 35.6122 69.0279 38.6299C69.9188 40.5938 69.5548 42.1529 69.0758 43.1277C68.5585 44.1791 67.622 45.0796 66.585 45.5514C65.548 46.0232 64.2523 46.1334 63.1195 45.8316C62.0704 45.5538 60.655 44.8018 59.7641 42.8355C58.3941 39.8202 59.5054 33.4136 59.6515 32.5826C59.6563 32.5275 59.9509 30.9468 59.9509 30.9468Z" fill="#FBF9F3"/>
<path opacity="0.12" d="M59.9487 30.9492C59.9487 30.9492 61.2731 31.7347 61.3665 31.7922C62.1736 32.276 67.6054 35.6002 68.9538 38.5581C69.8352 40.4908 69.4879 42.0332 69.0113 43.0079C68.4988 44.0546 67.5695 44.9455 66.5516 45.4101C65.5338 45.8748 64.2524 45.9921 63.1244 45.6927C62.073 45.4149 60.6815 44.6677 59.8002 42.7325C58.4518 39.7723 59.508 33.4974 59.6589 32.5682C59.6708 32.4604 59.951 30.9468 59.951 30.9468L59.9487 30.9492Z" fill="#F8F3E8"/>
<path opacity="0.19" d="M59.9462 30.9492C59.9462 30.9492 61.2107 31.6988 61.352 31.7827C62.243 32.3192 67.5503 35.5811 68.8795 38.4839C69.7513 40.3855 69.4208 41.9087 68.9442 42.8882C68.434 43.9325 67.5144 44.8114 66.5156 45.2689C65.5169 45.7263 64.25 45.8509 63.1267 45.5563C62.0729 45.2808 60.703 44.5336 59.8336 42.632C58.5044 39.7293 59.5079 33.5837 59.666 32.5587C59.6827 32.3958 59.951 30.9492 59.951 30.9492H59.9462Z" fill="#F4ECDC"/>
<path opacity="0.25" d="M59.9441 30.9516C59.9441 30.9516 61.1488 31.6629 61.3356 31.7779C62.3079 32.3647 67.4931 35.5668 68.8032 38.412C69.663 40.2825 69.354 41.7889 68.8774 42.7685C68.3721 43.8103 67.4572 44.6797 66.48 45.1276C65.5029 45.5778 64.2503 45.7071 63.127 45.4174C62.0708 45.1443 60.7249 44.3995 59.8627 42.529C58.555 39.6837 59.5034 33.6675 59.6663 32.5443C59.6902 32.3263 59.9417 30.9492 59.9417 30.9492L59.9441 30.9516Z" fill="#F1E6D1"/>
<path opacity="0.31" d="M59.9407 30.9539C59.9407 30.9539 61.0879 31.6292 61.3203 31.7729C62.3764 32.4124 67.4395 35.5522 68.728 38.3424C69.5782 40.1818 69.286 41.669 68.8118 42.6534C68.3088 43.6928 67.4035 44.5502 66.4455 44.9909C65.4875 45.434 64.2493 45.5705 63.1309 45.2831C62.0723 45.0125 60.7479 44.27 59.8976 42.4307C58.6091 39.6429 59.5025 33.756 59.6749 32.5346C59.7036 32.2639 59.9431 30.9539 59.9431 30.9539H59.9407Z" fill="#EDE0C5"/>
<path opacity="0.38" d="M59.9383 30.9539C59.9383 30.9539 61.0256 31.5933 61.3058 31.7634C62.4434 32.4531 67.3843 35.5355 68.6536 38.2658C69.4943 40.074 69.2188 41.5421 68.747 42.5288C68.2489 43.5659 67.3507 44.4113 66.4119 44.8448C65.4731 45.2807 64.2492 45.4244 63.1356 45.1418C62.077 44.8711 60.7717 44.1335 59.9335 42.3253C58.6665 39.595 59.5048 33.8374 59.682 32.5202C59.7155 32.1945 59.9407 30.9539 59.9407 30.9539H59.9383Z" fill="#EADABA"/>
<path opacity="0.44" d="M59.9346 30.9563C59.9346 30.9563 60.962 31.5574 61.2877 31.7586C62.5092 32.4986 67.3279 35.5211 68.5733 38.1939C69.402 39.9686 69.1481 41.4224 68.6763 42.4091C68.1829 43.4437 67.2896 44.2772 66.3723 44.7035C65.4526 45.1322 64.2431 45.2831 63.1319 45.0029C62.0709 44.7346 60.7896 43.997 59.9609 42.2223C58.7131 39.5471 59.4987 33.9213 59.6831 32.5058C59.7238 32.125 59.9346 30.9539 59.9346 30.9539V30.9563Z" fill="#E6D3AE"/>
<path opacity="0.5" d="M59.9326 30.9587C59.9326 30.9587 60.9002 31.524 61.2738 31.7515C62.5767 32.5442 67.2733 35.5044 68.4995 38.1222C69.3186 39.8657 69.0815 41.3003 68.6121 42.2918C68.1211 43.3241 67.2374 44.1456 66.3392 44.5671C65.4411 44.9886 64.246 45.1467 63.1371 44.8688C62.0738 44.603 60.814 43.8677 59.9949 42.1242C58.7663 39.5065 59.4992 34.01 59.6884 32.4987C59.7339 32.0628 59.9303 30.9611 59.9303 30.9611L59.9326 30.9587Z" fill="#E3CDA3"/>
<path opacity="0.56" d="M59.9285 30.9587C59.9285 30.9587 60.8386 31.488 61.2578 31.7443C62.6445 32.5873 67.2165 35.4877 68.4236 38.0479C69.2331 39.7603 69.0127 41.1782 68.5457 42.1697C68.0595 43.1995 67.183 44.009 66.304 44.4234C65.425 44.8377 64.2443 45.003 63.1402 44.7275C62.0745 44.4641 60.8386 43.7312 60.0291 42.0188C58.8221 39.4586 59.4974 34.0914 59.6962 32.482C59.7489 31.9934 59.9309 30.9587 59.9309 30.9587H59.9285Z" fill="#DFC797"/>
<path opacity="0.62" d="M59.9275 30.9612C59.9275 30.9612 60.7777 31.4522 61.2447 31.7372C62.7129 32.6305 67.1651 35.4709 68.3507 37.9761C69.1482 39.6574 68.9494 41.0561 68.4824 42.0524C68.001 43.0774 67.1292 43.8774 66.2718 44.2845C65.412 44.6917 64.2456 44.8641 63.1463 44.5935C62.0782 44.3324 60.8639 43.6019 60.0664 41.9207C58.8785 39.4179 59.5012 34.1801 59.7047 32.4724C59.7622 31.9288 59.9323 30.9612 59.9323 30.9612H59.9275Z" fill="#DBC18B"/>
<path opacity="0.69" d="M59.924 30.9612C59.924 30.9612 60.7144 31.4162 61.2269 31.73C62.7789 32.676 67.1066 35.4566 68.273 37.9019C69.0609 39.552 68.8789 40.9315 68.4119 41.9302C67.9329 42.9529 67.0707 43.7409 66.2301 44.1408C65.3918 44.5408 64.2374 44.7204 63.1405 44.4522C62.07 44.1911 60.8796 43.4654 60.0917 41.8153C58.9253 39.3676 59.493 34.2615 59.7013 32.4581C59.766 31.8593 59.9193 30.9612 59.9193 30.9612H59.924Z" fill="#D8BA80"/>
<path opacity="0.75" d="M59.9216 30.9636C59.9216 30.9636 60.6521 31.3827 61.2125 31.7252C62.8459 32.7215 67.0515 35.4423 68.1987 37.8325C68.9771 39.4515 68.8118 40.8142 68.3472 41.8153C67.873 42.8356 67.018 43.6116 66.1965 44.0043C65.3774 44.3971 64.2398 44.5839 63.1453 44.3181C62.0723 44.0594 60.9036 43.3337 60.1252 41.7171C58.978 39.3269 59.4905 34.3501 59.7085 32.4485C59.7779 31.7971 59.9192 30.966 59.9192 30.966L59.9216 30.9636Z" fill="#D4B474"/>
<path opacity="0.81" d="M59.9201 30.9658C59.9201 30.9658 60.5907 31.3466 61.199 31.7178C62.9162 32.7645 66.9997 35.4253 68.1253 37.758C68.8917 39.3435 68.748 40.6895 68.2834 41.693C67.814 42.7109 66.9638 43.4749 66.1638 43.8604C65.3639 44.246 64.2406 44.4376 63.1509 44.179C62.0756 43.9227 60.9284 43.1994 60.162 41.6139C59.0363 39.2812 59.4938 34.4338 59.7165 32.4363C59.7908 31.7298 59.9177 30.9682 59.9177 30.9682L59.9201 30.9658Z" fill="#D1AE69"/>
<path opacity="0.88" d="M59.917 30.9658C59.917 30.9658 60.5301 31.3107 61.1816 31.7107C62.9802 32.81 66.9415 35.4085 68.048 37.6838C68.8048 39.2381 68.6779 40.5673 68.2157 41.5732C67.7487 42.5887 66.908 43.3407 66.1272 43.7191C65.3465 44.0976 64.2376 44.2963 63.1503 44.0401C62.0725 43.7862 60.9493 43.0653 60.1925 41.511C59.086 39.2357 59.4907 34.5176 59.7206 32.422C59.8021 31.6604 59.9146 30.9682 59.9146 30.9682L59.917 30.9658Z" fill="#CDA85D"/>
<path opacity="0.94" d="M59.9144 30.9683C59.9144 30.9683 60.4676 31.2772 61.1669 31.7035C63.0494 32.8531 66.8886 35.3942 67.9735 37.612C68.7207 39.1352 68.6106 40.4452 68.1507 41.4535C67.6885 42.4666 66.8527 43.2067 66.0934 43.5779C65.3342 43.9491 64.2373 44.1551 63.1548 43.9012C62.0746 43.6473 60.9729 42.9312 60.2281 41.408C59.1408 39.1903 59.4928 34.6015 59.7276 32.4077C59.8138 31.5934 59.912 30.9683 59.912 30.9683H59.9144Z" fill="#CAA152"/>
<path d="M59.9126 30.9683C59.9126 30.9683 58.7918 38.3209 60.2623 41.305C61.7328 44.2868 64.5805 44.1671 66.0606 43.4366C67.5407 42.7061 69.3705 40.5219 67.8999 37.5377C66.4294 34.556 59.9126 30.9683 59.9126 30.9683Z" fill="#C69B46"/>
</g>
<path d="M59.7679 30.7886C59.7679 30.7886 58.6471 38.6513 60.2493 41.8199C61.8516 44.9885 64.8908 44.8304 66.4619 44.0353C68.0354 43.2401 69.9658 40.8882 68.3635 37.7197C66.7613 34.5511 59.7679 30.7886 59.7679 30.7886Z" fill="url(#paint6_radial_1522_4803)"/>
<g style="mix-blend-mode:multiply">
<path opacity="0.06" d="M19.6965 30.9468C19.6965 30.9468 19.9911 32.5299 19.9959 32.5826C20.1396 33.4136 21.2509 39.8202 19.8833 42.8355C18.9924 44.7994 17.577 45.5514 16.528 45.8316C15.3975 46.1334 14.1018 46.0232 13.0624 45.5514C12.0254 45.0796 11.0889 44.1767 10.5716 43.1277C10.0926 42.1529 9.72618 40.5962 10.6195 38.6299C11.9894 35.6146 17.541 32.2305 18.2667 31.797C18.3122 31.7683 19.6965 30.9468 19.6965 30.9468Z" fill="#FBF9F3"/>
<path opacity="0.12" d="M19.7005 30.9492C19.7005 30.9492 19.9807 32.4629 19.9927 32.5706C20.1436 33.4999 21.1998 39.7748 19.8514 42.735C18.97 44.6677 17.5785 45.4174 16.5271 45.6952C15.3991 45.9922 14.1178 45.8748 13.0999 45.4126C12.082 44.9479 11.1528 44.057 10.6403 43.0104C10.1613 42.0332 9.81399 40.4933 10.6977 38.5605C12.0461 35.6003 17.4756 32.2784 18.2851 31.7947C18.3785 31.7372 19.7029 30.9516 19.7029 30.9516L19.7005 30.9492Z" fill="#F8F3E8"/>
<path opacity="0.19" d="M19.7027 30.9492C19.7027 30.9492 19.9686 32.3934 19.9877 32.5587C20.1458 33.5861 21.1469 39.7293 19.8201 42.632C18.9483 44.5336 17.5784 45.2808 16.527 45.5563C15.4013 45.8509 14.1368 45.7263 13.1381 45.2689C12.1394 44.8114 11.2197 43.9325 10.7096 42.8882C10.2329 41.9087 9.90483 40.3855 10.7742 38.4839C12.1034 35.5811 17.4107 32.3192 18.3017 31.7827C18.4406 31.6965 19.7051 30.9492 19.7051 30.9492H19.7027Z" fill="#F4ECDC"/>
<path opacity="0.25" d="M19.7054 30.9517C19.7054 30.9517 19.9593 32.3288 19.9809 32.5467C20.1437 33.67 21.0921 39.6862 19.7845 42.5314C18.9247 44.4019 17.5763 45.1468 16.5201 45.4198C15.3992 45.712 14.1467 45.5803 13.1671 45.13C12.19 44.6797 11.2751 43.8128 10.7697 42.7709C10.2955 41.789 9.98418 40.2849 10.844 38.4145C12.1516 35.5692 17.3368 32.3671 18.3116 31.7803C18.4984 31.6654 19.703 30.9541 19.703 30.9541L19.7054 30.9517Z" fill="#F1E6D1"/>
<path opacity="0.31" d="M19.7073 30.9539C19.7073 30.9539 19.9468 32.2615 19.9755 32.5346C20.1456 33.756 21.0389 39.6405 19.7528 42.4283C18.9026 44.2676 17.5781 45.0077 16.5195 45.2807C15.4011 45.5681 14.1629 45.4316 13.2049 44.9885C12.2469 44.5454 11.3392 43.6904 10.8386 42.651C10.3644 41.6667 10.0722 40.1794 10.9224 38.34C12.211 35.5522 17.274 32.41 18.3302 31.7706C18.5625 31.6269 19.7097 30.9539 19.7097 30.9539H19.7073Z" fill="#EDE0C5"/>
<path opacity="0.38" d="M19.7093 30.9539C19.7093 30.9539 19.9344 32.1945 19.9679 32.5202C20.1451 33.8374 20.9834 39.595 19.7164 42.3253C18.8758 44.1335 17.5729 44.8711 16.5143 45.1418C15.4007 45.4268 14.1768 45.2807 13.238 44.8448C12.2992 44.4089 11.401 43.5659 10.9029 42.5288C10.4311 41.5421 10.1556 40.074 10.9963 38.2658C12.2632 35.5355 17.2041 32.4531 18.3441 31.7634C18.6243 31.5933 19.7117 30.9539 19.7117 30.9539H19.7093Z" fill="#EADABA"/>
<path opacity="0.44" d="M19.7147 30.9563C19.7147 30.9563 19.9254 32.1274 19.9662 32.5083C20.1506 33.9237 20.9337 39.5495 19.6883 42.2247C18.8597 43.9994 17.5783 44.7371 16.5174 45.0053C15.4061 45.2855 14.1966 45.1346 13.2769 44.7059C12.3573 44.2772 11.4663 43.4438 10.973 42.4115C10.5012 41.4224 10.2473 39.971 11.0759 38.1964C12.3237 35.5212 17.1425 32.5011 18.3639 31.761C18.6896 31.5622 19.7171 30.9587 19.7171 30.9587L19.7147 30.9563Z" fill="#E6D3AE"/>
<path opacity="0.5" d="M19.7173 30.9587C19.7173 30.9587 19.9137 32.0628 19.9592 32.4987C20.1508 34.0124 20.8813 39.5065 19.6526 42.1242C18.8335 43.8677 17.5762 44.603 16.5104 44.8688C15.4039 45.1467 14.2064 44.9886 13.3083 44.5671C12.4102 44.1456 11.524 43.3241 11.0354 42.2918C10.566 41.3003 10.3289 39.8657 11.148 38.1222C12.3766 35.5044 17.0708 32.5442 18.3761 31.7515C18.7497 31.524 19.7173 30.9587 19.7173 30.9587Z" fill="#E3CDA3"/>
<path opacity="0.56" d="M19.7195 30.9587C19.7195 30.9587 19.9015 31.9934 19.9542 32.4843C20.1506 34.0938 20.8284 39.461 19.6213 42.0212C18.8118 43.7336 17.576 44.4665 16.5102 44.7299C15.4061 45.0054 14.2254 44.8401 13.3465 44.4258C12.4675 44.0114 11.5909 43.2019 11.1047 42.1721C10.6353 41.1782 10.4174 39.7627 11.2269 38.0503C12.434 35.4901 17.0084 32.5897 18.3951 31.7467C18.8142 31.4904 19.7243 30.9611 19.7243 30.9611L19.7195 30.9587Z" fill="#DFC797"/>
<path opacity="0.62" d="M19.7214 30.9611C19.7214 30.9611 19.8915 31.9287 19.949 32.4724C20.1525 34.18 20.7752 39.4155 19.5873 41.9182C18.7898 43.5995 17.5755 44.33 16.5074 44.591C15.4057 44.8617 14.2393 44.6892 13.3819 44.2821C12.5221 43.8749 11.6527 43.0774 11.1713 42.0499C10.7043 41.0536 10.5031 39.6549 11.303 37.9737C12.491 35.4709 16.9408 32.6304 18.4114 31.7347C18.8784 31.4497 19.7262 30.9587 19.7262 30.9587L19.7214 30.9611Z" fill="#DBC18B"/>
<path opacity="0.69" d="M19.7231 30.9612C19.7231 30.9612 19.8788 31.8593 19.941 32.4581C20.1518 34.2615 20.7194 39.3676 19.5507 41.8153C18.7627 43.4654 17.5724 44.1911 16.5018 44.4522C15.4049 44.7204 14.2529 44.5408 13.4123 44.1408C12.5741 43.7409 11.7095 42.9553 11.2305 41.9302C10.7634 40.9315 10.5838 39.5496 11.3694 37.9019C12.5357 35.4542 16.8659 32.6736 18.4178 31.73C18.9304 31.4162 19.7207 30.9612 19.7207 30.9612H19.7231Z" fill="#D8BA80"/>
<path opacity="0.75" d="M19.7252 30.9636C19.7252 30.9636 19.8665 31.7946 19.936 32.4461C20.1539 34.3477 20.6665 39.3245 19.5192 41.7147C18.7409 43.3337 17.5721 44.057 16.4992 44.3156C15.4047 44.5791 14.267 44.3947 13.4479 44.0019C12.6289 43.6091 11.7715 42.8332 11.2972 41.8129C10.8326 40.8118 10.6698 39.449 11.4457 37.83C12.5929 35.4398 16.7985 32.7191 18.4343 31.7228C18.9947 31.3803 19.7252 30.9612 19.7252 30.9612V30.9636Z" fill="#D4B474"/>
<path opacity="0.81" d="M19.7279 30.966C19.7279 30.966 19.8548 31.7276 19.9291 32.4341C20.1518 34.434 20.6116 39.279 19.4836 41.6118C18.7172 43.1972 17.57 43.9205 16.4946 44.1768C15.4049 44.4378 14.2793 44.2462 13.4817 43.8583C12.6818 43.4727 11.834 42.7087 11.3622 41.6908C10.8999 40.6873 10.7539 39.3413 11.5203 37.7558C12.6459 35.4231 16.7318 32.7623 18.4466 31.7156C19.0525 31.3444 19.7231 30.9636 19.7231 30.9636L19.7279 30.966Z" fill="#D1AE69"/>
<path opacity="0.88" d="M19.7311 30.966C19.7311 30.966 19.8437 31.6606 19.9251 32.4222C20.155 34.5178 20.5598 39.2359 19.4533 41.5112C18.6965 43.0655 17.5732 43.7864 16.4955 44.0403C15.4082 44.2989 14.2993 44.0978 13.5185 43.7193C12.7378 43.3409 11.8971 42.5889 11.4301 41.5734C10.9679 40.5675 10.8409 39.2407 11.5977 37.684C12.7042 35.4087 16.6655 32.8078 18.4642 31.7085C19.118 31.3085 19.7287 30.9636 19.7287 30.9636L19.7311 30.966Z" fill="#CDA85D"/>
<path opacity="0.94" d="M19.7336 30.9683C19.7336 30.9683 19.8318 31.5934 19.9204 32.41C20.1575 34.6039 20.5072 39.1903 19.4198 41.408C18.6726 42.9312 17.5709 43.6497 16.4932 43.9012C15.4106 44.1551 14.3137 43.9491 13.5545 43.5779C12.7953 43.2067 11.9594 42.4666 11.4972 41.4535C11.0374 40.4452 10.9272 39.1352 11.6744 37.612C12.7618 35.3942 16.6009 32.8531 18.481 31.7035C19.1803 31.2748 19.7336 30.9683 19.7336 30.9683Z" fill="#CAA152"/>
<path d="M19.7362 30.9683C19.7362 30.9683 20.857 38.3209 19.3865 41.305C17.916 44.2868 15.0683 44.1671 13.5882 43.4366C12.1081 42.7061 10.2784 40.5219 11.7489 37.5377C13.2194 34.556 19.7362 30.9683 19.7362 30.9683Z" fill="#C69B46"/>
</g>
<path d="M19.8792 30.7886C19.8792 30.7886 21.0001 38.6513 19.3978 41.8199C17.7956 44.9885 14.7563 44.8304 13.1852 44.0353C11.6117 43.2401 9.68133 40.8882 11.2836 37.7197C12.8858 34.5511 19.8792 30.7886 19.8792 30.7886Z" fill="url(#paint7_radial_1522_4803)"/>
<path d="M57.4547 30.0438C57.2056 30.0319 56.9638 29.9576 56.753 29.8283L51.4888 26.5759C51.3858 26.5112 51.2661 26.4753 51.1439 26.4705C50.9978 26.4633 50.8565 26.5016 50.7344 26.5783L47.4341 28.6404C46.7036 29.0763 46.1815 29.3229 45.6738 29.3014C45.0463 29.2727 44.5122 28.8296 43.8895 27.8213C43.4009 27.0285 43.2405 26.3603 43.3985 25.776C43.6165 24.9784 44.4164 24.4683 45.1684 24.0731C46.1743 23.5462 49.9919 22.0302 50.1548 21.9655L50.435 21.8482C50.6889 21.7428 50.9571 21.6949 51.2325 21.7069C51.6541 21.726 52.0612 21.8889 52.3773 22.1643L58.4439 27.4692C59.0498 27.9985 59.1408 28.8895 58.6546 29.5002C58.3648 29.8642 57.9146 30.0678 57.4499 30.0486L57.4547 30.0438Z" fill="url(#paint8_linear_1522_4803)"/>
<path d="M58.2975 27.6369L52.2309 22.3319C51.7759 21.9368 51.1173 21.8051 50.5233 22.0541L50.2383 22.1739C50.2383 22.1739 46.2818 23.745 45.2735 24.2719C43.8197 25.0335 42.9551 25.8765 44.0832 27.6991C45.1825 29.4786 45.8746 29.3062 47.314 28.4464L50.6143 26.3867C50.9185 26.1975 51.3041 26.1951 51.6082 26.3867L56.8724 29.6391C57.3898 29.96 58.0843 29.857 58.4819 29.3589C58.8962 28.8391 58.798 28.0775 58.2975 27.6392V27.6369Z" fill="url(#paint9_radial_1522_4803)"/>
<path d="M22.1935 30.0438C22.4426 30.0319 22.6845 29.9576 22.8952 29.8283L28.1594 26.5759C28.2624 26.5112 28.3821 26.4753 28.5043 26.4705C28.6504 26.4633 28.7917 26.5016 28.9138 26.5783L32.2141 28.6404C32.9446 29.0763 33.4667 29.3229 33.9744 29.3014C34.6019 29.2727 35.136 28.8296 35.7587 27.8213C36.2473 27.0285 36.4078 26.3603 36.2497 25.776C36.0317 24.9784 35.2318 24.4683 34.4798 24.0731C33.4739 23.5462 29.6563 22.0302 29.4934 21.9655L29.2132 21.8482C28.9593 21.7428 28.6911 21.6949 28.4157 21.7069C27.9942 21.726 27.587 21.8889 27.2709 22.1643L21.2044 27.4692C20.5984 27.9985 20.5074 28.8895 20.9936 29.5002C21.2834 29.8642 21.7337 30.0678 22.1983 30.0486L22.1935 30.0438Z" fill="url(#paint10_linear_1522_4803)"/>
<path d="M21.3497 27.6369L27.4162 22.3319C27.8712 21.9368 28.5299 21.8051 29.1238 22.0541L29.4088 22.1739C29.4088 22.1739 33.3653 23.745 34.3736 24.2719C35.8274 25.0335 36.692 25.8765 35.5639 27.6991C34.4646 29.4786 33.7725 29.3062 32.3331 28.4464L29.0328 26.3867C28.7286 26.1975 28.343 26.1951 28.0389 26.3867L22.7747 29.6391C22.2574 29.96 21.5628 29.857 21.1653 29.3589C20.7509 28.8391 20.8491 28.0775 21.3497 27.6392V27.6369Z" fill="url(#paint11_radial_1522_4803)"/>
</g>
<defs>
<filter id="filter0_b_1522_4803" x="-6" y="-6" width="92" height="92" filterUnits="userSpaceOnUse" color-interpolation-filters="sRGB">
<feFlood flood-opacity="0" result="BackgroundImageFix"/>
<feGaussianBlur in="BackgroundImageFix" stdDeviation="3"/>
<feComposite in2="SourceAlpha" operator="in" result="effect1_backgroundBlur_1522_4803"/>
<feBlend mode="normal" in="SourceGraphic" in2="effect1_backgroundBlur_1522_4803" result="shape"/>
</filter>
<linearGradient id="paint0_linear_1522_4803" x1="-7.45058e-08" y1="40" x2="80" y2="40" gradientUnits="userSpaceOnUse">
<stop stop-color="white"/>
<stop offset="1" stop-color="white" stop-opacity="0.88"/>
</linearGradient>
<radialGradient id="paint1_radial_1522_4803" cx="0" cy="0" r="1" gradientUnits="userSpaceOnUse" gradientTransform="translate(46.182 33.4316) rotate(179.59) scale(40.2263)">
<stop stop-color="#FFF19E"/>
<stop offset="0.52" stop-color="#FDCA47"/>
<stop offset="1" stop-color="#EF7A1B"/>
</radialGradient>
<linearGradient id="paint2_linear_1522_4803" x1="39.8238" y1="32.2687" x2="39.8238" y2="62.1798" gradientUnits="userSpaceOnUse">
<stop offset="0.49" stop-color="#40070E"/>
<stop offset="1" stop-color="#6B080F"/>
</linearGradient>
<linearGradient id="paint3_linear_1522_4803" x1="39.8239" y1="33.2626" x2="39.8239" y2="61.181" gradientUnits="userSpaceOnUse">
<stop offset="0.33" stop-color="#40070E"/>
<stop offset="0.4" stop-color="#49070E"/>
<stop offset="0.59" stop-color="#5C070E"/>
<stop offset="0.79" stop-color="#67070E"/>
<stop offset="1" stop-color="#6B080F"/>
</linearGradient>
<linearGradient id="paint4_linear_1522_4803" x1="39.822" y1="50.6192" x2="39.822" y2="60.8482" gradientUnits="userSpaceOnUse">
<stop stop-color="#C4243E"/>
<stop offset="1" stop-color="#D43F5A"/>
</linearGradient>
<linearGradient id="paint5_linear_1522_4803" x1="22.5378" y1="37.4994" x2="57.3011" y2="37.4994" gradientUnits="userSpaceOnUse">
<stop stop-color="#CBCDCE"/>
<stop offset="0.2" stop-color="#E0E1E1"/>
<stop offset="0.52" stop-color="white"/>
<stop offset="1" stop-color="#CBCDCE"/>
</linearGradient>
<radialGradient id="paint6_radial_1522_4803" cx="0" cy="0" r="1" gradientUnits="userSpaceOnUse" gradientTransform="translate(62.9503 38.2048) rotate(-26.81) scale(6.59341 9.89011)">
<stop offset="0.31" stop-color="#87FFF5"/>
<stop offset="0.44" stop-color="#6BEEF7"/>
<stop offset="0.7" stop-color="#38D1FB"/>
<stop offset="0.89" stop-color="#18BEFE"/>
<stop offset="1" stop-color="#0DB8FF"/>
</radialGradient>
<radialGradient id="paint7_radial_1522_4803" cx="0" cy="0" r="1" gradientUnits="userSpaceOnUse" gradientTransform="translate(16.5234 38.54) rotate(-153.19) scale(6.59341 9.89011)">
<stop offset="0.31" stop-color="#87FFF5"/>
<stop offset="0.44" stop-color="#6BEEF7"/>
<stop offset="0.7" stop-color="#38D1FB"/>
<stop offset="0.89" stop-color="#18BEFE"/>
<stop offset="1" stop-color="#0DB8FF"/>
</radialGradient>
<linearGradient id="paint8_linear_1522_4803" x1="43.3787" y1="25.3861" x2="59.0865" y2="26.0802" gradientUnits="userSpaceOnUse">
<stop stop-color="#FFD71B"/>
<stop offset="1" stop-color="#E69900"/>
</linearGradient>
<radialGradient id="paint9_radial_1522_4803" cx="0" cy="0" r="1" gradientUnits="userSpaceOnUse" gradientTransform="translate(51.9035 26.1416) rotate(2.53) scale(7.07001 7.07001)">
<stop stop-color="#693718"/>
<stop offset="0.38" stop-color="#653415"/>
<stop offset="0.73" stop-color="#592C0F"/>
<stop offset="1" stop-color="#4C2207"/>
</radialGradient>
<linearGradient id="paint10_linear_1522_4803" x1="36.2522" y1="25.3441" x2="20.5444" y2="26.0381" gradientUnits="userSpaceOnUse">
<stop stop-color="#FFD71B"/>
<stop offset="1" stop-color="#E69900"/>
</linearGradient>
<radialGradient id="paint11_radial_1522_4803" cx="0" cy="0" r="1" gradientUnits="userSpaceOnUse" gradientTransform="translate(27.7263 26.0995) rotate(177.47) scale(7.07001 7.07001)">
<stop stop-color="#693718"/>
<stop offset="0.38" stop-color="#653415"/>
<stop offset="0.73" stop-color="#592C0F"/>
<stop offset="1" stop-color="#4C2207"/>
</radialGradient>
<clipPath id="clip0_1522_4803">
<rect width="59.6472" height="55.65" fill="white" transform="translate(10 12)"/>
</clipPath>
</defs>
</svg>
