<svg width="262" height="46" viewBox="0 0 262 46" fill="none" xmlns="http://www.w3.org/2000/svg">
<g clip-path="url(#clip0_1633_10290)">
<path d="M20 43C31.0457 43 40 34.0457 40 23C40 11.9543 31.0457 3 20 3C8.95431 3 0 11.9543 0 23C0 34.0457 8.95431 43 20 43Z" fill="#0B69C7"/>
<path d="M29.5999 32.5997V25.5677C29.5999 22.1117 28.8559 19.4717 24.8239 19.4717C22.8799 19.4717 21.5839 20.5277 21.0559 21.5357H21.0079V19.7837H17.1919V32.5997H21.1759V26.2397C21.1759 24.5597 21.4879 22.9517 23.5519 22.9517C25.5919 22.9517 25.6159 24.8477 25.6159 26.3357V32.5757H29.5999V32.5997Z" fill="white"/>
<path d="M10.7119 19.7837H14.6959V32.5997H10.7119V19.7837Z" fill="white"/>
<path d="M12.7039 13.3999C11.4319 13.3999 10.3999 14.4319 10.3999 15.7039C10.3999 16.9759 11.4319 18.0319 12.7039 18.0319C13.9759 18.0319 15.0079 16.9759 15.0079 15.7039C15.0079 14.4319 13.9759 13.3999 12.7039 13.3999Z" fill="white"/>
</g>
<circle cx="92" cy="23.0278" r="20" fill="#1877F2"/>
<path d="M89.2512 24.5103C89.1648 24.5103 87.265 24.5103 86.4014 24.5103C85.9408 24.5103 85.7969 24.3376 85.7969 23.9058C85.7969 22.7544 85.7969 21.5741 85.7969 20.4227C85.7969 19.9621 85.9696 19.8182 86.4014 19.8182H89.2512C89.2512 19.7318 89.2512 18.0623 89.2512 17.285C89.2512 16.1336 89.4527 15.0397 90.0284 14.0322C90.6329 12.9959 91.4965 12.3051 92.5904 11.902C93.31 11.643 94.0297 11.5278 94.8069 11.5278H97.6279C98.0309 11.5278 98.2036 11.7005 98.2036 12.1036V15.3852C98.2036 15.7882 98.0309 15.9609 97.6279 15.9609C96.8507 15.9609 96.0735 15.9609 95.2962 15.9897C94.519 15.9897 94.116 16.3639 94.116 17.1699C94.0872 18.0335 94.116 18.8683 94.116 19.7606H97.4552C97.9158 19.7606 98.0885 19.9333 98.0885 20.3939V23.877C98.0885 24.3376 97.9446 24.4815 97.4552 24.4815C96.4189 24.4815 94.2024 24.4815 94.116 24.4815V33.8658C94.116 34.3551 93.9721 34.5278 93.4539 34.5278C92.2449 34.5278 91.0647 34.5278 89.8557 34.5278C89.4239 34.5278 89.2512 34.3551 89.2512 33.9233C89.2512 30.9008 89.2512 24.5967 89.2512 24.5103Z" fill="white"/>
<path d="M167 43.2148C178.164 43.2148 187.215 34.1644 187.215 23C187.215 11.8357 178.164 2.78516 167 2.78516C155.836 2.78516 146.785 11.8357 146.785 23C146.785 34.1644 155.836 43.2148 167 43.2148Z" fill="url(#paint0_linear_1633_10290)"/>
<path d="M171.294 11.7695H162.714C158.887 11.7695 155.778 14.8781 155.778 18.7055V27.2855C155.778 31.1129 158.887 34.2215 162.714 34.2215H171.294C175.122 34.2215 178.23 31.1129 178.23 27.2855V18.7055C178.23 14.8781 175.122 11.7695 171.294 11.7695ZM175.724 27.2945C175.724 29.7383 173.738 31.7328 171.285 31.7328H162.705C160.262 31.7328 158.267 29.7473 158.267 27.2945V18.7145C158.267 16.2707 160.253 14.2762 162.705 14.2762H171.285C173.729 14.2762 175.724 16.2617 175.724 18.7145V27.2945Z" fill="white"/>
<path d="M167 17.2588C163.837 17.2588 161.259 19.8373 161.259 22.9998C161.259 26.1623 163.837 28.7408 167 28.7408C170.162 28.7408 172.741 26.1623 172.741 22.9998C172.741 19.8373 170.162 17.2588 167 17.2588ZM167 26.4857C165.077 26.4857 163.514 24.9225 163.514 22.9998C163.514 21.0771 165.077 19.5139 167 19.5139C168.922 19.5139 170.486 21.0771 170.486 22.9998C170.486 24.9225 168.922 26.4857 167 26.4857Z" fill="white"/>
<path d="M173.178 17.8886C173.707 17.8028 174.066 17.3045 173.98 16.7756C173.895 16.2467 173.396 15.8874 172.867 15.9732C172.338 16.0589 171.979 16.5572 172.065 17.0861C172.151 17.615 172.649 17.9743 173.178 17.8886Z" fill="white"/>
<g clip-path="url(#clip1_1633_10290)">
<path d="M242 43C253.046 43 262 34.0457 262 23C262 11.9543 253.046 3 242 3C230.954 3 222 11.9543 222 23C222 34.0457 230.954 43 242 43Z" fill="#03A9F4"/>
<path d="M254.5 15.2465C253.559 15.6572 252.565 15.9301 251.546 16.0567C252.62 15.42 253.422 14.4114 253.802 13.2222C252.797 13.8186 251.697 14.2387 250.55 14.4642C249.848 13.7128 248.935 13.1902 247.932 12.9643C246.928 12.7385 245.88 12.82 244.923 13.1981C243.966 13.5762 243.145 14.2334 242.567 15.0843C241.989 15.9353 241.68 16.9405 241.681 17.9692C241.678 18.3619 241.718 18.7537 241.801 19.1375C239.761 19.0374 237.766 18.508 235.944 17.5841C234.123 16.6603 232.518 15.3626 231.232 13.7759C230.571 14.9046 230.367 16.2431 230.66 17.5177C230.953 18.7923 231.722 19.9069 232.809 20.6335C231.998 20.6117 231.203 20.3947 230.493 20.0011V20.057C230.495 21.2401 230.905 22.3864 231.653 23.3032C232.401 24.2199 233.441 24.8512 234.6 25.091C234.162 25.2062 233.71 25.2626 233.256 25.2586C232.93 25.2647 232.604 25.2357 232.284 25.1723C232.616 26.1898 233.255 27.0795 234.113 27.719C234.971 28.3585 236.006 28.7163 237.076 28.7434C235.263 30.1606 233.028 30.9304 230.727 30.9302C230.317 30.9337 229.907 30.9099 229.5 30.8591C231.847 32.372 234.582 33.1713 237.374 33.1602C246.809 33.1602 251.968 25.345 251.968 18.5712C251.968 18.3451 251.968 18.1267 251.95 17.9082C252.955 17.1832 253.819 16.2812 254.5 15.2465Z" fill="white"/>
</g>
<defs>
<linearGradient id="paint0_linear_1633_10290" x1="151.608" y1="38.3921" x2="180.335" y2="9.66458" gradientUnits="userSpaceOnUse">
<stop stop-color="#FEE411"/>
<stop offset="0.0518459" stop-color="#FEDB16"/>
<stop offset="0.1381" stop-color="#FEC125"/>
<stop offset="0.2481" stop-color="#FE983D"/>
<stop offset="0.3762" stop-color="#FE5F5E"/>
<stop offset="0.5" stop-color="#FE2181"/>
<stop offset="1" stop-color="#9000DC"/>
</linearGradient>
<clipPath id="clip0_1633_10290">
<rect width="40" height="40" fill="white" transform="translate(0 3)"/>
</clipPath>
<clipPath id="clip1_1633_10290">
<rect width="40" height="40" fill="white" transform="translate(222 3)"/>
</clipPath>
</defs>
</svg>
