<svg width="240" height="24" viewBox="0 0 240 24" fill="none" xmlns="http://www.w3.org/2000/svg">
<g clip-path="url(#clip0_951_680)">
<mask id="mask0_951_680" style="mask-type:luminance" maskUnits="userSpaceOnUse" x="216" y="0" width="24" height="24">
<path d="M216 0H240V24H216V0Z" fill="white"/>
</mask>
<g mask="url(#mask0_951_680)">
<path d="M235.716 4.28498C233.656 2.22423 230.914 1.09082 228.001 1.09082C225.088 1.09082 222.35 2.22423 220.29 4.28498C218.226 6.34573 217.092 9.08481 217.092 11.9999C217.092 14.915 218.226 17.6541 220.29 19.7148C222.35 21.7713 225.088 22.909 228.001 22.909C230.914 22.909 233.652 21.7756 235.711 19.7148C237.776 17.6541 238.91 14.915 238.91 11.9999C238.91 9.08481 237.776 6.34573 235.716 4.28498ZM236.513 8.49663H232.466C232.462 8.48376 232.462 8.47087 232.458 8.45799C232.065 6.32426 231.489 4.52969 231.042 3.3233C233.519 4.19053 235.515 6.08813 236.513 8.49663ZM226.768 2.89397C227.174 2.83816 227.583 2.81241 228.001 2.81241C228.346 2.81241 228.683 2.83387 229.016 2.86822C229.383 3.72257 230.206 5.82624 230.726 8.49663H225.446C225.89 5.52572 226.628 3.30612 226.768 2.89397ZM218.798 11.9999C218.798 11.3903 218.857 10.7936 218.973 10.2139H223.523C223.365 11.9355 223.352 13.5927 223.485 15.1512H219.356C218.994 14.168 218.798 13.1075 218.798 11.9999ZM220.201 16.8685H223.698C223.911 18.1779 224.231 19.4143 224.666 20.5606C222.811 19.8393 221.246 18.5299 220.201 16.8685ZM223.723 8.49663H219.493C220.474 6.13107 222.414 4.26351 224.824 3.37481C224.504 4.47388 224.035 6.28991 223.723 8.49663ZM229.229 21.1058C228.828 21.1574 228.419 21.1874 228.005 21.1874C227.579 21.1874 227.161 21.1574 226.747 21.1015C226.099 19.7449 225.681 18.3067 225.434 16.8685H230.811C230.509 18.2981 230.005 19.7363 229.229 21.1058ZM231.076 15.1512H225.203C225.045 13.3952 225.097 11.6994 225.237 10.2139H231.003C231.191 11.7037 231.263 13.3995 231.076 15.1512ZM231.425 20.5305C231.929 19.3842 232.308 18.1607 232.551 16.8685H235.805C234.778 18.5084 233.242 19.8007 231.425 20.5305ZM232.799 15.1512L232.811 14.9966C232.948 13.4767 232.918 11.8711 232.722 10.2139H237.034C237.149 10.7936 237.208 11.3903 237.208 11.9999C237.208 13.1075 237.012 14.168 236.65 15.1512H232.799Z" fill="#A6C2E9"/>
</g>
</g>
<g clip-path="url(#clip1_951_680)">
<path d="M185.506 6.23876C185.229 5.21063 184.418 4.4002 183.39 4.12335C181.512 3.60938 174 3.60938 174 3.60938C174 3.60938 166.488 3.60938 164.609 4.10376C163.601 4.38043 162.771 5.21081 162.494 6.23876C162 8.11668 162 12.0113 162 12.0113C162 12.0113 162 15.9255 162.494 17.7839C162.771 18.8118 163.581 19.6224 164.61 19.8993C166.507 20.4133 174 20.4133 174 20.4133C174 20.4133 181.512 20.4133 183.39 19.9189C184.418 19.6422 185.229 18.8316 185.506 17.8037C186 15.9255 186 12.0311 186 12.0311C186 12.0311 186.02 8.11668 185.506 6.23876Z" fill="#A6C2E9"/>
<path d="M171.607 15.6093L177.854 12.0113L171.607 8.41333V15.6093Z" fill="#14243E"/>
</g>
<g clip-path="url(#clip2_951_680)">
<path d="M124.611 4.5957C124.545 4.5957 124.318 4.62811 124.105 4.66753C123.164 4.84303 117.617 5.97353 117.522 6.00951C117.376 6.06499 117.23 6.19655 117.162 6.33649L117.103 6.45514C117.103 6.45514 117.076 14.8473 117.033 14.9417C116.969 15.0856 116.825 15.2217 116.693 15.2651C116.63 15.2857 116.382 15.3427 116.142 15.3916C115.03 15.6181 114.616 15.7814 114.266 16.1329C114.068 16.3323 113.921 16.6046 113.857 16.8902C113.796 17.1634 113.817 17.5721 113.903 17.8205C114.084 18.3389 114.485 18.7064 115.025 18.8479C115.534 18.9812 116.488 18.8327 116.976 18.5442C117.179 18.4235 117.442 18.1703 117.578 17.9621C117.632 17.8797 117.713 17.7137 117.759 17.5932C117.918 17.1711 117.923 9.65285 117.943 9.55809C117.977 9.39755 118.085 9.27986 118.232 9.24004C118.366 9.20406 123.707 8.12328 123.857 8.10185C123.998 8.0818 124.132 8.1322 124.196 8.23026C124.24 8.29631 124.347 13.483 124.202 13.6557C124.096 13.7815 123.876 13.83 123.333 13.9436C122.507 14.116 122.224 14.1979 121.908 14.356C121.513 14.5534 121.294 14.7699 121.124 15.1291C121.005 15.3832 120.96 15.5738 120.96 15.8268C120.961 16.2791 121.113 16.6327 121.457 16.9787C121.694 17.2165 121.91 17.3412 122.208 17.4114C122.543 17.4904 123.225 17.4383 123.692 17.2982C124.352 17.0999 124.819 16.6193 125.01 15.9403C125.047 15.8077 125.066 15.6712 125.066 15.5334C125.067 14.0422 125.072 5.00096 125.052 4.93244C124.99 4.71779 124.829 4.59529 124.611 4.5957Z" fill="#A6C2E9"/>
<path d="M119.988 0.738281C113.775 0.738281 108.738 5.77496 108.738 11.9883C108.738 18.2016 113.775 23.2383 119.988 23.2383C126.202 23.2383 131.238 18.2016 131.238 11.9883C131.238 5.77496 126.202 0.738281 119.988 0.738281ZM119.988 22.2933C114.297 22.2933 109.683 17.6795 109.683 11.9883C109.683 6.29709 114.297 1.68324 119.988 1.68324C125.679 1.68324 130.293 6.29709 130.293 11.9883C130.293 17.6795 125.679 22.2933 119.988 22.2933Z" fill="#A6C2E9"/>
</g>
<path d="M66 8C63.7944 8 62 9.79439 62 12C62 14.2056 63.7944 16 66 16C68.2056 16 70 14.2056 70 12C70 9.79443 68.2056 8 66 8Z" fill="#A6C2E9"/>
<path d="M70.969 1H61.031C57.7055 1 55 3.70548 55 7.03101V16.969C55 20.2946 57.7055 23 61.031 23H70.969C74.2946 23 77 20.2945 77 16.969V7.03101C77 3.70548 74.2946 1 70.969 1ZM66 18.0342C62.6727 18.0342 59.9659 15.3273 59.9659 12C59.9659 8.67272 62.6728 5.9659 66 5.9659C69.3272 5.9659 72.0342 8.67276 72.0342 12C72.0342 15.3272 69.3272 18.0342 66 18.0342ZM72.3951 7.43827C71.3842 7.43827 70.5618 6.61584 70.5618 5.60496C70.5618 4.59408 71.3842 3.77161 72.3951 3.77161C73.406 3.77161 74.2284 4.59404 74.2284 5.60492C74.2284 6.6158 73.406 7.43827 72.3951 7.43827Z" fill="#A6C2E9"/>
<path d="M13.6264 21.8183V12.8618H16.8415L17.3239 9.37033H13.6264V7.14151C13.6264 6.13095 13.9254 5.44227 15.4776 5.44227L17.454 5.44151V2.31858C17.1122 2.27707 15.939 2.18188 14.5734 2.18188C11.7219 2.18188 9.76975 3.80872 9.76975 6.79571V9.37033H6.54492V12.8618H9.76975V21.8183H13.6264Z" fill="#A6C2E9"/>
<defs>
<clipPath id="clip0_951_680">
<rect width="24" height="24" fill="white" transform="translate(216)"/>
</clipPath>
<clipPath id="clip1_951_680">
<rect width="24" height="24" fill="white" transform="translate(162)"/>
</clipPath>
<clipPath id="clip2_951_680">
<rect width="24" height="24" fill="white" transform="translate(108)"/>
</clipPath>
</defs>
</svg>
