<svg width="40" height="40" viewBox="0 0 40 40" fill="none" xmlns="http://www.w3.org/2000/svg">
<path d="M26.3788 33.9889C25.8352 33.9889 25.3424 33.6695 25.1171 33.1679L25.117 33.1677L19.4502 20.5484L6.83094 14.8816C6.31906 14.6516 5.99695 14.1434 6.01016 13.5868C6.02297 13.0492 6.3532 12.5752 6.85156 12.3791L38.147 0.0702386C38.6504 -0.12773 39.2262 -0.00437075 39.6147 0.384145C40.003 0.77266 40.1262 1.34868 39.9283 1.85164L27.6195 33.1471C27.4234 33.6455 26.9494 33.9757 26.4118 33.9885C26.4009 33.9888 26.3898 33.9889 26.3788 33.9889ZM9.70836 13.6901L20.6809 18.6173C20.993 18.7577 21.2416 19.0064 21.3813 19.3179L26.3085 30.2902L37.0703 2.92829L9.70836 13.6901Z" fill="#081A34"/>
<path d="M20.2822 20.849C19.9923 20.849 19.7024 20.7384 19.4812 20.5172C19.0388 20.0748 19.0388 19.3575 19.4812 18.9152L26.5197 11.8767C26.962 11.4343 27.6794 11.4343 28.1217 11.8767C28.5641 12.3192 28.5641 13.0363 28.1217 13.4788L21.0833 20.5172C20.8621 20.7384 20.5722 20.849 20.2822 20.849Z" fill="#081A34"/>
<path d="M6.9468 34.1845C6.65687 34.1845 6.36695 34.0739 6.14578 33.8527C5.70336 33.4104 5.70336 32.693 6.14578 32.2507L14.2634 24.133C14.7058 23.6907 15.4231 23.6907 15.8655 24.133C16.3079 24.5754 16.3079 25.2927 15.8655 25.7351L7.74781 33.8527C7.52664 34.0739 7.23672 34.1845 6.9468 34.1845Z" fill="#081A34"/>
<path d="M12.4209 39.9872C12.131 39.9872 11.8411 39.8766 11.6199 39.6554C11.1775 39.2131 11.1775 38.4957 11.6199 38.0534L16.8494 32.8239C17.2917 32.3816 18.009 32.3816 18.4514 32.8239C18.8938 33.2663 18.8938 33.9836 18.4514 34.426L13.2219 39.6554C13.0008 39.8766 12.7108 39.9872 12.4209 39.9872Z" fill="#081A34"/>
<path d="M1.13625 28.7021C0.846328 28.7021 0.556484 28.5916 0.335234 28.3703C-0.107188 27.928 -0.107188 27.2106 0.335234 26.7683L5.56469 21.5388C6.00711 21.0964 6.7243 21.0964 7.16672 21.5388C7.60914 21.9812 7.60914 22.6985 7.16672 23.1409L1.93727 28.3703C1.71609 28.5915 1.42609 28.7021 1.13625 28.7021Z" fill="#081A34"/>
</svg>
