<svg width="18" height="20" viewBox="0 0 18 20" fill="none" xmlns="http://www.w3.org/2000/svg">
<path d="M12.0147 9.27363C13.2945 8.34031 14.1278 6.82984 14.1278 5.1282C14.1278 2.30051 11.8273 0 8.99961 0C6.17191 0 3.87141 2.30051 3.87141 5.1282C3.87141 6.82984 4.70473 8.34031 5.98449 9.27363C2.80324 10.491 0.538086 13.5754 0.538086 17.1795C0.538086 18.7347 1.80336 20 3.35859 20H14.6406C16.1959 20 17.4611 18.7347 17.4611 17.1795C17.4611 13.5754 15.196 10.491 12.0147 9.27363ZM5.40988 5.1282C5.40988 3.14883 7.02023 1.53848 8.99961 1.53848C10.979 1.53848 12.5893 3.14883 12.5893 5.1282C12.5893 7.10758 10.979 8.71797 8.99961 8.71797C7.02023 8.71797 5.40988 7.10758 5.40988 5.1282ZM14.6406 18.4615H3.35859C2.65168 18.4615 2.07656 17.8864 2.07656 17.1795C2.07656 13.362 5.18219 10.2564 8.99965 10.2564C12.8171 10.2564 15.9227 13.362 15.9227 17.1795C15.9227 17.8864 15.3476 18.4615 14.6406 18.4615Z" fill="#A6C2E9"/>
</svg>
