<svg width="22" height="22" viewBox="0 0 22 22" fill="none" xmlns="http://www.w3.org/2000/svg">
<g clip-path="url(#clip0_1625_5090)">
<path d="M11 4.05859C8.88428 4.05859 7.16284 5.77986 7.16284 7.89574C7.16284 10.0114 8.88428 11.7327 11 11.7327C13.1157 11.7327 14.8371 10.0114 14.8371 7.89574C14.8371 5.77986 13.1157 4.05859 11 4.05859Z" fill="#A6C2E9"/>
<path d="M11 0C4.93452 0 0 4.93452 0 11C0 13.8064 1.05693 16.3701 2.7928 18.3156C3.16458 16.6831 4.01775 15.1936 5.2635 14.0333C6.13782 13.2189 7.16084 12.6095 8.26662 12.2305C6.82985 11.3213 5.87379 9.71815 5.87379 7.89584C5.87379 5.06914 8.17346 2.76964 11 2.76964C13.8265 2.76964 16.126 5.06914 16.126 7.89584C16.126 9.71732 15.1708 11.3199 13.7351 12.2293C14.9328 12.6395 16.0307 13.3206 16.9523 14.2423C18.0784 15.3684 18.8559 16.7838 19.2064 18.3163C20.9429 16.3708 22 13.8067 22 11C22 4.93452 17.0655 0 11 0Z" fill="#A6C2E9"/>
<path d="M3.91455 19.4068C5.83002 21.0239 8.3029 22.0001 11 22.0001C13.6972 22.0001 16.17 21.0237 18.0855 19.4068C17.9091 17.8042 17.1889 16.3018 16.041 15.1539C14.6942 13.8071 12.9039 13.0654 11 13.0654C7.37387 13.0654 4.30815 15.8317 3.91455 19.4068Z" fill="#A6C2E9"/>
</g>
<defs>
<clipPath id="clip0_1625_5090">
<rect width="22" height="22" fill="white"/>
</clipPath>
</defs>
</svg>
