<svg width="14" height="14" viewBox="0 0 14 14" fill="none" xmlns="http://www.w3.org/2000/svg">
<path d="M9.91867 0.650879C9.26589 0.650879 8.64201 0.80052 8.06437 1.09567C7.67116 1.29655 7.30996 1.56345 7 1.88011C6.69004 1.56345 6.32884 1.29655 5.93562 1.09567C5.35796 0.80052 4.73408 0.650879 4.0813 0.650879C1.83088 0.650879 0 2.48176 0 4.73221C0 6.32616 0.841819 8.01906 2.50205 9.76396C3.88825 11.2209 5.58539 12.4353 6.765 13.1976L7 13.3494L7.235 13.1976C8.41461 12.4353 10.1118 11.2209 11.498 9.76396C13.1582 8.01906 14 6.32616 14 4.73221C14 2.48176 12.1691 0.650879 9.91867 0.650879Z" fill="white"/>
</svg>
