<svg width="82" height="82" viewBox="0 0 82 82" fill="none" xmlns="http://www.w3.org/2000/svg">
<g filter="url(#filter0_d_1625_4939)">
<circle cx="41" cy="37" r="36" fill="#081A34"/>
<circle cx="41" cy="37" r="35.5" stroke="#A6C2E9"/>
</g>
<path d="M52.5748 40.3982C50.2888 40.3982 48.4258 42.2567 48.4258 44.5427C48.4258 46.8287 50.2888 48.6917 52.5748 48.6917C54.8608 48.6917 56.7193 46.8287 56.7193 44.5427C56.7193 42.2567 54.8608 40.3982 52.5748 40.3982Z" fill="#A6C2E9"/>
<path d="M29.7056 40.3982C27.4196 40.3982 25.5566 42.2567 25.5566 44.5427C25.5566 46.8287 27.4196 48.6917 29.7056 48.6917C31.9916 48.6917 33.8501 46.8287 33.8501 44.5427C33.8501 42.2567 31.9916 40.3982 29.7056 40.3982Z" fill="#A6C2E9"/>
<path d="M60.4001 39.9166C59.9051 39.9166 59.5001 39.5116 59.5001 39.0166C59.5001 38.5216 59.9051 38.1166 60.4001 38.1166H62.6546V37.3561C62.6546 35.8441 61.6286 34.5391 60.1616 34.1836C60.1526 34.1791 60.1391 34.1791 60.1256 34.1746C57.8981 33.5581 55.6031 33.1261 53.2946 32.8876L48.2501 27.8476C47.3861 26.9836 45.7571 26.3086 44.5421 26.3086H33.5036C33.4946 26.3086 33.4901 26.3086 33.4811 26.3086C33.4721 26.3086 33.4631 26.3086 33.4496 26.3086C32.2256 26.3266 30.6596 26.9791 29.7911 27.8431L24.7871 32.8561H23.0501C21.5606 32.8561 20.3501 34.0666 20.3501 35.5561V37.0996H22.5731C23.0681 37.0996 23.4731 37.5046 23.4731 37.9996C23.4731 38.4946 23.0681 38.8996 22.5731 38.8996H20.3501V42.7516C20.3501 44.2366 21.5561 45.4426 23.0411 45.4426H23.3111C23.8061 45.4426 24.2111 45.0376 24.2111 44.5426C24.2111 41.5141 26.6771 39.0481 29.7101 39.0481C32.7431 39.0481 35.2091 41.5141 35.2091 44.5426C35.2091 45.0376 35.6141 45.4426 36.1091 45.4426H46.1801C46.6751 45.4426 47.0801 45.0376 47.0801 44.5426C47.0801 41.5141 49.5461 39.0481 52.5791 39.0481C55.6076 39.0481 58.0736 41.5141 58.0736 44.5426C58.0736 45.0376 58.4786 45.4426 58.9736 45.4426H59.3471C61.1741 45.4426 62.6591 43.9576 62.6591 42.1306V39.9166H60.4001ZM40.7486 32.8516H32.3156L34.1246 28.1086H40.7486V32.8516ZM44.5106 36.3256H43.3001C42.8051 36.3256 42.4001 35.9206 42.4001 35.4256C42.4001 34.9306 42.8051 34.5256 43.3001 34.5256H44.5106C45.0056 34.5256 45.4106 34.9306 45.4106 35.4256C45.4106 35.9206 45.0056 36.3256 44.5106 36.3256ZM42.5486 32.8516V28.1086H44.5421C45.2891 28.1086 46.4501 28.5901 46.9811 29.1211L50.7161 32.8516H42.5486Z" fill="#A6C2E9"/>
<defs>
<filter id="filter0_d_1625_4939" x="0" y="0" width="82" height="82" filterUnits="userSpaceOnUse" color-interpolation-filters="sRGB">
<feFlood flood-opacity="0" result="BackgroundImageFix"/>
<feColorMatrix in="SourceAlpha" type="matrix" values="0 0 0 0 0 0 0 0 0 0 0 0 0 0 0 0 0 0 127 0" result="hardAlpha"/>
<feOffset dy="4"/>
<feGaussianBlur stdDeviation="2.5"/>
<feColorMatrix type="matrix" values="0 0 0 0 0 0 0 0 0 0 0 0 0 0 0 0 0 0 0.05 0"/>
<feBlend mode="normal" in2="BackgroundImageFix" result="effect1_dropShadow_1625_4939"/>
<feBlend mode="normal" in="SourceGraphic" in2="effect1_dropShadow_1625_4939" result="shape"/>
</filter>
</defs>
</svg>
