<svg width="80" height="80" viewBox="0 0 80 80" fill="none" xmlns="http://www.w3.org/2000/svg">
<g filter="url(#filter0_b_1522_4925)">
<circle cx="40" cy="40" r="40" fill="url(#paint0_linear_1522_4925)" fill-opacity="0.3"/>
</g>
<g clip-path="url(#clip0_1522_4925)">
<path d="M55.3563 35.0253L49.9378 38.1534C51.4328 37.2923 51.9465 35.3822 51.0854 33.8872C50.2242 32.3923 48.3141 31.8785 46.8192 32.7392L38.6013 37.4839L34.1955 40.0273C35.1729 39.463 35.8797 38.5266 36.1537 37.4319C36.4282 36.3373 36.2461 35.1783 35.65 34.2199C35.0466 33.2973 33.8238 33.0128 32.8754 33.5746L29.264 35.6577L24.2396 38.5576C16.9558 42.767 13.9201 51.9823 17.7784 59.4553C19.7304 63.2588 23.1574 66.0943 27.2591 67.3005C31.3604 68.5062 35.7767 67.9767 39.4768 65.8355L55.7099 56.4658C57.2039 55.6433 57.8058 53.8042 57.0867 52.2573C56.6988 51.4924 56.0125 50.921 55.1905 50.677C54.3679 50.433 53.4815 50.5379 52.7385 50.9672L57.843 48.0197C59.3394 47.1976 59.9423 45.3567 59.2222 43.8093C58.8343 43.0444 58.1485 42.473 57.3264 42.2285C56.5043 41.9845 55.6179 42.0889 54.875 42.5178L58.3291 40.5239C59.8231 39.7018 60.4245 37.8627 59.7054 36.3163C59.3175 35.5509 58.6312 34.979 57.8087 34.735C56.9861 34.4906 56.0993 34.5954 55.3563 35.0253Z" fill="#FEC000"/>
<path d="M49.5552 39.5021L36.9072 46.8045C36.6051 46.9817 36.231 46.9832 35.9274 46.8087C35.6238 46.6343 35.4366 46.3107 35.4375 45.9605C35.4385 45.6102 35.6267 45.2871 35.9312 45.1141L48.5792 37.8117C49.0453 37.5463 49.6386 37.7073 49.9069 38.172C50.1752 38.6366 50.0179 39.2309 49.5552 39.5021Z" fill="#D9A600"/>
<path d="M52.3563 52.3131L43.1553 57.6254C42.8531 57.8026 42.479 57.8041 42.1755 57.6297C41.8719 57.4552 41.6851 57.1316 41.6855 56.7814C41.6865 56.4311 41.8747 56.108 42.1793 55.935L51.3803 50.6228C51.8463 50.3573 52.4392 50.5184 52.7075 50.983C52.9758 51.4477 52.819 52.042 52.3563 52.3131Z" fill="#D9A600"/>
<path d="M54.4902 43.8671L40.0317 52.2145C39.7296 52.3918 39.356 52.3933 39.0524 52.2188C38.7484 52.0444 38.5616 51.7208 38.5625 51.3706C38.563 51.0203 38.7517 50.6972 39.0557 50.5242L53.5142 42.1767C53.9807 41.9113 54.5736 42.0723 54.8419 42.537C55.1102 43.0016 54.9534 43.5954 54.4902 43.8671Z" fill="#D9A600"/>
<path d="M33.814 41.3759L26.5697 45.5582C26.1036 45.8232 25.5103 45.6621 25.242 45.198C24.9742 44.7333 25.131 44.139 25.5937 43.8679L32.838 39.6856C33.1401 39.5083 33.5137 39.5068 33.8173 39.6813C34.1213 39.8557 34.3081 40.1793 34.3072 40.5295C34.3067 40.8798 34.118 41.2029 33.814 41.3759Z" fill="#D9A600"/>
<path d="M60.4936 23.5269C60.0985 23.5269 59.743 23.2891 59.5919 22.9246C59.4409 22.56 59.5243 22.1401 59.8035 21.8609L66.1475 15.5169C66.3925 15.2633 66.7551 15.1614 67.0964 15.251C67.4376 15.3401 67.7044 15.6069 67.7936 15.9482C67.8832 16.2894 67.7812 16.652 67.5276 16.897L61.1836 23.241C61.0006 23.424 60.7524 23.5269 60.4936 23.5269Z" fill="#AEADB3"/>
<path d="M61.9573 27.9188C61.5184 27.9193 61.1333 27.6267 61.0161 27.2044C60.8989 26.7817 61.0776 26.3328 61.4536 26.1064L66.3336 23.1784C66.6329 22.9911 67.0094 22.9802 67.3191 23.1493C67.6289 23.3185 67.8233 23.6416 67.8271 23.9948C67.8314 24.3474 67.6446 24.6753 67.3387 24.8512L62.4587 27.7792C62.3076 27.8707 62.1341 27.9188 61.9573 27.9188Z" fill="#AEADB3"/>
<path d="M56.1005 23.0389C55.7621 23.0389 55.4481 22.8635 55.2703 22.5762C55.093 22.2883 55.0768 21.9295 55.2279 21.6269L58.1559 15.7709C58.3966 15.2886 58.9832 15.0927 59.4655 15.3334C59.9478 15.5745 60.1436 16.1607 59.903 16.6434L56.975 22.4994C56.8091 22.8307 56.4708 23.0394 56.1005 23.0389Z" fill="#AEADB3"/>
<path d="M33.6528 21.0869C33.2624 21.0869 32.9093 20.8543 32.7559 20.4954L29.8279 13.6634C29.6244 13.1702 29.855 12.605 30.3454 12.3948C30.8358 12.1847 31.4043 12.4072 31.6216 12.8943L34.5496 19.7263C34.6788 20.0279 34.6478 20.3744 34.4672 20.6484C34.2866 20.922 33.9806 21.0869 33.6528 21.0869Z" fill="#AEADB3"/>
<path d="M37.5561 21.0868C37.0171 21.0868 36.5801 20.6498 36.5801 20.1108V14.2548C36.5801 13.7158 37.0171 13.2788 37.5561 13.2788C38.0951 13.2788 38.5321 13.7158 38.5321 14.2548V20.1108C38.5321 20.6498 38.0951 21.0868 37.5561 21.0868Z" fill="#AEADB3"/>
<path d="M29.7487 23.0389C29.4518 23.0394 29.1707 22.905 28.9853 22.6729L25.0813 17.7929C24.7443 17.3721 24.8125 16.7578 25.2338 16.4209C25.6546 16.084 26.2689 16.1521 26.6058 16.5729L30.5098 21.4529C30.7443 21.746 30.79 22.1473 30.628 22.4856C30.4655 22.8235 30.1238 23.0389 29.7487 23.0389Z" fill="#AEADB3"/>
<path d="M46.1009 26.4111L41.6764 30.8355C42.8979 29.6164 42.8998 27.6387 41.6812 26.4172C40.4622 25.1963 38.4844 25.1944 37.263 26.413L30.554 33.123C30.6107 33.0653 29.7409 33.936 26.9564 36.7205C27.7546 35.9228 28.195 34.8352 28.1769 33.7072C28.1583 32.5787 27.6827 31.506 26.8592 30.7349C26.0371 30 24.7818 30.0429 24.0122 30.8326L21.0665 33.7749L16.9624 37.881C11.0087 43.828 10.4659 53.5155 16.127 59.7366C18.9973 62.9043 23.0414 64.7562 27.3152 64.8596C31.5886 64.9631 35.7175 63.3084 38.738 60.2832L51.9921 47.0291C53.2221 45.8481 53.327 43.9161 52.2318 42.6089C51.659 41.9703 50.8488 41.5958 49.9915 41.5724C49.1342 41.5495 48.305 41.8803 47.6983 42.4869L51.8658 38.3184C53.0968 37.138 53.2021 35.2055 52.107 33.8979C51.5346 33.2597 50.7245 32.8847 49.8666 32.8613C49.0093 32.838 48.1801 33.1687 47.5734 33.7749L50.3942 30.9546C51.6237 29.7727 51.7286 27.8407 50.6344 26.5331C50.0616 25.8949 49.2514 25.5199 48.3936 25.497C47.5363 25.4737 46.707 25.8044 46.1009 26.4111Z" fill="#FFE670"/>
<path d="M41.6549 32.2378L31.3278 42.5649C30.9452 42.9347 30.3361 42.9295 29.9596 42.553C29.5831 42.1765 29.5779 41.5675 29.9482 41.1848L40.2748 30.8577C40.658 30.4879 41.2665 30.4931 41.643 30.8696C42.0195 31.2461 42.0248 31.8547 41.6549 32.2378Z" fill="#EBB300"/>
<path d="M47.6775 43.8875L40.1626 51.4024C39.9176 51.6564 39.5545 51.7579 39.2133 51.6688C38.8721 51.5792 38.6057 51.3128 38.5161 50.9716C38.4269 50.6303 38.5289 50.2677 38.7825 50.0223L46.2979 42.5073C46.6805 42.1375 47.2891 42.1428 47.6656 42.5193C48.0421 42.8957 48.0478 43.5043 47.6775 43.8875Z" fill="#EBB300"/>
<path d="M47.5523 35.1764L35.7427 46.9861C35.3619 47.3673 34.7438 47.3678 34.3625 46.9865C33.9808 46.6053 33.9808 45.9872 34.362 45.6059L46.1713 33.7963C46.5525 33.415 47.1706 33.415 47.5519 33.7958C47.9331 34.177 47.9336 34.7951 47.5523 35.1764Z" fill="#EBB300"/>
<path d="M26.9351 38.1221L21.0195 44.0377C20.6383 44.4189 20.0202 44.4184 19.6394 44.0372C19.2581 43.6559 19.2581 43.0378 19.6399 42.6566L25.5512 36.742C25.7961 36.4884 26.1592 36.3865 26.5005 36.476C26.8417 36.5652 27.1081 36.8316 27.1977 37.1728C27.2868 37.514 27.1853 37.8771 26.9313 38.1221H26.9351Z" fill="#EBB300"/>
</g>
<defs>
<filter id="filter0_b_1522_4925" x="-6" y="-6" width="92" height="92" filterUnits="userSpaceOnUse" color-interpolation-filters="sRGB">
<feFlood flood-opacity="0" result="BackgroundImageFix"/>
<feGaussianBlur in="BackgroundImageFix" stdDeviation="3"/>
<feComposite in2="SourceAlpha" operator="in" result="effect1_backgroundBlur_1522_4925"/>
<feBlend mode="normal" in="SourceGraphic" in2="effect1_backgroundBlur_1522_4925" result="shape"/>
</filter>
<linearGradient id="paint0_linear_1522_4925" x1="-7.45058e-08" y1="40" x2="80" y2="40" gradientUnits="userSpaceOnUse">
<stop stop-color="white"/>
<stop offset="1" stop-color="white" stop-opacity="0.88"/>
</linearGradient>
<clipPath id="clip0_1522_4925">
<rect width="55.6522" height="55.6522" fill="white" transform="translate(12.1738 12.1736)"/>
</clipPath>
</defs>
</svg>
