<svg width="40" height="40" viewBox="0 0 40 40" fill="none" xmlns="http://www.w3.org/2000/svg">
<rect x="0.5" y="0.5" width="39" height="39" rx="9.5" fill="#081A34" stroke="#A6C2E9"/>
<path d="M28.3706 24.6C27.8244 24.1419 24.6206 22.1131 24.0881 22.2063C23.8381 22.2506 23.6469 22.4638 23.135 23.0744C22.8983 23.3749 22.6383 23.6564 22.3575 23.9163C21.843 23.792 21.345 23.6074 20.8738 23.3663C19.0258 22.4666 17.5329 20.9732 16.6337 19.125C16.3926 18.6538 16.208 18.1558 16.0838 17.6412C16.3436 17.3604 16.6251 17.1005 16.9256 16.8638C17.5356 16.3519 17.7494 16.1619 17.7938 15.9106C17.8869 15.3769 15.8563 12.1744 15.4 11.6281C15.2088 11.4019 15.035 11.25 14.8125 11.25C14.1675 11.25 11.25 14.8575 11.25 15.325C11.25 15.3631 11.3125 19.1188 16.0556 23.9444C20.8813 28.6875 24.6369 28.75 24.675 28.75C25.1425 28.75 28.75 25.8325 28.75 25.1875C28.75 24.965 28.5981 24.7913 28.3706 24.6Z" fill="#A6C2E9"/>
<path d="M24.375 19.375H25.625C25.6235 18.0494 25.0962 16.7785 24.1589 15.8411C23.2215 14.9038 21.9506 14.3765 20.625 14.375V15.625C21.6193 15.626 22.5725 16.0214 23.2756 16.7244C23.9786 17.4275 24.374 18.3807 24.375 19.375Z" fill="#A6C2E9"/>
<path d="M27.5 19.375H28.75C28.7475 17.2209 27.8907 15.1557 26.3675 13.6325C24.8443 12.1093 22.7791 11.2525 20.625 11.25V12.5C22.4477 12.5022 24.1951 13.2272 25.484 14.516C26.7728 15.8049 27.4978 17.5523 27.5 19.375Z" fill="#A6C2E9"/>
</svg>
