<svg width="40" height="40" viewBox="0 0 40 40" fill="none" xmlns="http://www.w3.org/2000/svg">
<rect x="0.5" y="0.5" width="39" height="39" rx="9.5" fill="#081A34" stroke="#A6C2E9"/>
<g clip-path="url(#clip0_1645_20607)">
<path d="M20 10C18.0117 10.0026 16.1056 10.7937 14.6996 12.1996C13.2937 13.6056 12.5026 15.5117 12.5 17.5C12.5 22.8844 19.4875 29.6281 19.7844 29.9125C19.8421 29.9686 19.9195 30 20 30C20.0805 30 20.1579 29.9686 20.2156 29.9125C20.5125 29.6281 27.5 22.8844 27.5 17.5C27.4974 15.5117 26.7063 13.6056 25.3004 12.1996C23.8944 10.7937 21.9883 10.0026 20 10ZM20 20.9375C19.3201 20.9375 18.6555 20.7359 18.0902 20.3582C17.5249 19.9805 17.0843 19.4436 16.8242 18.8155C16.564 18.1874 16.4959 17.4962 16.6286 16.8294C16.7612 16.1626 17.0886 15.5501 17.5693 15.0693C18.0501 14.5886 18.6626 14.2612 19.3294 14.1286C19.9962 13.9959 20.6874 14.064 21.3155 14.3242C21.9436 14.5843 22.4805 15.0249 22.8582 15.5902C23.2359 16.1555 23.4375 16.8201 23.4375 17.5C23.437 18.4115 23.0746 19.2855 22.4301 19.9301C21.7855 20.5746 20.9115 20.937 20 20.9375Z" fill="#A6C2E9"/>
</g>
<defs>
<clipPath id="clip0_1645_20607">
<rect width="20" height="20" fill="white" transform="translate(10 10)"/>
</clipPath>
</defs>
</svg>
