<svg width="20" height="20" viewBox="0 0 20 20" fill="none" xmlns="http://www.w3.org/2000/svg">
<g clip-path="url(#clip0_1040_2397)">
<path d="M5.90942 0H16.8185C17.8231 0 18.6367 0.813623 18.6367 1.8182V14.5455H16.8185V1.8182H5.90942V0Z" fill="#A6C2E9"/>
<path d="M3.18178 3.63635H13.1818C14.1863 3.63635 15 4.44998 15 5.45455V18.1818C15 19.1864 14.1864 20 13.1818 20H3.18178C2.17725 20 1.36358 19.1864 1.36358 18.1818V5.45455C1.36363 4.45002 2.17725 3.63635 3.18178 3.63635ZM3.18178 18.1818H13.1818V5.45455H3.18178V18.1818Z" fill="#A6C2E9"/>
</g>
<defs>
<clipPath id="clip0_1040_2397">
<rect width="20" height="20" fill="white" transform="matrix(-1 0 0 1 20 0)"/>
</clipPath>
</defs>
</svg>
