<svg width="82" height="82" viewBox="0 0 82 82" fill="none" xmlns="http://www.w3.org/2000/svg">
<g filter="url(#filter0_d_1625_4910)">
<circle cx="41" cy="37" r="36" fill="#081A34"/>
<circle cx="41" cy="37" r="35.5" stroke="#A6C2E9"/>
</g>
<path d="M43.2659 32.4141L39.4377 35.547C40.3518 36.1407 41.1565 36.6798 41.9768 37.2032C42.6956 37.6641 43.0315 38.297 43.0237 39.1563C43.0081 41.711 43.0237 44.2657 43.0159 46.8204C43.0081 48.1095 42.2268 48.9688 41.094 48.9688C39.9612 48.9688 39.1721 48.1173 39.1721 46.8204C39.1643 44.8751 39.1331 42.9298 39.1877 40.9923C39.2034 40.297 39.0159 39.8673 38.3987 39.5235C37.4299 38.9845 36.5002 38.3673 35.5784 37.7579C33.2502 36.2188 33.1409 33.4845 35.3284 31.7735C36.8596 30.5782 38.3987 29.3907 39.9456 28.211C41.4924 27.0235 42.6721 27.0391 44.2346 28.2423C45.1565 28.9532 46.1096 29.6329 46.9924 30.3907C47.5393 30.8595 48.1096 31.0313 48.8127 30.9923C49.5627 30.9532 50.3127 30.9688 51.0627 30.9923C52.219 31.0313 53.0315 31.8516 53.0315 32.9298C53.0315 34.0782 52.2893 34.8204 51.0862 34.836C49.7581 34.8595 48.4221 34.8751 47.0862 34.8204C46.6487 34.7891 46.2346 34.6485 45.8752 34.3985C44.9924 33.8048 44.1799 33.1251 43.2659 32.4141Z" fill="#A6C2E9"/>
<path d="M38.0471 23.5624C38.7346 24.1015 39.2814 24.7812 39.4924 25.4921C39.6018 25.8671 39.4221 26.3749 39.1174 26.6093C37.0705 28.2109 34.9768 29.7577 32.883 31.2968C32.3518 31.6874 31.8361 31.5859 31.4221 31.0702C30.5705 30.0155 29.7033 28.9687 28.8752 27.8905C28.3518 27.2109 28.4221 26.8046 29.1174 26.2734C30.4143 25.2734 31.6955 24.2499 33.0549 23.3437C33.1643 23.2734 33.2814 23.203 33.3986 23.1405C34.8986 22.3515 36.7189 22.5155 38.0471 23.5624Z" fill="#A6C2E9"/>
<path d="M53 36.9844C48.5781 36.9844 45 40.5625 45 44.9844C45 49.4063 48.5781 52.9844 53 52.9844C57.4219 52.9844 61 49.4063 61 44.9844C61 40.5703 57.4219 36.9844 53 36.9844ZM53 49.6484C50.4219 49.6484 48.3359 47.5625 48.3281 44.9844C48.3281 42.4063 50.4141 40.3203 52.9922 40.3203C55.5703 40.3203 57.6562 42.4063 57.6641 44.9844C57.6641 47.5625 55.5781 49.6484 53 49.6484Z" fill="#A6C2E9"/>
<path d="M29 36.9844C24.5781 36.9844 21 40.5703 21 44.9844C21 49.3984 24.5781 52.9844 29 52.9844C33.4219 52.9844 37 49.4063 37 44.9844C37 40.5703 33.4219 36.9844 29 36.9844ZM29 49.6484C26.4219 49.6484 24.3359 47.5625 24.3281 44.9844C24.3281 42.4063 26.4141 40.3203 28.9922 40.3203C31.5703 40.3203 33.6562 42.4063 33.6641 44.9844C33.6641 47.5625 31.5781 49.6484 29 49.6484Z" fill="#A6C2E9"/>
<path d="M49.0076 24.0157C48.992 25.5938 47.6482 26.9453 46.0936 26.9532C44.5154 26.961 43.1404 25.5547 43.1639 23.9532C43.1795 22.375 44.5232 21.0235 46.0779 21.0157C47.6482 21.0078 49.0232 22.4141 49.0076 24.0157Z" fill="#A6C2E9"/>
<defs>
<filter id="filter0_d_1625_4910" x="0" y="0" width="82" height="82" filterUnits="userSpaceOnUse" color-interpolation-filters="sRGB">
<feFlood flood-opacity="0" result="BackgroundImageFix"/>
<feColorMatrix in="SourceAlpha" type="matrix" values="0 0 0 0 0 0 0 0 0 0 0 0 0 0 0 0 0 0 127 0" result="hardAlpha"/>
<feOffset dy="4"/>
<feGaussianBlur stdDeviation="2.5"/>
<feColorMatrix type="matrix" values="0 0 0 0 0 0 0 0 0 0 0 0 0 0 0 0 0 0 0.05 0"/>
<feBlend mode="normal" in2="BackgroundImageFix" result="effect1_dropShadow_1625_4910"/>
<feBlend mode="normal" in="SourceGraphic" in2="effect1_dropShadow_1625_4910" result="shape"/>
</filter>
</defs>
</svg>
