<svg width="28" height="28" viewBox="0 0 28 28" fill="none" xmlns="http://www.w3.org/2000/svg">
<g clip-path="url(#clip0_1546_10160)">
<path d="M18.9766 9.95312C14.001 9.95312 9.95312 14.001 9.95312 18.9766C9.95312 23.9521 14.001 28 18.9766 28C23.9521 28 28 23.9521 28 18.9766C28 14.001 23.9521 9.95312 18.9766 9.95312ZM21.7109 15.4219C22.164 15.4219 22.5312 15.7892 22.5312 16.2422C22.5312 16.6952 22.164 17.0625 21.7109 17.0625C21.2579 17.0625 20.8906 16.6952 20.8906 16.2422C20.8906 15.7892 21.2579 15.4219 21.7109 15.4219ZM16.2422 15.4219C16.6952 15.4219 17.0625 15.7892 17.0625 16.2422C17.0625 16.6952 16.6952 17.0625 16.2422 17.0625C15.7892 17.0625 15.4219 16.6952 15.4219 16.2422C15.4219 15.7892 15.7892 15.4219 16.2422 15.4219ZM18.9766 24.1719C16.1119 24.1719 13.7812 21.8413 13.7812 18.9766C13.7812 18.5235 14.1485 18.1562 14.6016 18.1562C15.0546 18.1562 15.4219 18.5235 15.4219 18.9766C15.4219 20.9366 17.0165 22.5312 18.9766 22.5312C20.9366 22.5312 22.5312 20.9366 22.5312 18.9766C22.5312 18.5235 22.8985 18.1562 23.3516 18.1562C23.8046 18.1562 24.1719 18.5235 24.1719 18.9766C24.1719 21.8413 21.8413 24.1719 18.9766 24.1719Z" fill="#A6C2E9"/>
<path d="M12.2131 10.7378C11.6329 9.56145 10.4214 8.75 9.02344 8.75C7.06338 8.75 5.46875 10.3446 5.46875 12.3047C5.46875 12.7577 5.10147 13.125 4.64844 13.125C4.19541 13.125 3.82812 12.7577 3.82812 12.3047C3.82812 9.43999 6.15874 7.10937 9.02344 7.10937C10.9762 7.10937 12.6805 8.19251 13.5679 9.78939C14.8959 9.00457 16.4077 8.49959 18.0221 8.3557C17.6793 3.69075 13.7744 0 9.02344 0C4.04791 0 0 4.04791 0 9.02344C0 13.7744 3.69075 17.6793 8.3557 18.0222C8.61651 15.0956 10.064 12.5053 12.2131 10.7378ZM11.7578 4.375C12.2108 4.375 12.5781 4.74228 12.5781 5.19531C12.5781 5.64834 12.2108 6.01562 11.7578 6.01562C11.3048 6.01562 10.9375 5.64834 10.9375 5.19531C10.9375 4.74228 11.3048 4.375 11.7578 4.375ZM6.28906 4.375C6.74209 4.375 7.10937 4.74228 7.10937 5.19531C7.10937 5.64834 6.74209 6.01562 6.28906 6.01562C5.83603 6.01562 5.46875 5.64834 5.46875 5.19531C5.46875 4.74228 5.83603 4.375 6.28906 4.375Z" fill="#A6C2E9"/>
</g>
<defs>
<clipPath id="clip0_1546_10160">
<rect width="28" height="28" fill="white"/>
</clipPath>
</defs>
</svg>
