<svg width="26" height="26" viewBox="0 0 26 26" fill="none" xmlns="http://www.w3.org/2000/svg">
<path d="M18.5682 8.54561C18.4189 8.55044 18.2702 8.52521 18.1309 8.47142C17.9915 8.41764 17.8645 8.33639 17.7571 8.2325C17.6498 8.12862 17.5645 8.00422 17.5063 7.86671C17.448 7.7292 17.418 7.58137 17.418 7.43202C17.418 7.28268 17.448 7.13485 17.5063 6.99734C17.5645 6.85982 17.6498 6.73543 17.7571 6.63155C17.8645 6.52766 17.9915 6.44641 18.1309 6.39262C18.2702 6.33884 18.4189 6.31361 18.5682 6.31844H21.6015L21.822 2.90827C21.8364 2.68863 21.9156 2.47818 22.0495 2.30353C22.1835 2.12888 22.3662 1.99788 22.5746 1.92707C22.783 1.85627 23.0078 1.84885 23.2204 1.90576C23.433 1.96266 23.624 2.08134 23.7692 2.24677C23.8659 2.35611 23.9398 2.4836 23.9867 2.62181C24.0335 2.76002 24.0524 2.90619 24.0422 3.05177L23.7552 7.50261C23.7371 7.78479 23.6124 8.04956 23.4064 8.24323C23.2004 8.43691 22.9284 8.545 22.6457 8.54561H18.5682Z" fill="#A6C2E9"/>
<path d="M22.6429 8.26807H18.5678C18.4581 8.26807 18.3494 8.24646 18.2481 8.20448C18.1467 8.1625 18.0547 8.10097 17.9771 8.0234C17.8995 7.94584 17.838 7.85375 17.796 7.7524C17.754 7.65105 17.7324 7.54243 17.7324 7.43273C17.7324 7.32304 17.754 7.21441 17.796 7.11306C17.838 7.01172 17.8995 6.91963 17.9771 6.84206C18.0547 6.7645 18.1467 6.70296 18.2481 6.66099C18.3494 6.61901 18.4581 6.5974 18.5678 6.5974H21.8589L22.0923 2.92823C22.1113 2.70937 22.2139 2.50626 22.3788 2.36112C22.5437 2.21598 22.7583 2.13997 22.9778 2.1489C23.0872 2.15558 23.1943 2.18381 23.2928 2.23197C23.3913 2.28013 23.4794 2.34728 23.5519 2.42955C23.6244 2.51182 23.68 2.6076 23.7154 2.7114C23.7508 2.8152 23.7654 2.92496 23.7583 3.0344L23.4759 7.4864C23.4623 7.69811 23.3686 7.8967 23.2139 8.04187C23.0592 8.18704 22.8551 8.26791 22.6429 8.26807Z" fill="#A6C2E9"/>
<path d="M12.9993 25.25C10.8494 25.2485 8.73773 24.6812 6.8765 23.6052C5.01526 22.5291 3.47 20.9822 2.39597 19.1197C1.32194 17.2573 0.756967 15.1451 0.757813 12.9952C0.75866 10.8453 1.3253 8.73345 2.4008 6.87189C3.47629 5.01033 5.02277 3.46461 6.88485 2.39001C8.74693 1.31542 10.859 0.749804 13.0089 0.75C15.1588 0.750197 17.2708 1.3162 19.1327 2.39113C20.9946 3.46607 22.5408 5.01208 23.6159 6.87383C23.764 7.12957 23.8044 7.43364 23.7283 7.71917C23.6521 8.00469 23.4657 8.24827 23.2099 8.39633C22.9542 8.54439 22.6501 8.58479 22.3646 8.50865C22.0791 8.43251 21.8355 8.24607 21.6875 7.99033C20.4748 5.88175 18.5369 4.28598 16.2348 3.50037C13.9328 2.71476 11.4236 2.79291 9.17493 3.72025C6.92622 4.64759 5.09137 6.36086 4.01229 8.54082C2.9332 10.7208 2.68349 13.2187 3.30969 15.5691C3.93589 17.9195 5.39527 19.9621 7.4159 21.3163C9.43653 22.6704 11.8806 23.2437 14.2926 22.9294C16.7046 22.615 18.92 21.4344 20.5261 19.6076C22.1322 17.7808 23.0193 15.4324 23.0221 13C23.0173 12.8507 23.0425 12.702 23.0963 12.5627C23.1501 12.4234 23.2313 12.2963 23.3352 12.189C23.4391 12.0817 23.5635 11.9963 23.701 11.9381C23.8385 11.8798 23.9864 11.8498 24.1357 11.8498C24.285 11.8498 24.4329 11.8798 24.5704 11.9381C24.7079 11.9963 24.8323 12.0817 24.9362 12.189C25.0401 12.2963 25.1213 12.4234 25.1751 12.5627C25.2289 12.702 25.2541 12.8507 25.2493 13C25.2456 16.2478 23.9538 19.3614 21.6572 21.658C19.3607 23.9545 16.247 25.2463 12.9993 25.25Z" fill="#A6C2E9"/>
<path d="M12.9994 24.9711C10.8982 24.9706 8.83423 24.4171 7.01477 23.3661C5.19532 22.3152 3.68452 20.8039 2.63421 18.984C1.58389 17.1642 1.03105 15.1 1.03125 12.9989C1.03145 10.8977 1.58467 8.83358 2.63533 7.01396C3.68599 5.19434 5.19707 3.68331 7.01672 2.63271C8.83637 1.58211 10.9005 1.02894 13.0017 1.02881C15.1028 1.02867 17.167 1.58157 18.9868 2.63194C20.8066 3.68232 22.3179 5.19316 23.3687 7.01264C23.4798 7.20448 23.5101 7.43259 23.453 7.64679C23.3959 7.86099 23.2561 8.04373 23.0642 8.15481C22.8724 8.26589 22.6443 8.29621 22.4301 8.23911C22.2159 8.182 22.0332 8.04215 21.9221 7.85031C20.6728 5.68523 18.679 4.04817 16.3122 3.24414C13.9454 2.44011 11.367 2.52396 9.05747 3.48006C6.7479 4.43616 4.86469 6.19929 3.75873 8.44096C2.65276 10.6826 2.39947 13.2499 3.04606 15.6645C3.69264 18.0791 5.19499 20.1762 7.27319 21.5652C9.35139 22.9542 11.8637 23.5403 14.342 23.2143C16.8203 22.8883 19.0955 21.6724 20.7438 19.7932C22.3921 17.914 23.3009 15.4996 23.3011 13C23.2969 12.8877 23.3154 12.7758 23.3554 12.6709C23.3955 12.5659 23.4563 12.4701 23.5342 12.3892C23.6121 12.3083 23.7056 12.244 23.809 12.2C23.9123 12.1561 24.0235 12.1334 24.1358 12.1334C24.2481 12.1334 24.3593 12.1561 24.4627 12.2C24.5661 12.244 24.6595 12.3083 24.7374 12.3892C24.8154 12.4701 24.8762 12.5659 24.9162 12.6709C24.9563 12.7758 24.9748 12.8877 24.9706 13C24.9669 16.1738 23.7044 19.2166 21.4602 21.4608C19.216 23.705 16.1732 24.9674 12.9994 24.9711Z" fill="#A6C2E9"/>
<path d="M17.4521 17.4544C17.2111 17.4552 16.9765 17.3764 16.7848 17.2304L12.3304 13.8902C12.1925 13.7863 12.0805 13.6519 12.0031 13.4974C11.9258 13.343 11.8853 13.1728 11.8848 13.0001V7.43155C11.8848 7.13605 12.0022 6.85266 12.2111 6.64371C12.42 6.43477 12.7034 6.31738 12.9989 6.31738C13.2944 6.31738 13.5778 6.43477 13.7868 6.64371C13.9957 6.85266 14.1131 7.13605 14.1131 7.43155V12.4482L18.1218 15.4501C18.3579 15.6275 18.514 15.8915 18.5558 16.1839C18.5975 16.4763 18.5216 16.7734 18.3446 17.0099C18.2404 17.148 18.1055 17.26 17.9507 17.3372C17.7958 17.4143 17.6251 17.4544 17.4521 17.4544Z" fill="#A6C2E9"/>
<path d="M17.4526 17.1767C17.2719 17.1766 17.0962 17.1176 16.9521 17.0087L12.4977 13.6674C12.3941 13.5897 12.3099 13.489 12.252 13.3731C12.1941 13.2573 12.164 13.1295 12.1641 13V7.43152C12.1641 7.20998 12.2521 6.99751 12.4087 6.84085C12.5654 6.6842 12.7779 6.59619 12.9994 6.59619C13.2209 6.59619 13.4334 6.6842 13.5901 6.84085C13.7467 6.99751 13.8347 7.20998 13.8347 7.43152V12.5824L17.9554 15.6729C18.0959 15.7781 18.1996 15.9249 18.2519 16.0925C18.3042 16.26 18.3024 16.4398 18.2467 16.6063C18.1911 16.7727 18.0844 16.9174 17.9418 17.0198C17.7993 17.1222 17.6281 17.1771 17.4526 17.1767Z" fill="#A6C2E9"/>
</svg>
