<svg width="103" height="57" viewBox="0 0 103 57" fill="none" xmlns="http://www.w3.org/2000/svg">
<g clip-path="url(#clip0_1040_2261)">
<path d="M61.6066 18.5528L61.6191 22.456L59.7614 15.6138C60.8498 16.1466 61.6026 17.2593 61.6066 18.5528Z" fill="#A6C2E9"/>
<path d="M59.7031 26.4636C60.6099 26.2176 61.2959 25.5661 61.6252 24.7583L61.6527 33.5266L68.6214 41.0831L78.0412 41.2811C78.9292 41.3 79.8116 41.4305 80.6666 41.6701L91.0286 44.5761L97.0472 36.6864C98.1199 35.2798 100.124 34.8947 101.579 35.8998C103.133 36.9732 103.459 39.113 102.326 40.5975L94.8996 50.3331C94.0792 51.4081 92.6906 51.8647 91.4011 51.5032L81.9318 48.8479L81.7102 69.3981L88.0424 96.451C88.5532 98.6333 87.1984 100.816 85.017 101.327C82.8206 101.84 80.6486 100.469 80.1409 98.3009L73.4637 69.7745L70.7644 69.7454L64.2554 81.8637L65.596 97.0184C65.8058 99.3901 63.9379 101.434 61.549 101.434C59.4697 101.434 57.6984 99.8443 57.5122 97.7335L56.0647 81.3702C55.9955 80.582 56.1574 79.7899 56.5323 79.0929L64.0739 65.0517L64.2782 46.0645L55.957 37.0408C55.3999 36.4373 55.0895 35.646 55.0871 34.8248L55.0415 20.3577L56.1464 24.4259C56.5653 25.9701 58.1566 26.884 59.7031 26.4636Z" fill="#A6C2E9"/>
<path d="M65.351 32.1891C65.3926 28.3684 68.5234 25.3045 72.3441 25.3461C76.1648 25.3878 79.2287 28.5185 79.1871 32.3392C79.1462 36.1599 76.0155 39.2231 72.1948 39.1822C68.3741 39.1406 65.3101 36.0098 65.351 32.1891Z" fill="#A6C2E9"/>
<path d="M24.2889 24.7702C28.0608 24.6005 31.2568 27.5206 31.4266 31.2926C31.5963 35.0646 28.6762 38.2605 24.9042 38.4303C21.1322 38.6008 17.9362 35.6799 17.7665 31.9079C17.5968 28.1359 20.5169 24.94 24.2889 24.7702Z" fill="#A6C2E9"/>
<path d="M2.50402 18.4316C2.91344 18.331 3.32364 18.3153 3.71812 18.368L2.30678 23.5655C1.88793 25.1104 2.79949 26.7025 4.34443 27.1221C5.66619 27.4804 7.03668 26.8644 7.66299 25.6817L9.248 32.1483L20.175 41.0329L27.6781 40.6949L38.2655 34.2637L39.6894 21.2638C39.8875 19.4603 41.5079 18.1589 43.3129 18.3562C45.1164 18.5542 46.4177 20.1762 46.2205 21.9796L44.6197 36.589C44.5081 37.6027 43.9321 38.5088 43.0599 39.0384L32.551 45.4217C32.8189 51.2321 33.3557 63.5893 33.4044 63.7865L37.365 79.8489C37.4789 80.3086 37.5103 80.7856 37.46 81.2563L35.6684 97.8121C35.4271 100.042 33.4232 101.652 31.1978 101.41C28.97 101.169 27.359 99.1677 27.6003 96.9399L29.3141 81.096L26.1221 68.151L24.6534 68.3561L21.6507 81.7003C21.5674 82.0696 21.4331 82.4264 21.2508 82.7588L12.1752 99.3256C11.1018 101.286 8.63742 102.014 6.66734 100.935C4.70198 99.8584 3.98138 97.3917 5.05796 95.4264L13.8592 79.3609L16.1334 69.252L15.0569 45.3588C15.0561 45.3526 15.0569 45.3455 15.0569 45.3384L4.24778 36.5505C3.69298 36.0986 3.30006 35.4786 3.12954 34.7839L0.096241 22.404C-0.335964 20.6414 0.742191 18.8631 2.50402 18.4316Z" fill="#A6C2E9"/>
<path d="M41.2637 13.9011L39.0752 5.83845C38.9942 5.54062 39.087 5.21921 39.3204 5.01804C43.3517 1.55411 49.2194 4.85616 53.4024 1.95331C53.8606 1.63584 54.4947 1.87158 54.6409 2.40909C55.2224 4.55047 59.26 19.328 60.3413 23.287C60.5912 24.2088 59.8965 25.1164 58.9417 25.1164C58.3036 25.1164 57.719 24.6921 57.5445 24.0461L54.4153 12.5219C53.958 12.6791 53.4873 12.7899 53.0079 12.8677C49.5236 13.428 45.5622 12.2327 42.5022 14.356C42.044 14.6735 41.4099 14.4386 41.2637 13.9011Z" fill="#A6C2E9"/>
<path d="M22.782 14.5589C22.6358 15.0965 22.0016 15.3314 21.5435 15.0139C18.4835 12.8914 14.5221 14.0859 11.0378 13.5256C10.5584 13.4486 10.0877 13.337 9.63033 13.1798L6.50195 24.704C6.29135 25.4773 5.4953 25.9322 4.72362 25.7232C3.95115 25.5134 3.49458 24.7174 3.7044 23.9449C4.21361 22.0817 8.16241 7.64287 9.40559 3.0662C9.55096 2.52869 10.1859 2.29373 10.6433 2.6112C14.827 5.51327 20.6948 2.21122 24.7253 5.67594C24.9595 5.87711 25.0522 6.19851 24.9713 6.49634L22.782 14.5589Z" fill="#A6C2E9"/>
</g>
<defs>
<clipPath id="clip0_1040_2261">
<rect width="103" height="57" fill="white" transform="matrix(-1 0 0 1 103 0)"/>
</clipPath>
</defs>
</svg>
