<svg width="40" height="40" viewBox="0 0 40 40" fill="none" xmlns="http://www.w3.org/2000/svg">
<g clip-path="url(#clip0_1717_6347)">
<path d="M11.8602 28.6445C11.8742 28.6343 11.8891 28.6241 11.9039 28.614C9.64844 24.3253 11.1476 18.9744 15.3875 16.4867C14.2406 15.6039 12.8055 15.0781 11.25 15.0781C7.50234 15.0781 4.45312 18.1273 4.45312 21.875C4.45312 25.8602 7.88031 28.9999 11.8602 28.6445Z" fill="#A6C2E9"/>
<path d="M4.45078 27.9766C1.77031 29.7547 0 32.7992 0 36.25C0 36.8969 0.525 37.4219 1.17188 37.4219H6.56406C6.84844 34.925 7.88047 32.6523 9.43047 30.8336C7.47188 30.4367 5.7375 29.4109 4.45078 27.9766Z" fill="#A6C2E9"/>
<path d="M28.0969 28.6141C28.1117 28.6242 28.1266 28.6344 28.1406 28.6446C32.1134 28.9993 35.5477 25.866 35.5477 21.875C35.5477 18.1273 32.4984 15.0781 28.7508 15.0781C27.1953 15.0781 25.7602 15.6039 24.6133 16.4867C28.8622 18.9797 30.3466 24.3361 28.0969 28.6141Z" fill="#A6C2E9"/>
<path d="M35.55 27.9766C34.2633 29.4109 32.5289 30.4367 30.5703 30.8336C32.1203 32.6523 33.1523 34.925 33.4367 37.4219H38.8289C39.4758 37.4219 40.0008 36.8969 40.0008 36.25C40.0008 32.7992 38.2305 29.7547 35.55 27.9766Z" fill="#A6C2E9"/>
<path d="M20 31.1719C23.7538 31.1719 26.7969 28.1288 26.7969 24.375C26.7969 20.6212 23.7538 17.5781 20 17.5781C16.2462 17.5781 13.2031 20.6212 13.2031 24.375C13.2031 28.1288 16.2462 31.1719 20 31.1719Z" fill="#A6C2E9"/>
<path d="M26.75 30.532C23.1153 34.513 16.8795 34.5073 13.25 30.532C10.5844 32.3296 8.82812 35.3781 8.82812 38.8281C8.82812 39.475 9.35313 40 10 40H30C30.6469 40 31.1719 39.475 31.1719 38.8281C31.1719 35.3781 29.4156 32.3296 26.75 30.532Z" fill="#A6C2E9"/>
<path d="M17.9025 14.6364L19.4759 15.4231C19.8041 15.5872 20.1922 15.5891 20.5241 15.4231L22.0975 14.6365C24.5325 13.4191 26.544 11.4076 27.7615 8.9725C28.3571 7.78133 28.6719 6.44773 28.6719 5.11586C28.6719 2.295 26.3769 0 23.556 0C22.234 0 20.9488 0.521875 20 1.43797C19.0512 0.521953 17.766 0 16.444 0C13.6231 0 11.3281 2.295 11.3281 5.11586C11.3281 6.44781 11.643 7.78141 12.2385 8.97242C13.456 11.4075 15.4675 13.419 17.9025 14.6364Z" fill="#A6C2E9"/>
</g>
<defs>
<clipPath id="clip0_1717_6347">
<rect width="40" height="40" fill="white"/>
</clipPath>
</defs>
</svg>
