<svg width="103" height="57" viewBox="0 0 103 57" fill="none" xmlns="http://www.w3.org/2000/svg">
<g clip-path="url(#clip0_1040_2245)">
<path d="M41.3934 18.5528L41.3809 22.456L43.2386 15.6138C42.1502 16.1466 41.3974 17.2593 41.3934 18.5528Z" fill="#A6C2E9"/>
<path d="M43.2969 26.4636C42.3901 26.2176 41.7041 25.5661 41.3748 24.7583L41.3473 33.5266L34.3786 41.0831L24.9588 41.2811C24.0708 41.3 23.1884 41.4305 22.3334 41.6701L11.9714 44.5761L5.95276 36.6864C4.88011 35.2798 2.87624 34.8947 1.42089 35.8998C-0.132695 36.9732 -0.458814 39.113 0.673566 40.5975L8.10044 50.3331C8.92084 51.4081 10.3094 51.8647 11.5989 51.5032L21.0682 48.8479L21.2898 69.3981L14.9576 96.451C14.4468 98.6333 15.8016 100.816 17.983 101.327C20.1794 101.84 22.3514 100.469 22.8591 98.3009L29.5363 69.7745L32.2356 69.7454L38.7446 81.8637L37.404 97.0184C37.1942 99.3901 39.0621 101.434 41.451 101.434C43.5303 101.434 45.3016 99.8443 45.4878 97.7335L46.9353 81.3702C47.0045 80.582 46.8426 79.7899 46.4677 79.0929L38.9261 65.0517L38.7218 46.0645L47.043 37.0408C47.6001 36.4373 47.9105 35.646 47.9129 34.8248L47.9585 20.3577L46.8536 24.4259C46.4347 25.9701 44.8434 26.884 43.2969 26.4636Z" fill="#A6C2E9"/>
<path d="M37.649 32.1891C37.6074 28.3684 34.4766 25.3045 30.6559 25.3461C26.8352 25.3878 23.7713 28.5185 23.8129 32.3392C23.8538 36.1599 26.9845 39.2231 30.8052 39.1822C34.6259 39.1406 37.6899 36.0098 37.649 32.1891Z" fill="#A6C2E9"/>
<path d="M78.7111 24.7702C74.9392 24.6005 71.7432 27.5206 71.5734 31.2926C71.4037 35.0646 74.3238 38.2605 78.0958 38.4303C81.8678 38.6008 85.0638 35.6799 85.2335 31.9079C85.4032 28.1359 82.4831 24.94 78.7111 24.7702Z" fill="#A6C2E9"/>
<path d="M100.496 18.4316C100.087 18.331 99.6764 18.3153 99.2819 18.368L100.693 23.5655C101.112 25.1104 100.201 26.7025 98.6556 27.1221C97.3338 27.4804 95.9633 26.8644 95.337 25.6817L93.752 32.1483L82.825 41.0329L75.3219 40.6949L64.7345 34.2637L63.3106 21.2638C63.1125 19.4603 61.4921 18.1589 59.6871 18.3562C57.8836 18.5542 56.5823 20.1762 56.7795 21.9796L58.3803 36.589C58.4919 37.6027 59.0679 38.5088 59.9401 39.0384L70.449 45.4217C70.1811 51.2321 69.6443 63.5893 69.5956 63.7865L65.635 79.8489C65.5211 80.3086 65.4897 80.7856 65.54 81.2563L67.3316 97.8121C67.5729 100.042 69.5768 101.652 71.8022 101.41C74.03 101.169 75.641 99.1677 75.3997 96.9399L73.6859 81.096L76.8779 68.151L78.3466 68.3561L81.3493 81.7003C81.4326 82.0696 81.5669 82.4264 81.7492 82.7588L90.8248 99.3256C91.8982 101.286 94.3626 102.014 96.3327 100.935C98.298 99.8584 99.0186 97.3917 97.942 95.4264L89.1408 79.3609L86.8666 69.252L87.9431 45.3588C87.9439 45.3526 87.9431 45.3455 87.9431 45.3384L98.7522 36.5505C99.307 36.0986 99.6999 35.4786 99.8705 34.7839L102.904 22.404C103.336 20.6414 102.258 18.8631 100.496 18.4316Z" fill="#A6C2E9"/>
<path d="M61.7363 13.9011L63.9248 5.83845C64.0058 5.54062 63.913 5.21921 63.6796 5.01804C59.6483 1.55411 53.7806 4.85616 49.5976 1.95331C49.1394 1.63584 48.5053 1.87158 48.3591 2.40909C47.7776 4.55047 43.74 19.328 42.6587 23.287C42.4088 24.2088 43.1035 25.1164 44.0583 25.1164C44.6964 25.1164 45.281 24.6921 45.4555 24.0461L48.5847 12.5219C49.042 12.6791 49.5127 12.7899 49.9921 12.8677C53.4764 13.428 57.4378 12.2327 60.4978 14.356C60.956 14.6735 61.5901 14.4386 61.7363 13.9011Z" fill="#A6C2E9"/>
<path d="M80.218 14.5589C80.3642 15.0965 80.9984 15.3314 81.4565 15.0139C84.5165 12.8914 88.4779 14.0859 91.9622 13.5256C92.4416 13.4486 92.9123 13.337 93.3697 13.1798L96.4981 24.704C96.7087 25.4773 97.5047 25.9322 98.2764 25.7232C99.0489 25.5134 99.5054 24.7174 99.2956 23.9449C98.7864 22.0817 94.8376 7.64287 93.5944 3.0662C93.449 2.52869 92.8141 2.29373 92.3567 2.6112C88.173 5.51327 82.3052 2.21122 78.2747 5.67594C78.0405 5.87711 77.9478 6.19851 78.0287 6.49634L80.218 14.5589Z" fill="#A6C2E9"/>
</g>
<defs>
<clipPath id="clip0_1040_2245">
<rect width="103" height="57" fill="white"/>
</clipPath>
</defs>
</svg>
