<svg width="82" height="82" viewBox="0 0 82 82" fill="none" xmlns="http://www.w3.org/2000/svg">
<g filter="url(#filter0_d_1625_4968)">
<circle cx="41" cy="37" r="36" fill="#081A34"/>
<circle cx="41" cy="37" r="35.5" stroke="#A6C2E9"/>
</g>
<path d="M24.3343 37.8333C26.1752 37.8333 27.6675 36.3409 27.6675 34.5C27.6675 32.6591 26.1752 31.1667 24.3343 31.1667C22.4933 31.1667 21.001 32.6591 21.001 34.5C21.001 36.3409 22.4933 37.8333 24.3343 37.8333Z" fill="#A6C2E9"/>
<path d="M47.6668 32.8335C47.2068 32.8335 46.8335 33.2068 46.8335 33.6668C46.8335 34.1268 47.2068 34.5002 47.6668 34.5002C54.5033 34.5002 59.3332 40.7534 59.3332 42C59.3332 42.46 59.7065 42.8333 60.1665 42.8333C60.6265 42.8333 60.9999 42.46 60.9999 42C60.9999 39.4167 55.0866 32.8335 47.6668 32.8335Z" fill="#A6C2E9"/>
<path d="M60.1668 41.1666H52.6469C51.5336 41.1666 50.572 40.45 50.2504 39.385L48.4104 33.2935L46.7438 29.9602C46.6038 29.6786 46.3155 29.5002 46.0005 29.5002H43.5005C43.2789 29.5002 43.0672 29.5886 42.9105 29.7436L39.8223 32.8335H26.8343C26.3743 32.8335 26.001 33.2069 26.001 33.6669V35.3335C26.001 35.7401 26.296 36.0884 26.6976 36.1551C29.7509 36.6651 34.949 37.9167 36.1424 39.145L36.1957 39.2484C37.7707 42.3316 39.7323 46.1665 43.5005 46.1665H55.1669C58.4918 46.1665 61.0001 44.3749 61.0001 42C61.0001 41.5399 60.6267 41.1666 60.1668 41.1666Z" fill="#A6C2E9"/>
<path d="M25.9392 31.7285L24.2725 28.3953C24.0759 28.0019 23.6025 27.8303 23.1959 28.0069L21.5043 28.7353C21.1077 28.9069 20.906 29.3536 21.0427 29.7636L21.876 32.2635C22.0244 32.7002 22.4977 32.9351 22.931 32.7901C23.2694 32.6785 23.481 32.3702 23.4943 32.0335L24.241 32.0635L24.4476 32.4752C24.5942 32.7668 24.8892 32.9351 25.1926 32.9351C25.3176 32.9351 25.4442 32.9068 25.5659 32.8468C25.9775 32.6402 26.1441 32.1402 25.9392 31.7285Z" fill="#A6C2E9"/>
<path d="M25.5408 36.2549C25.1308 36.0532 24.6291 36.2165 24.4224 36.6282L24.3174 36.8348C24.2408 36.4532 23.9041 36.1665 23.5008 36.1665C23.0408 36.1665 22.6675 36.5399 22.6675 36.9998V38.6664C22.6675 39.1264 23.0408 39.4998 23.5008 39.4998H24.3342C24.6491 39.4998 24.9375 39.3214 25.0791 39.0398L25.9125 37.3732C26.1174 36.9616 25.9524 36.4599 25.5408 36.2549Z" fill="#A6C2E9"/>
<path d="M45.1668 24.5002C44.7068 24.5002 44.3335 24.8736 44.3335 25.3336V26.1669C44.3335 26.6269 44.7068 27.0003 45.1668 27.0003C45.6268 27.0003 46.0002 26.6269 46.0002 26.1669V25.3336C46.0002 24.8736 45.6268 24.5002 45.1668 24.5002Z" fill="#A6C2E9"/>
<path d="M60.1665 26.167H45.1668C44.7068 26.167 44.3335 26.5403 44.3335 27.0003C44.3335 27.4603 44.7068 27.8337 45.1668 27.8337H60.1665C60.6264 27.8337 60.9998 27.4603 60.9998 27.0003C60.9998 26.5403 60.6264 26.167 60.1665 26.167Z" fill="#A6C2E9"/>
<path d="M45.1669 26.167H30.1673C29.7073 26.167 29.334 26.5403 29.334 27.0003C29.334 27.4603 29.7073 27.8337 30.1673 27.8337H45.1669C45.6269 27.8337 46.0003 27.4603 46.0003 27.0003C46.0003 26.5403 45.6269 26.167 45.1669 26.167Z" fill="#A6C2E9"/>
<path d="M48.5003 44.4998C48.0403 44.4998 47.667 44.8731 47.667 45.3331V48.6664C47.667 49.1264 48.0403 49.4997 48.5003 49.4997C48.9603 49.4997 49.3337 49.1264 49.3337 48.6664V45.3331C49.3337 44.8731 48.9603 44.4998 48.5003 44.4998Z" fill="#A6C2E9"/>
<path d="M55.1668 44.4998C54.7068 44.4998 54.3335 44.8731 54.3335 45.3331V48.6664C54.3335 49.1264 54.7068 49.4997 55.1668 49.4997C55.6268 49.4997 56.0002 49.1264 56.0002 48.6664V45.3331C56.0002 44.8731 55.6268 44.4998 55.1668 44.4998Z" fill="#A6C2E9"/>
<path d="M60.5735 46.2732C60.1719 46.0482 59.6635 46.1916 59.4385 46.5932C59.0436 47.2982 57.4336 47.7382 56.8336 47.8332H40.1673C39.7073 47.8332 39.334 48.2065 39.334 48.6665C39.334 49.1265 39.7073 49.4998 40.1673 49.4998L56.9485 49.4915C57.2569 49.4481 59.9885 49.0231 60.8934 47.4065C61.1184 47.0048 60.9752 46.4982 60.5735 46.2732Z" fill="#A6C2E9"/>
<defs>
<filter id="filter0_d_1625_4968" x="0" y="0" width="82" height="82" filterUnits="userSpaceOnUse" color-interpolation-filters="sRGB">
<feFlood flood-opacity="0" result="BackgroundImageFix"/>
<feColorMatrix in="SourceAlpha" type="matrix" values="0 0 0 0 0 0 0 0 0 0 0 0 0 0 0 0 0 0 127 0" result="hardAlpha"/>
<feOffset dy="4"/>
<feGaussianBlur stdDeviation="2.5"/>
<feColorMatrix type="matrix" values="0 0 0 0 0 0 0 0 0 0 0 0 0 0 0 0 0 0 0.05 0"/>
<feBlend mode="normal" in2="BackgroundImageFix" result="effect1_dropShadow_1625_4968"/>
<feBlend mode="normal" in="SourceGraphic" in2="effect1_dropShadow_1625_4968" result="shape"/>
</filter>
</defs>
</svg>
