<svg width="22" height="22" viewBox="0 0 22 22" fill="none" xmlns="http://www.w3.org/2000/svg">
<g clip-path="url(#clip0_1348_6029)">
<path d="M11 0C4.93457 0 0 4.93457 0 11C0 17.0654 4.93457 22 11 22C17.0654 22 22 17.0654 22 11C22 4.93457 17.0654 0 11 0ZM14.5543 15.2557C13.4085 16.4144 11.8803 17.0525 10.2511 17.0525C6.91367 17.0525 4.19848 14.3374 4.19848 11C4.19848 7.66262 6.91367 4.94746 10.2511 4.94746C11.8803 4.94746 13.4085 5.58559 14.5543 6.74429C14.7545 6.94676 14.7527 7.27323 14.5502 7.47347C14.3477 7.6737 14.0212 7.6719 13.821 7.46939C12.8704 6.50809 11.6026 5.97871 10.2511 5.97871C7.48228 5.97871 5.22977 8.23127 5.22977 11C5.22977 13.7687 7.48232 16.0213 10.2511 16.0213C11.6026 16.0213 12.8704 15.4919 13.821 14.5306C14.0213 14.3281 14.3477 14.3262 14.5502 14.5265C14.7527 14.7267 14.7546 15.0532 14.5543 15.2557ZM17.6504 11.3646L15.8427 13.1723C15.742 13.273 15.6101 13.3234 15.4781 13.3234C15.3462 13.3234 15.2142 13.273 15.1135 13.1723C14.9122 12.971 14.9121 12.6445 15.1135 12.4431L16.041 11.5156H10.2511C9.9663 11.5156 9.73543 11.2848 9.73543 11C9.73543 10.7152 9.9663 10.4844 10.2511 10.4844H16.041L15.1135 9.55689C14.9122 9.35554 14.9121 9.02907 15.1135 8.82767C15.3149 8.62628 15.6414 8.62628 15.8428 8.82767L17.6505 10.6354C17.7472 10.732 17.8015 10.8632 17.8015 11C17.8015 11.1367 17.7472 11.2679 17.6504 11.3646Z" fill="#A6C2E9"/>
</g>
<defs>
<clipPath id="clip0_1348_6029">
<rect width="22" height="22" fill="white"/>
</clipPath>
</defs>
</svg>
