<svg width="82" height="82" viewBox="0 0 82 82" fill="none" xmlns="http://www.w3.org/2000/svg">
<g filter="url(#filter0_d_1625_4997)">
<circle cx="41" cy="37" r="36" fill="#081A34"/>
<circle cx="41" cy="37" r="35.5" stroke="#A6C2E9"/>
</g>
<g clip-path="url(#clip0_1625_4997)">
<path d="M27.6395 41.4385C23.9721 41.4397 21 44.411 21 48.0786C21 50.7132 22.5375 52.9814 24.7616 54.0546C25.6325 54.4751 26.6073 54.7175 27.6395 54.7182C30.8578 54.7168 33.5389 52.4282 34.147 49.3902H43.3622L48.6627 38.9479L50.5873 42.6193C48.857 43.8175 47.722 45.8141 47.722 48.0786C47.722 51.7455 50.6944 54.7168 54.3618 54.7182C58.0285 54.7168 61.0001 51.7455 61.0001 48.0786C61.0001 44.4112 58.0284 41.4398 54.3618 41.4385C53.6613 41.4385 52.9872 41.5486 52.3536 41.7498L46.4309 30.4551H41.9846V31.2466C42.274 31.2207 42.5732 31.1878 42.8875 31.1434C42.9543 31.1338 43.0224 31.1292 43.0896 31.1292C43.8005 31.1292 44.4114 31.6606 44.511 32.3655C44.5137 32.3846 44.5142 32.4034 44.5162 32.4224H45.2413L46.2304 34.3079H37.8038L37.5172 34.9768L42.1178 37.3197C43.0358 37.7876 43.4716 38.8387 43.1543 39.8189L40.9512 46.6207C40.6717 47.4832 39.8752 48.0629 38.969 48.0629C38.7513 48.0629 38.5351 48.0287 38.3265 47.9609C37.7971 47.7895 37.3661 47.4219 37.1129 46.9261C36.8599 46.4303 36.8147 45.866 36.9866 45.3366L38.6419 40.2261L33.7813 37.7506H23.8687L22.3935 40.2356L30.5289 40.2358C32.1234 41.252 34.9654 43.4909 35.5532 46.7672H34.147C33.5389 43.7284 30.858 41.4397 27.6395 41.4385ZM31.4305 49.3902C30.8849 50.9617 29.3968 52.0913 27.6395 52.0941C25.4213 52.0908 23.6267 50.2956 23.6223 48.0787C23.6267 45.8598 25.4214 44.0663 27.6395 44.0615C29.3967 44.0654 30.8857 45.1946 31.4305 46.7675H27.4757V49.3903H31.4305V49.3902ZM51.8209 44.9707L53.818 48.7812L55.5604 47.8679L53.6039 44.1363C53.8492 44.089 54.1027 44.062 54.3617 44.0614C56.5787 44.0661 58.3744 45.8597 58.3766 48.0786C58.3743 50.2956 56.5786 52.0908 54.3617 52.0939C52.1432 52.0906 50.3489 50.2955 50.3445 48.0786C50.347 46.8247 50.9216 45.7072 51.8209 44.9707Z" fill="#A6C2E9"/>
<path d="M51.6977 35.9471V31.9307C50.5885 31.9307 49.6895 32.8298 49.6895 33.9392C49.6895 34.1362 49.7265 34.3232 49.7793 34.5039C50.025 35.3357 50.7858 35.9471 51.6977 35.9471Z" fill="#A6C2E9"/>
<path d="M44.7741 24.0502C45.6256 22.481 45.0438 20.5185 43.4745 19.6669C41.9052 18.8153 39.9427 19.3971 39.0912 20.9663C38.2396 22.5355 38.8215 24.498 40.3908 25.3496C41.96 26.2012 43.9225 25.6194 44.7741 24.0502Z" fill="#A6C2E9"/>
<path d="M37.2598 45.4253C36.9539 46.3688 37.4712 47.3819 38.4151 47.6877C38.5989 47.7472 38.7855 47.7755 38.9689 47.7755C39.7268 47.7757 40.4315 47.2921 40.6777 46.5322L42.8808 39.7303C43.1531 38.8895 42.7746 37.9772 41.9872 37.576L36.6771 34.8715C36.801 34.3539 36.9641 33.836 37.1505 33.3252C36.4262 32.8773 35.8638 32.2107 35.5871 31.4584C35.4143 31.0026 35.3259 30.4996 35.3256 29.9658C35.3316 29.3602 35.4423 28.4223 35.9356 27.3763L35.9529 27.3393L35.9563 27.3311L35.9634 27.3172C36.2094 26.8319 36.7007 26.5303 37.2453 26.5303C37.4696 26.5303 37.6945 26.5843 37.8954 26.6865C38.5989 27.0443 38.8824 27.9088 38.5277 28.614L38.5257 28.6187L38.5217 28.6275C38.5148 28.6414 38.504 28.6658 38.4897 28.699C38.4652 28.7549 38.4181 28.8698 38.3692 29.0191C38.2616 29.3437 38.1982 29.6965 38.1997 29.9642C38.1994 30.1474 38.2252 30.3109 38.2744 30.4393C38.2949 30.4916 38.3189 30.5412 38.351 30.5907C38.6454 29.9948 38.934 29.4372 39.1833 28.9366C39.9604 27.6671 39.8951 25.8736 38.7937 25.253C37.6921 24.6325 35.8007 24.8025 34.5444 26.6388C32.8318 29.174 32.1282 30.9373 31.6388 34.1137C31.5201 35.6547 32.1094 36.4646 32.8886 36.9338C32.9805 37.0065 33.0807 37.0716 33.1892 37.1267V37.1265L38.9907 40.0814L37.2598 45.4253Z" fill="#A6C2E9"/>
<path d="M38.0062 30.5418C37.9443 30.3803 37.9121 30.1838 37.9124 29.9653C37.9107 29.6156 37.9995 29.2207 38.0963 28.9297C38.1437 28.7842 38.1917 28.6639 38.2256 28.5851C38.2426 28.5459 38.2555 28.5167 38.2637 28.5002C38.2675 28.4917 38.2702 28.4866 38.2709 28.4846C38.5556 27.9191 38.33 27.2296 37.7651 26.9426C37.1993 26.6549 36.5071 26.8807 36.2197 27.4467L36.2194 27.4465C36.1878 27.5302 35.6272 28.5702 35.6133 29.9651C35.6136 30.4004 35.6746 30.8776 35.8571 31.3588C36.1236 32.0827 36.7057 32.7869 37.5548 33.2242C38.404 33.6682 39.4777 33.8882 40.8563 33.8894C41.5644 33.8894 42.3558 33.83 43.2488 33.7043C43.8773 33.6156 44.3152 33.034 44.2267 32.4055C44.1377 31.7766 43.5566 31.3391 42.9276 31.4276C42.1226 31.5413 41.4354 31.5903 40.8563 31.59C39.3382 31.5908 38.6155 31.2511 38.312 30.9779C38.1538 30.838 38.0699 30.7046 38.0062 30.5418Z" fill="#A6C2E9"/>
</g>
<defs>
<filter id="filter0_d_1625_4997" x="0" y="0" width="82" height="82" filterUnits="userSpaceOnUse" color-interpolation-filters="sRGB">
<feFlood flood-opacity="0" result="BackgroundImageFix"/>
<feColorMatrix in="SourceAlpha" type="matrix" values="0 0 0 0 0 0 0 0 0 0 0 0 0 0 0 0 0 0 127 0" result="hardAlpha"/>
<feOffset dy="4"/>
<feGaussianBlur stdDeviation="2.5"/>
<feColorMatrix type="matrix" values="0 0 0 0 0 0 0 0 0 0 0 0 0 0 0 0 0 0 0.05 0"/>
<feBlend mode="normal" in2="BackgroundImageFix" result="effect1_dropShadow_1625_4997"/>
<feBlend mode="normal" in="SourceGraphic" in2="effect1_dropShadow_1625_4997" result="shape"/>
</filter>
<clipPath id="clip0_1625_4997">
<rect width="40" height="40" fill="white" transform="translate(21 17)"/>
</clipPath>
</defs>
</svg>
