<svg width="82" height="82" viewBox="0 0 82 82" fill="none" xmlns="http://www.w3.org/2000/svg">
<g filter="url(#filter0_d_1625_5026)">
<circle cx="41" cy="37" r="36" fill="#081A34"/>
<circle cx="41" cy="37" r="35.5" stroke="#A6C2E9"/>
</g>
<g clip-path="url(#clip0_1625_5026)">
<path d="M45.9387 44.9788H37.0176C36.4512 44.9788 35.9922 45.438 35.9922 46.0042V53.9747C35.9922 54.5411 36.4512 55.0001 37.0176 55.0001H45.9385C46.5048 55.0001 46.9641 54.5411 46.9641 53.9747V46.0042C46.9641 45.438 46.5048 44.9788 45.9387 44.9788ZM42.5037 49.0806H40.4526C39.8865 49.0806 39.4272 48.6216 39.4272 48.0552C39.4272 47.4888 39.8865 47.0298 40.4526 47.0298H42.5037C43.0701 47.0298 43.5291 47.4888 43.5291 48.0552C43.5291 48.6216 43.0701 49.0806 42.5037 49.0806Z" fill="#A6C2E9"/>
<path d="M36.1052 43.0658L30.7503 35.8843C29.6618 35.9454 28.7494 36.2693 28.7064 36.2851C28.6493 36.3064 28.5919 36.3254 28.5342 36.3433L34.462 44.293C34.8497 43.7157 35.4275 43.2764 36.1052 43.0658Z" fill="#A6C2E9"/>
<path d="M39.306 42.9279L38.0582 35.6375C37.0812 35.8321 36.3826 36.0596 36.0688 36.1718L37.2251 42.9276H39.306V42.9279Z" fill="#A6C2E9"/>
<path d="M45.9386 42.9278H45.9437L47.3813 36.1709C46.9613 36.0481 46.2633 35.8614 45.3864 35.6924L43.8467 42.9278H45.9386Z" fill="#A6C2E9"/>
<path d="M48.4934 44.293L54.4206 36.3441C54.3234 36.3136 54.227 36.2784 54.1322 36.2383C54.0591 36.2098 53.2417 35.8997 52.2115 35.876L46.8501 43.0657C47.5278 43.2764 48.1057 43.7157 48.4934 44.293Z" fill="#A6C2E9"/>
<path d="M38.078 23.7777C36.5767 26.5767 35.7158 30.0859 35.7158 33.4056V34.125C36.7036 33.8035 38.7971 33.2484 41.477 33.2484C44.2375 33.2484 46.6766 33.8358 47.816 34.1611V33.4056C47.816 30.0859 46.9548 26.5764 45.4536 23.7777C44.1064 21.266 42.6639 20.0772 41.8471 20.0016C41.8014 20.0005 41.7555 20.0005 41.7095 20C40.8978 20.0529 39.4393 21.2395 38.078 23.7777Z" fill="#A6C2E9"/>
<path d="M51.9581 23.885C50.2125 22.3253 48.1123 21.2016 45.8223 20.5752C46.3245 21.2174 46.8089 21.9656 47.2607 22.8081C48.9169 25.8957 49.8667 29.7583 49.8667 33.4057V34.1392C50.3807 33.9931 51.1743 33.8233 52.087 33.8233C53.6823 33.8233 54.9141 34.3419 54.9229 34.3459C55.0543 34.403 55.1936 34.4311 55.3325 34.4311C55.5293 34.4311 55.725 34.3744 55.8946 34.2634C56.1838 34.074 56.3582 33.7515 56.3582 33.4057C56.3582 29.8021 54.7955 26.4213 51.9581 23.885Z" fill="#A6C2E9"/>
<path d="M33.6648 33.4056C33.6648 29.7583 34.6147 25.8957 36.2708 22.8081C36.7656 21.8857 37.2991 21.0767 37.8527 20.396C35.2833 20.9728 32.9244 22.1632 30.9978 23.885C28.1603 26.4212 26.5977 29.8021 26.5977 33.4056C26.5977 33.7426 26.7643 34.058 27.042 34.2495C27.3194 34.4409 27.6743 34.4831 27.9894 34.3635C28.0036 34.3581 29.4306 33.8233 31.0971 33.8233C32.0979 33.8233 33.0528 34.0155 33.6648 34.1723V33.4056Z" fill="#A6C2E9"/>
</g>
<defs>
<filter id="filter0_d_1625_5026" x="0" y="0" width="82" height="82" filterUnits="userSpaceOnUse" color-interpolation-filters="sRGB">
<feFlood flood-opacity="0" result="BackgroundImageFix"/>
<feColorMatrix in="SourceAlpha" type="matrix" values="0 0 0 0 0 0 0 0 0 0 0 0 0 0 0 0 0 0 127 0" result="hardAlpha"/>
<feOffset dy="4"/>
<feGaussianBlur stdDeviation="2.5"/>
<feColorMatrix type="matrix" values="0 0 0 0 0 0 0 0 0 0 0 0 0 0 0 0 0 0 0.05 0"/>
<feBlend mode="normal" in2="BackgroundImageFix" result="effect1_dropShadow_1625_5026"/>
<feBlend mode="normal" in="SourceGraphic" in2="effect1_dropShadow_1625_5026" result="shape"/>
</filter>
<clipPath id="clip0_1625_5026">
<rect width="35" height="35" fill="white" transform="translate(24 20)"/>
</clipPath>
</defs>
</svg>
