<svg width="80" height="80" viewBox="0 0 80 80" fill="none" xmlns="http://www.w3.org/2000/svg">
<g filter="url(#filter0_b_1522_4653)">
<circle cx="40" cy="40" r="40" fill="url(#paint0_linear_1522_4653)" fill-opacity="0.3"/>
</g>
<g clip-path="url(#clip0_1522_4653)">
<path d="M37.5526 65.6445C51.5689 65.6445 62.9314 54.2821 62.9314 40.2657C62.9314 26.2494 51.5689 14.887 37.5526 14.887C23.5363 14.887 12.1738 26.2494 12.1738 40.2657C12.1738 54.2821 23.5363 65.6445 37.5526 65.6445Z" fill="#FDCA47"/>
<path d="M16.2596 31.7217C16.465 29.8496 17.1492 28.0578 18.087 26.4162C19.0356 24.7781 20.27 23.2918 21.708 22.0414C23.1442 20.7892 24.7859 19.7709 26.5401 19.0582C28.2961 18.3543 30.1664 17.9274 32.0492 17.9899C30.4183 18.9224 28.8784 19.7852 27.4243 20.757C25.9685 21.7181 24.6001 22.7541 23.305 23.8778C22.0099 25.0032 20.7934 26.2161 19.6394 27.5255C18.4747 28.8313 17.4064 30.2354 16.2578 31.7217H16.2596Z" fill="#FFE8BB"/>
<path d="M62.9336 40.2674C62.9336 54.2832 51.5723 65.648 37.553 65.648C29.8931 65.648 23.0263 62.2539 18.3711 56.8859C22.8245 60.7641 28.648 63.1078 35.0164 63.1078C49.0321 63.1078 60.3969 51.7466 60.3969 37.7272C60.3969 31.3767 58.0657 25.5711 54.2072 21.1177C59.5538 25.7694 62.9318 32.6218 62.9318 40.2656L62.9336 40.2674Z" fill="#F9B700"/>
<path d="M37.5098 17.6719C32.9599 22.9703 28.3101 27.7684 23.2743 31.8288C21.1753 33.5223 19.0085 35.0871 16.7541 36.5073C15.986 36.9914 15.2089 37.4576 14.4193 37.9078C13.9245 38.19 13.3064 37.8435 13.2868 37.2736L12.4204 13.022C12.4168 12.9238 12.4329 12.8273 12.4651 12.7416C12.5508 12.4933 12.767 12.3039 13.0278 12.2539C13.1135 12.236 13.2028 12.2325 13.2957 12.2485L36.8703 15.9338C37.6884 16.0642 38.0511 17.0449 37.5098 17.6737V17.6719Z" fill="#DF2540"/>
<path d="M23.2739 31.8288C21.175 33.5223 19.0081 35.0871 16.7537 36.5073C14.9334 29.3118 13.5651 21.2768 12.4629 12.7416C12.5486 12.4933 12.7648 12.3039 13.0256 12.2539C16.8877 18.524 20.3175 25.0424 23.2721 31.8306L23.2739 31.8288Z" fill="#EC576E"/>
<path d="M55.5158 17.9864C57.1209 17.9864 58.4222 16.6851 58.4222 15.08C58.4222 13.4748 57.1209 12.1736 55.5158 12.1736C53.9106 12.1736 52.6094 13.4748 52.6094 15.08C52.6094 16.6851 53.9106 17.9864 55.5158 17.9864Z" fill="#53AFF0"/>
<path d="M46.5771 15.2478L45.0391 20.8855L50.6893 19.3975L46.5771 15.2478Z" fill="#EC576E"/>
<path d="M61.4226 21.0037L60.0078 31.3592L65.817 23.9458L61.4226 21.0037Z" fill="#79B453"/>
<path d="M15.8863 47.438L12.8906 56.1179L19.3483 55.7035L15.8863 47.438Z" fill="#EC576E"/>
<path d="M15.8942 64.3335C17.1096 64.3335 18.0949 63.3481 18.0949 62.1327C18.0949 60.9172 17.1096 59.9319 15.8942 59.9319C14.6787 59.9319 13.6934 60.9172 13.6934 62.1327C13.6934 63.3481 14.6787 64.3335 15.8942 64.3335Z" fill="#53AFF0"/>
<path d="M42.2909 38.0614C41.8943 38.0614 41.5031 37.8899 41.2334 37.5594C40.7564 36.9753 40.8439 36.1161 41.4281 35.6391C44.5685 33.0739 48.5396 32.7416 53.227 34.6477C53.9254 34.9317 54.2613 35.7284 53.9772 36.4269C53.6932 37.1254 52.8965 37.4612 52.198 37.1772C48.452 35.6534 45.4956 35.8427 43.1537 37.7541C42.9 37.9614 42.5946 38.0614 42.2909 38.0614Z" fill="#664100"/>
<path d="M24.397 43.8259C24.1415 43.8259 23.8825 43.7545 23.6521 43.6044C23.0215 43.1918 22.8429 42.3468 23.2555 41.7144C25.4706 38.3186 29.1541 36.7984 34.1987 37.1932C34.9508 37.2521 35.5117 37.9095 35.4528 38.6615C35.3938 39.4136 34.7364 39.9727 33.9844 39.9156C29.9543 39.5994 27.1926 40.6766 25.5403 43.206C25.2777 43.608 24.8418 43.8259 24.3952 43.8259H24.397Z" fill="#664100"/>
<path d="M32.1042 58.5492C32.0095 58.5492 31.9149 58.5367 31.8202 58.5099C31.2557 58.3527 30.9234 57.7685 31.0806 57.2041C32.1792 53.2348 30.977 50.766 27.2953 49.437C26.7433 49.2387 26.4575 48.6295 26.6576 48.0776C26.8559 47.5256 27.465 47.2398 28.017 47.4398C32.758 49.1512 34.5247 52.7239 33.1278 57.7703C32.9974 58.2401 32.5704 58.5492 32.106 58.5492H32.1042Z" fill="#664100"/>
<path d="M48.1541 54.8514C47.8326 54.8514 47.5164 54.7067 47.3074 54.4316C44.1438 50.2587 44.4653 46.2858 48.2381 42.9435C48.6775 42.5541 49.3474 42.5952 49.7368 43.0346C50.1263 43.4741 50.0852 44.1439 49.6457 44.5334C46.7161 47.129 46.5107 49.8657 48.9991 53.149C49.3528 53.617 49.2617 54.2815 48.7936 54.637C48.6025 54.7817 48.3774 54.8532 48.1523 54.8532L48.1541 54.8514Z" fill="#664100"/>
<path d="M39.0471 54.5085C40.6286 54.5085 41.9107 52.8849 41.9107 50.8822C41.9107 48.8794 40.6286 47.2559 39.0471 47.2559C37.4656 47.2559 36.1836 48.8794 36.1836 50.8822C36.1836 52.8849 37.4656 54.5085 39.0471 54.5085Z" fill="#664100"/>
<path d="M50.6543 54.9124C45.3881 54.2157 40.8383 53.8102 38.2409 53.2118C37.3209 53.2118 36.5742 52.3079 36.5742 51.1914C36.5742 50.0749 37.3209 49.1692 38.2409 49.1692C40.3309 48.7209 45.5489 49.8391 51.1384 50.7127C50.3095 51.1485 49.745 51.9988 49.745 52.976C49.745 53.7477 50.0969 54.4408 50.6543 54.9124Z" fill="#358AC5"/>
<path d="M59.9889 48.4475C58.8635 47.1524 57.3237 46.3789 55.8731 46.3789C54.9478 46.3789 54.11 46.6826 53.449 47.256C52.4987 48.0831 52.0593 49.3586 52.2433 50.7555V50.8805C51.8735 50.8251 51.5037 50.7698 51.1375 50.7126C50.3086 51.1485 49.7441 51.9988 49.7441 52.9759C49.7441 53.7476 50.0961 54.4407 50.6534 54.9123C51.1804 54.982 51.7145 55.0552 52.2558 55.1303L56.5645 55.7751L57.8328 55.9645C58.7581 55.9645 59.5959 55.6608 60.2551 55.0874L60.4909 54.8605C61.9968 53.2832 61.8021 50.5375 59.9835 48.4475H59.9889ZM58.8671 53.485C58.0203 54.221 56.434 53.7816 55.3247 52.5043C54.2136 51.2253 53.9992 49.5943 54.846 48.8602C55.6927 48.1242 57.2772 48.5636 58.3883 49.8409C59.4994 51.1199 59.7138 52.7508 58.8688 53.485H58.8671Z" fill="#8ACBF9"/>
<path d="M64.2299 51.2752L60.4964 54.8605C62.0023 53.2831 61.8076 50.5375 59.9891 48.4474C58.8637 47.1523 57.3238 46.3788 55.8733 46.3788C54.948 46.3788 54.1102 46.6825 53.4492 47.2559L57.4703 43.819C59.5121 42.0719 62.565 42.2363 64.4067 44.1941C66.3003 46.2038 66.2217 49.3638 64.2299 51.2752Z" fill="#358AC5"/>
<path d="M58.8669 53.485C58.0202 54.221 56.4339 53.7816 55.3246 52.5043C54.2135 51.2253 53.9991 49.5944 54.8458 48.8602C55.6926 48.1242 57.2771 48.5636 58.3882 49.8409C59.4993 51.1199 59.7137 52.7509 58.8687 53.485H58.8669Z" fill="#15669B"/>
</g>
<defs>
<filter id="filter0_b_1522_4653" x="-6" y="-6" width="92" height="92" filterUnits="userSpaceOnUse" color-interpolation-filters="sRGB">
<feFlood flood-opacity="0" result="BackgroundImageFix"/>
<feGaussianBlur in="BackgroundImageFix" stdDeviation="3"/>
<feComposite in2="SourceAlpha" operator="in" result="effect1_backgroundBlur_1522_4653"/>
<feBlend mode="normal" in="SourceGraphic" in2="effect1_backgroundBlur_1522_4653" result="shape"/>
</filter>
<linearGradient id="paint0_linear_1522_4653" x1="-7.45058e-08" y1="40" x2="80" y2="40" gradientUnits="userSpaceOnUse">
<stop stop-color="white"/>
<stop offset="1" stop-color="white" stop-opacity="0.88"/>
</linearGradient>
<clipPath id="clip0_1522_4653">
<rect width="55.6522" height="53.4728" fill="white" transform="translate(12.1738 12.1736)"/>
</clipPath>
</defs>
</svg>
