<svg width="22" height="22" viewBox="0 0 22 22" fill="none" xmlns="http://www.w3.org/2000/svg">
<path d="M12.8197 5.65503L3.99448 14.4809C3.95008 14.5255 3.91802 14.5817 3.90275 14.6421L2.92456 18.5684C2.8953 18.6866 2.93003 18.8123 3.01628 18.8985C3.08155 18.9638 3.17047 18.9999 3.26144 18.9999C3.2893 18.9999 3.31779 18.9965 3.34553 18.9895L7.2718 18.0112C7.33299 17.9959 7.38858 17.964 7.43298 17.9196L16.259 9.0943L12.8197 5.65503Z" fill="white"/>
<path d="M18.4451 4.45189L17.4627 3.46949C16.8062 2.81291 15.6618 2.81355 15.006 3.46949L13.8026 4.67287L17.2418 8.11201L18.4451 6.90864C18.7731 6.58079 18.9538 6.14442 18.9538 5.68033C18.9538 5.21623 18.7731 4.77986 18.4451 4.45189Z" fill="white"/>
</svg>
