<svg width="26" height="26" viewBox="0 0 26 26" fill="none" xmlns="http://www.w3.org/2000/svg">
<path d="M3.35681 6.57141H5.49967H22.6425" stroke="#C2285C" stroke-width="2" stroke-linecap="round" stroke-linejoin="round"/>
<path d="M20.4998 6.57142V21.5714C20.4998 22.1397 20.274 22.6848 19.8721 23.0866C19.4703 23.4885 18.9252 23.7143 18.3569 23.7143H7.64261C7.07429 23.7143 6.52925 23.4885 6.12738 23.0866C5.72552 22.6848 5.49976 22.1397 5.49976 21.5714V6.57142M8.71404 6.57142V4.42856C8.71404 3.86024 8.93981 3.3152 9.34167 2.91333C9.74353 2.51147 10.2886 2.28571 10.8569 2.28571H15.1426C15.7109 2.28571 16.256 2.51147 16.6578 2.91333C17.0597 3.3152 17.2855 3.86024 17.2855 4.42856V6.57142" stroke="#C2285C" stroke-width="2" stroke-linecap="round" stroke-linejoin="round"/>
</svg>
