<svg width="82" height="82" viewBox="0 0 82 82" fill="none" xmlns="http://www.w3.org/2000/svg">
<g filter="url(#filter0_d_1625_5055)">
<circle cx="41" cy="37" r="36" fill="#081A34"/>
<circle cx="41" cy="37" r="35.5" stroke="#A6C2E9"/>
</g>
<g clip-path="url(#clip0_1625_5055)">
<path d="M35.153 43.7111C33.9535 42.5116 32.0021 42.5116 30.8026 43.7111C29.9728 44.541 26.5886 50.2462 24 55.0001C28.7532 52.4121 34.3232 48.8914 35.153 48.0615C36.3525 46.862 36.3525 44.9107 35.153 43.7111Z" fill="#A6C2E9"/>
<path d="M49.722 29.2778C48.9226 28.4784 47.6211 28.4784 46.8218 29.2778C46.0223 30.0771 46.0223 31.3786 46.8218 32.178C47.6211 32.9775 48.9226 32.9775 49.722 32.178C50.5214 31.3787 50.5214 30.0772 49.722 29.2778Z" fill="#A6C2E9"/>
<path d="M34.8591 34.7166C33.804 37.0804 33.5817 38.7506 33.4424 39.1002L39.8871 45.5451C40.0227 45.4914 41.777 45.1854 44.2248 44.0823L34.8591 34.7166Z" fill="#A6C2E9"/>
<path d="M58.9999 20C57.6115 20.2764 49.1838 18.5249 40.476 26.9289C38.3059 29.0232 36.8612 31.027 35.8447 32.8019L46.1458 43.1029C47.994 42.0643 50.0522 40.6153 52.071 38.5239C60.4571 29.8355 58.7278 21.3673 58.9999 20ZM43.1966 37.2535L41.7463 35.8033L43.1966 34.3531L44.6467 35.8033L43.1966 37.2535ZM51.1721 33.6281C49.5705 35.2299 46.9734 35.2299 45.3718 33.6281C43.77 32.0265 43.77 29.4294 45.3718 27.8278C46.9734 26.226 49.5705 26.226 51.1721 27.8278C52.7739 29.4294 52.7739 32.0265 51.1721 33.6281ZM53.3473 27.1026L51.8972 25.6525L53.3473 24.2023L54.7976 25.6525L53.3473 27.1026Z" fill="#A6C2E9"/>
<path d="M39.3902 47.948L38.6354 47.1931L37.4707 51.8516L45.6871 47.7434L46.2834 45.3586C43.143 46.979 41.9112 47.0163 39.3902 47.948Z" fill="#A6C2E9"/>
<path d="M33.5389 32.7422L31.2566 33.313L27.1484 41.5294L31.8069 40.3647L31.0372 39.595C32.1534 36.6479 31.9073 35.9167 33.5389 32.7422Z" fill="#A6C2E9"/>
</g>
<defs>
<filter id="filter0_d_1625_5055" x="0" y="0" width="82" height="82" filterUnits="userSpaceOnUse" color-interpolation-filters="sRGB">
<feFlood flood-opacity="0" result="BackgroundImageFix"/>
<feColorMatrix in="SourceAlpha" type="matrix" values="0 0 0 0 0 0 0 0 0 0 0 0 0 0 0 0 0 0 127 0" result="hardAlpha"/>
<feOffset dy="4"/>
<feGaussianBlur stdDeviation="2.5"/>
<feColorMatrix type="matrix" values="0 0 0 0 0 0 0 0 0 0 0 0 0 0 0 0 0 0 0.05 0"/>
<feBlend mode="normal" in2="BackgroundImageFix" result="effect1_dropShadow_1625_5055"/>
<feBlend mode="normal" in="SourceGraphic" in2="effect1_dropShadow_1625_5055" result="shape"/>
</filter>
<clipPath id="clip0_1625_5055">
<rect width="35" height="35" fill="white" transform="translate(24 20)"/>
</clipPath>
</defs>
</svg>
