<svg width="272" height="50" viewBox="0 0 272 50" fill="none" xmlns="http://www.w3.org/2000/svg">
<rect x="222" width="50" height="50" rx="25" fill="#DD2A7B"/>
<g clip-path="url(#clip0_870_1923)">
<path d="M247.003 19.3516C243.884 19.3516 241.358 21.8797 241.358 24.9964C241.358 28.1158 243.887 30.6412 247.003 30.6412C250.123 30.6412 252.648 28.1131 252.648 24.9964C252.648 21.877 250.12 19.3516 247.003 19.3516ZM247.003 28.6603C244.978 28.6603 243.339 27.0204 243.339 24.9964C243.339 22.9724 244.979 21.3325 247.003 21.3325C249.027 21.3325 250.667 22.9724 250.667 24.9964C250.668 27.0204 249.028 28.6603 247.003 28.6603Z" fill="white"/>
<path d="M251.536 14.0696C249.512 13.9752 244.499 13.9798 242.473 14.0696C240.693 14.153 239.122 14.5829 237.856 15.8488C235.741 17.9645 236.011 20.8153 236.011 24.9963C236.011 29.2753 235.773 32.0601 237.856 34.1437C239.98 36.2667 242.872 35.9889 247.004 35.9889C251.243 35.9889 252.706 35.9917 254.204 35.4114C256.242 34.6203 257.78 32.7989 257.931 29.5273C258.026 27.5024 258.02 22.4901 257.931 20.4643C257.749 16.6023 255.676 14.2603 251.536 14.0696ZM254.74 32.7439C253.353 34.1308 251.429 34.0071 246.977 34.0071C242.394 34.0071 240.556 34.0749 239.215 32.7302C237.67 31.1929 237.95 28.7243 237.95 24.9816C237.95 19.917 237.43 16.2696 242.513 16.0093C243.681 15.968 244.025 15.9543 246.964 15.9543L247.006 15.9818C251.891 15.9818 255.723 15.4703 255.953 20.5523C256.006 21.7118 256.017 22.0602 256.017 24.9953C256.017 29.5255 256.103 31.3744 254.74 32.7439Z" fill="white"/>
<path d="M252.872 20.4477C253.6 20.4477 254.191 19.8572 254.191 19.1287C254.191 18.4001 253.6 17.8096 252.872 17.8096C252.143 17.8096 251.553 18.4001 251.553 19.1287C251.553 19.8572 252.143 20.4477 252.872 20.4477Z" fill="white"/>
</g>
<rect x="148" width="50" height="50" rx="25" fill="#5D923C"/>
<path d="M177.233 14C177.284 14 177.336 14 177.39 14C177.515 15.5515 176.923 16.7108 176.203 17.5503C175.497 18.384 174.53 19.1926 172.966 19.0699C172.862 17.5406 173.455 16.4673 174.174 15.6297C174.84 14.8492 176.062 14.1546 177.233 14Z" fill="white"/>
<path d="M181.968 30.1487C181.968 30.1641 181.968 30.1777 181.968 30.1921C181.528 31.5234 180.902 32.6643 180.136 33.7231C179.438 34.6843 178.582 35.9779 177.054 35.9779C175.733 35.9779 174.856 35.1287 173.502 35.1055C172.071 35.0823 171.283 35.8156 169.974 36.0001C169.825 36.0001 169.675 36.0001 169.528 36.0001C168.567 35.861 167.791 35.0997 167.226 34.4138C165.56 32.387 164.272 29.769 164.032 26.4187C164.032 26.0903 164.032 25.7628 164.032 25.4343C164.134 23.0366 165.299 21.0871 166.847 20.1423C167.665 19.6399 168.788 19.212 170.039 19.4032C170.575 19.4863 171.123 19.6699 171.603 19.8515C172.058 20.0263 172.627 20.3364 173.166 20.32C173.531 20.3094 173.895 20.1191 174.263 19.9848C175.341 19.5955 176.398 19.1492 177.791 19.3588C179.465 19.6119 180.653 20.3558 181.387 21.5034C179.971 22.4048 178.852 23.763 179.043 26.0825C179.213 28.1895 180.438 29.4222 181.968 30.1487Z" fill="white"/>
<rect x="74" width="50" height="50" rx="25" fill="#E04D5F"/>
<g clip-path="url(#clip1_870_1923)">
<path d="M100.375 23.9V26.65H106.865C106.205 30.5 103.125 33.25 99.2754 33.25C94.7654 33.25 91.0254 29.51 91.0254 25C91.0254 20.49 94.7654 16.75 99.2754 16.75C101.585 16.75 103.565 17.74 104.995 19.28L106.975 17.3C104.995 15.32 102.355 14 99.2754 14C93.2254 14 88.2754 18.95 88.2754 25C88.2754 31.05 93.2254 36 99.2754 36C105.325 36 109.725 31.05 109.725 25V23.9H100.375Z" fill="white"/>
</g>
<rect width="50" height="50" rx="25" fill="#2843C8"/>
<g clip-path="url(#clip2_870_1923)">
<path d="M28.6644 17.6529H30.6728V14.1549C30.3263 14.1072 29.1346 14 27.7468 14C24.851 14 22.8674 15.8214 22.8674 19.1691V22.25H19.6719V26.1605H22.8674V36H26.7852V26.1614H29.8515L30.3382 22.2509H26.7843V19.5568C26.7852 18.4266 27.0895 17.6529 28.6644 17.6529Z" fill="white"/>
</g>
<defs>
<clipPath id="clip0_870_1923">
<rect width="22" height="22" fill="white" transform="translate(236 14)"/>
</clipPath>
<clipPath id="clip1_870_1923">
<rect width="22" height="22" fill="white" transform="translate(88 14)"/>
</clipPath>
<clipPath id="clip2_870_1923">
<rect width="22" height="22" fill="white" transform="translate(14 14)"/>
</clipPath>
</defs>
</svg>
