<svg width="22" height="22" viewBox="0 0 22 22" fill="none" xmlns="http://www.w3.org/2000/svg">
<path d="M17.7049 1.97388C17.5905 1.95458 17.4765 1.93213 17.3587 1.93213H11.8343L11.8281 1.94199L14.5822 6.34557L17.7049 1.97388Z" fill="#A6C2E9"/>
<path d="M8.36011 8.2688L10.9999 17.773L13.6396 8.2688H8.36011Z" fill="#A6C2E9"/>
<path d="M21.8522 6.89378C21.787 6.68259 21.6896 6.47857 21.5557 6.29121L19.0723 2.81376C19.0269 2.75019 18.968 2.70056 18.9163 2.64307L15.8801 6.89378H21.8522Z" fill="#A6C2E9"/>
<path d="M13.3037 6.8937L11.0138 3.23242L8.70288 6.8937H13.3037Z" fill="#A6C2E9"/>
<path d="M0.192871 8.2688C0.2739 8.48012 0.389338 8.68111 0.540313 8.8623L9.38314 19.4736C9.6076 19.7431 9.89458 19.9398 10.2108 20.0682L6.93347 8.2688H0.192871Z" fill="#A6C2E9"/>
<path d="M10.2043 1.93843L10.2004 1.93213H4.64126C4.52356 1.93213 4.40971 1.95458 4.29541 1.97384L7.42046 6.34893L10.2043 1.93843Z" fill="#A6C2E9"/>
<path d="M11.7896 20.0681C12.1057 19.9398 12.3927 19.7431 12.6175 19.4736L21.4596 8.86264C21.6108 8.68141 21.7264 8.48029 21.8075 8.2688H15.0671L11.7896 20.0681Z" fill="#A6C2E9"/>
<path d="M3.08375 2.64331C3.03223 2.70076 2.97335 2.75027 2.92799 2.81376L0.4442 6.29121C0.310467 6.47857 0.213117 6.68254 0.147949 6.89378H6.11981L3.08375 2.64331Z" fill="#A6C2E9"/>
</svg>
