<svg width="40" height="40" viewBox="0 0 40 40" fill="none" xmlns="http://www.w3.org/2000/svg">
<path d="M26.3788 33.9887C25.8352 33.9887 25.3424 33.6693 25.1171 33.1677L25.117 33.1674L19.4502 20.5481L6.83094 14.8813C6.31906 14.6514 5.99695 14.1432 6.01016 13.5866C6.02297 13.049 6.3532 12.5749 6.85156 12.3789L38.147 0.0699945C38.6504 -0.127974 39.2262 -0.00461489 39.6147 0.383901C40.003 0.772416 40.1262 1.34843 39.9283 1.8514L27.6195 33.1469C27.4234 33.6452 26.9494 33.9755 26.4118 33.9883C26.4009 33.9885 26.3898 33.9887 26.3788 33.9887ZM9.70836 13.6898L20.6809 18.6171C20.993 18.7575 21.2416 19.0062 21.3813 19.3176L26.3085 30.29L37.0703 2.92804L9.70836 13.6898Z" fill="#081A34"/>
<path d="M20.2832 20.849C19.9933 20.849 19.7034 20.7384 19.4822 20.5172C19.0398 20.0748 19.0398 19.3575 19.4822 18.9152L26.5206 11.8767C26.963 11.4343 27.6803 11.4343 28.1227 11.8767C28.5651 12.3192 28.5651 13.0363 28.1227 13.4788L21.0842 20.5172C20.8631 20.7384 20.5731 20.849 20.2832 20.849Z" fill="#081A34"/>
<path d="M6.94729 34.1843C6.65736 34.1843 6.36744 34.0736 6.14627 33.8525C5.70385 33.4101 5.70385 32.6928 6.14627 32.2504L14.2639 24.1328C14.7063 23.6904 15.4236 23.6904 15.866 24.1328C16.3084 24.5751 16.3084 25.2925 15.866 25.7348L7.7483 33.8525C7.52713 34.0736 7.23721 34.1843 6.94729 34.1843Z" fill="#081A34"/>
<path d="M12.4219 39.9867C12.132 39.9867 11.8421 39.8761 11.6209 39.6549C11.1785 39.2126 11.1785 38.4953 11.6209 38.0529L16.8503 32.8235C17.2927 32.3811 18.01 32.3811 18.4524 32.8235C18.8948 33.2658 18.8948 33.9831 18.4524 34.4255L13.2229 39.6549C13.0017 39.8761 12.7118 39.9867 12.4219 39.9867Z" fill="#081A34"/>
<path d="M1.13674 28.7019C0.846816 28.7019 0.556973 28.5913 0.335723 28.3701C-0.106699 27.9277 -0.106699 27.2104 0.335723 26.7681L5.56518 21.5386C6.0076 21.0962 6.72479 21.0962 7.16721 21.5386C7.60963 21.9809 7.60963 22.6983 7.16721 23.1406L1.93775 28.3701C1.71658 28.5913 1.42658 28.7019 1.13674 28.7019Z" fill="#081A34"/>
</svg>
