<svg width="40" height="40" viewBox="0 0 40 40" fill="none" xmlns="http://www.w3.org/2000/svg">
<g clip-path="url(#clip0_1717_6361)">
<path d="M40.0001 19.3866H31.886C31.8185 16.518 31.2775 13.7321 30.2734 11.0885C32.1576 10.0519 33.8591 8.74791 35.3447 7.19922C38.225 10.6279 39.8634 14.9098 40.0001 19.3866Z" fill="#A6C2E9"/>
<path d="M11.2852 29.4925C13.8048 28.2762 16.4944 27.6193 19.2968 27.5359V39.0467C15.8271 36.8295 13.0198 33.4841 11.2852 29.4925Z" fill="#A6C2E9"/>
<path d="M20.7051 13.6916C23.6657 13.6081 26.5081 12.9225 29.1744 11.6484C30.095 14.116 30.5936 16.7123 30.6593 19.3865H20.7052V13.6916H20.7051Z" fill="#A6C2E9"/>
<path d="M20.7051 12.465V0.954102C24.1743 3.17074 26.9816 6.51544 28.7167 10.5084C26.197 11.7241 23.5074 12.3816 20.7051 12.465Z" fill="#A6C2E9"/>
<path d="M19.2948 12.4649C16.493 12.3815 13.8041 11.724 11.2832 10.5077C13.0177 6.51545 15.8251 3.17074 19.2948 0.954102V12.4649Z" fill="#A6C2E9"/>
<path d="M10.8267 11.6487C13.4929 12.9226 16.3345 13.6083 19.2953 13.6918V19.3868H9.3418C9.408 16.7125 9.90603 14.1156 10.8267 11.6487Z" fill="#A6C2E9"/>
<path d="M19.296 20.6135V26.3085C16.3354 26.392 13.493 27.0776 10.8274 28.3522C9.90613 25.8847 9.4081 23.2878 9.3418 20.6135H19.296Z" fill="#A6C2E9"/>
<path d="M20.7051 27.5352C23.5069 27.6191 26.1964 28.2761 28.7173 29.4917C26.9828 33.4846 24.1754 36.8293 20.7051 39.0454V27.5352Z" fill="#A6C2E9"/>
<path d="M29.1749 28.3516C26.5086 27.0777 23.6664 26.392 20.7051 26.3085V20.6135H30.6592C30.5942 23.2877 30.0955 25.8847 29.1749 28.3516Z" fill="#A6C2E9"/>
<path d="M34.5131 6.27439C33.1331 7.72625 31.5536 8.95103 29.8037 9.93066C28.0274 5.88737 25.2017 2.47719 21.7129 0.148193C26.567 0.546827 31.1353 2.72739 34.5131 6.27439Z" fill="#A6C2E9"/>
<path d="M18.2871 0.148193C14.7983 2.47709 11.972 5.88737 10.1963 9.93066C8.44648 8.95114 6.86705 7.72625 5.48633 6.27439C8.86475 2.72739 13.4324 0.546827 18.2871 0.148193Z" fill="#A6C2E9"/>
<path d="M4.65604 7.19922C6.14161 8.74791 7.84305 10.0519 9.72726 11.0885C8.72379 13.7327 8.18217 16.518 8.11474 19.3866H0C0.137435 14.9098 1.77566 10.6273 4.65604 7.19922Z" fill="#A6C2E9"/>
<path d="M0 20.6135H8.11535C8.18279 23.4834 8.72441 26.2687 9.72788 28.9123C7.84305 29.9488 6.14161 31.2529 4.65666 32.8009C1.77627 29.3728 0.137435 25.091 0 20.6135Z" fill="#A6C2E9"/>
<path d="M5.48828 33.7258C6.86829 32.2752 8.44709 31.0498 10.1983 30.0696C11.9746 34.1129 14.8003 37.523 18.2897 39.852C13.4348 39.454 8.86721 37.2736 5.48828 33.7258Z" fill="#A6C2E9"/>
<path d="M21.7129 39.852C25.2017 37.5231 28.028 34.1129 29.8037 30.0696C31.5548 31.0503 33.1348 32.2752 34.5143 33.7258C31.1359 37.2729 26.5676 39.454 21.7129 39.852Z" fill="#A6C2E9"/>
<path d="M35.3447 32.8007C33.8597 31.2532 32.1589 29.9492 30.2734 28.9114C31.2775 26.2679 31.8185 23.4826 31.886 20.6133H40.0001C39.8633 25.0909 38.2249 29.3726 35.3447 32.8007Z" fill="#A6C2E9"/>
</g>
<defs>
<clipPath id="clip0_1717_6361">
<rect width="40" height="40" fill="white"/>
</clipPath>
</defs>
</svg>
